<svg width="24" height="25" viewBox="0 0 24 25" fill="none" xmlns="http://www.w3.org/2000/svg">
<path d="M0.651367 10.4383C0.651367 6.30058 3.94143 2.94629 7.99992 2.94629C12.0584 2.94629 15.3485 6.30058 15.3485 10.4383C15.3485 12.5072 14.526 14.3802 13.1961 15.736L8.70388 20.5364C8.30711 20.9604 7.63385 20.9585 7.23957 20.5322L2.8037 15.736C1.47386 14.3802 0.651367 12.5072 0.651367 10.4383Z" fill="url(#paint0_linear_602_28467)"/>
<g filter="url(#filter0_d_602_28467)">
<path d="M8 13.2705C6.34314 13.2705 5 11.8994 5 10.208C5 8.51663 6.34314 7.14551 8 7.14551C9.65686 7.14551 11 8.51663 11 10.208C11 11.8994 9.65686 13.2705 8 13.2705Z" fill="white"/>
</g>
<defs>
<filter id="filter0_d_602_28467" x="3" y="7.14551" width="10" height="10.125" filterUnits="userSpaceOnUse" color-interpolation-filters="sRGB">
<feFlood flood-opacity="0" result="BackgroundImageFix"/>
<feColorMatrix in="SourceAlpha" type="matrix" values="0 0 0 0 0 0 0 0 0 0 0 0 0 0 0 0 0 0 127 0" result="hardAlpha"/>
<feOffset dy="2"/>
<feGaussianBlur stdDeviation="1"/>
<feColorMatrix type="matrix" values="0 0 0 0 0.25 0 0 0 0 0.25 0 0 0 0 0.25 0 0 0 1 0"/>
<feBlend mode="normal" in2="BackgroundImageFix" result="effect1_dropShadow_602_28467"/>
<feBlend mode="normal" in="SourceGraphic" in2="effect1_dropShadow_602_28467" result="shape"/>
</filter>
<linearGradient id="paint0_linear_602_28467" x1="-6.69718" y1="12.1338" x2="11.2289" y2="26.4718" gradientUnits="userSpaceOnUse">
<stop stop-color="#868686"/>
<stop offset="1" stop-color="#303030"/>
</linearGradient>
</defs>
</svg>
