<?xml version="1.0" encoding="UTF-8"?>
<svg width="24px" height="24px" viewBox="0 0 24 24" version="1.1" xmlns="http://www.w3.org/2000/svg" xmlns:xlink="http://www.w3.org/1999/xlink">
    <title>ic/location</title>
    <defs>
        <linearGradient x1="16.6659423%" y1="0%" x2="83.3340577%" y2="100%" id="linearGradient-1">
            <stop stop-color="#36D9CD" offset="0%"></stop>
            <stop stop-color="#28C6C6" offset="100%"></stop>
        </linearGradient>
        <path d="M7.34854907,10.1137605 C5.69168442,10.1137605 4.34854907,8.77062512 4.34854907,7.11376047 C4.34854907,5.45689581 5.69168442,4.11376047 7.34854907,4.11376047 C9.00541373,4.11376047 10.3485491,5.45689581 10.3485491,7.11376047 C10.3485491,8.77062512 9.00541373,10.1137605 7.34854907,10.1137605 Z" id="path-2"></path>
        <filter x="-66.7%" y="-33.3%" width="233.3%" height="233.3%" filterUnits="objectBoundingBox" id="filter-3">
            <feOffset dx="0" dy="2" in="SourceAlpha" result="shadowOffsetOuter1"></feOffset>
            <feGaussianBlur stdDeviation="1" in="shadowOffsetOuter1" result="shadowBlurOuter1"></feGaussianBlur>
            <feColorMatrix values="0 0 0 0 0.1125   0 0 0 0 0.75   0 0 0 0 0.726242236  0 0 0 1 0" type="matrix" in="shadowBlurOuter1"></feColorMatrix>
        </filter>
    </defs>
    <g id="ic/location" stroke="none" stroke-width="1" fill="none" fill-rule="evenodd">
        <g>
            <rect id="矩形" x="0" y="0" width="24" height="24"></rect>
            <g id="编组-4" transform="translate(0.651451, 2.886240)" fill-rule="nonzero">
                <path d="M0,7.33910932 C0,3.28583512 3.29006145,0 7.34854907,0 C11.4070367,0 14.6970981,3.28583512 14.6970981,7.33910932 C14.6970981,9.36574643 13.8745828,11.2005238 12.544766,12.5286514 L8.04539903,17.2386136 C7.66390482,17.6379639 7.03090533,17.652439 6.63155509,17.2709448 C6.61912025,17.259066 6.6069939,17.2468684 6.59518814,17.2343641 L2.15233211,12.5286514 L2.15233211,12.5286514 C0.822496221,11.2005238 0,9.36574643 0,7.33910932 Z" id="路径" fill="url(#linearGradient-1)"></path>
                <g id="路径">
                    <use fill="black" fill-opacity="1" filter="url(#filter-3)" xlink:href="#path-2"></use>
                    <use fill="#FFFFFF" xlink:href="#path-2"></use>
                </g>
            </g>
        </g>
    </g>
</svg>