<?xml version="1.0" encoding="UTF-8"?>
<svg width="14px" height="14px" viewBox="0 0 14 14" version="1.1" xmlns="http://www.w3.org/2000/svg" xmlns:xlink="http://www.w3.org/1999/xlink">
    <title>ic/添加房屋</title>
    <g id="装修弹窗/无房屋/有房屋" stroke="none" stroke-width="1" fill="none" fill-rule="evenodd">
        <g id="13装修-已添加房屋信息-切换房屋-当前地址不是默认地址" transform="translate(-143.000000, -369.000000)">
            <g id="编组-5" transform="translate(0.000000, 98.000000)">
                <g id="ic/添加房屋" transform="translate(143.000000, 271.000000)">
                    <g id="编组-4" transform="translate(4.000000, 4.000000)" fill="#333333">
                        <path d="M0.5,2.5 L5.5,2.5 C5.77614237,2.5 6,2.72385763 6,3 C6,3.27614237 5.77614237,3.5 5.5,3.5 L0.5,3.5 C0.223857625,3.5 3.38176876e-17,3.27614237 0,3 C-3.38176876e-17,2.72385763 0.223857625,2.5 0.5,2.5 Z" id="矩形"></path>
                        <path d="M3,0 C3.27614237,-5.07265313e-17 3.5,0.223857625 3.5,0.5 L3.5,5.5 C3.5,5.77614237 3.27614237,6 3,6 C2.72385763,6 2.5,5.77614237 2.5,5.5 L2.5,0.5 C2.5,0.223857625 2.72385763,5.07265313e-17 3,0 Z" id="矩形备份"></path>
                    </g>
                    <circle id="椭圆形" stroke="#333333" cx="7" cy="7" r="6.5"></circle>
                </g>
            </g>
        </g>
    </g>
</svg>