<?xml version="1.0" encoding="UTF-8"?>
<svg width="16px" height="16px" viewBox="0 0 16 16" version="1.1" xmlns="http://www.w3.org/2000/svg" xmlns:xlink="http://www.w3.org/1999/xlink">
    <title>ic/location</title>
    <defs>
        <linearGradient x1="13.4844342%" y1="1.38460173%" x2="87.5555556%" y2="100%" id="linearGradient-1">
            <stop stop-color="#171717" offset="0%"></stop>
            <stop stop-color="#2A2A2A" offset="100%"></stop>
        </linearGradient>
    </defs>
    <g id="页面-1" stroke="none" stroke-width="1" fill="none" fill-rule="evenodd">
        <g id="07装修-已添加房屋信息-选1项" transform="translate(-16.000000, -104.000000)">
            <g id="ic/location" transform="translate(16.000000, 104.000000)">
                <rect id="矩形" x="0" y="0" width="16" height="16"></rect>
                <g id="编组-4" transform="translate(2.222222, 0.888889)" fill-rule="nonzero">
                    <path d="M0,5.7703558 C0,2.5834794 2.58680234,0 5.77777778,0 C8.96875322,0 11.5555556,2.5834794 11.5555556,5.7703558 C11.5555556,7.363794 10.908855,8.80638295 9.86328998,9.85061987 L6.79915959,12.9108142 C6.23506103,13.4741731 5.32047947,13.4741731 4.75639596,12.9108142 L1.69226557,9.85061987 C0.646685535,8.80638295 0,7.363794 0,5.7703558 Z" id="路径" fill="url(#linearGradient-1)"></path>
                    <path d="M5.77777778,8 C4.55047063,8 3.55555556,7.00508493 3.55555556,5.77777778 C3.55555556,4.55047063 4.55047063,3.55555556 5.77777778,3.55555556 C7.00508493,3.55555556 8,4.55047063 8,5.77777778 C8,7.00508493 7.00508493,8 5.77777778,8 Z" id="路径" fill="#FFFFFF"></path>
                </g>
            </g>
        </g>
    </g>
</svg>