<svg width="64" height="64" viewBox="0 0 64 64" fill="none" xmlns="http://www.w3.org/2000/svg">
<rect width="64" height="64" rx="12" fill="url(#paint0_linear_952_46063)"/>
<g filter="url(#filter0_d_952_46063)">
<path fill-rule="evenodd" clip-rule="evenodd" d="M32 23.5L42.5 30.1915V42.5C42.5 44.1569 41.1569 45.5 39.5 45.5H24.5C22.8431 45.5 21.5 44.1569 21.5 42.5L21.5 30.1915L32 23.5Z" fill="url(#paint1_linear_952_46063)"/>
<mask id="mask0_952_46063" style="mask-type:alpha" maskUnits="userSpaceOnUse" x="21" y="23" width="22" height="23">
<path fill-rule="evenodd" clip-rule="evenodd" d="M32 23.5L42.5 30.1915V42.5C42.5 44.1569 41.1569 45.5 39.5 45.5H24.5C22.8431 45.5 21.5 44.1569 21.5 42.5L21.5 30.1915L32 23.5Z" fill="white"/>
</mask>
<g mask="url(#mask0_952_46063)">
<g filter="url(#filter1_d_952_46063)">
<g filter="url(#filter2_i_952_46063)">
<path d="M33.9395 38.5977L35.0001 37.537L36.5911 39.128C36.884 39.4209 36.884 39.8958 36.5911 40.1886C36.2982 40.4815 35.8233 40.4815 35.5304 40.1886L33.9395 38.5977Z" fill="url(#paint2_linear_952_46063)"/>
</g>
<g filter="url(#filter3_i_952_46063)">
<path fill-rule="evenodd" clip-rule="evenodd" d="M36.3008 35.25C36.3008 32.9028 34.398 31 32.0508 31C29.7036 31 27.8008 32.9028 27.8008 35.25C27.8008 37.5972 29.7036 39.5 32.0508 39.5C34.398 39.5 36.3008 37.5972 36.3008 35.25ZM29.3008 35.25C29.3008 33.7312 30.532 32.5 32.0508 32.5C33.5696 32.5 34.8008 33.7312 34.8008 35.25C34.8008 36.7688 33.5696 38 32.0508 38C30.532 38 29.3008 36.7688 29.3008 35.25Z" fill="#2783EE"/>
</g>
</g>
<g filter="url(#filter4_f_952_46063)">
<path fill-rule="evenodd" clip-rule="evenodd" d="M40.8227 29.168L43.5003 31.1913V47.4998H20.3656L14.2891 36.8569L19.4715 42.7568L20.6416 44.0888H40.8227V29.168Z" fill="#D7E9FF"/>
</g>
</g>
<path fill-rule="evenodd" clip-rule="evenodd" d="M33.877 19.1829L44.5995 28.0078C45.018 28.3522 45.1238 28.9801 44.8442 29.4592L43.3711 31.9836C43.071 32.4978 42.4382 32.6543 41.9576 32.3333L41.8792 32.2754L33.2433 25.2372C32.5091 24.6388 31.4918 24.6386 30.7573 25.2367L22.1152 32.275C21.6644 32.6421 21.0207 32.5488 20.6776 32.0664L20.623 31.9817L19.155 29.4587C18.8763 28.9797 18.9825 28.3527 19.4005 28.0086L30.124 19.1829C31.2303 18.2724 32.7707 18.2724 33.877 19.1829Z" fill="#D4E8FF"/>
<mask id="mask1_952_46063" style="mask-type:alpha" maskUnits="userSpaceOnUse" x="19" y="18" width="26" height="15">
<path fill-rule="evenodd" clip-rule="evenodd" d="M33.877 19.1829L44.5995 28.0078C45.018 28.3522 45.1238 28.9801 44.8442 29.4592L43.3711 31.9836C43.071 32.4978 42.4382 32.6543 41.9576 32.3333L41.8792 32.2754L33.2433 25.2372C32.5091 24.6388 31.4918 24.6386 30.7573 25.2367L22.1152 32.275C21.6644 32.6421 21.0207 32.5488 20.6776 32.0664L20.623 31.9817L19.155 29.4587C18.8763 28.9797 18.9825 28.3527 19.4005 28.0086L30.124 19.1829C31.2303 18.2724 32.7707 18.2724 33.877 19.1829Z" fill="white"/>
</mask>
<g mask="url(#mask1_952_46063)">
<g filter="url(#filter5_f_952_46063)">
<path fill-rule="evenodd" clip-rule="evenodd" d="M45.7946 25.5716L48.2554 25.2568L44.7292 32.5132L41.2031 32.4999L45.7946 25.5716Z" fill="#ABD2FE"/>
</g>
<path fill-rule="evenodd" clip-rule="evenodd" d="M31.2959 17.7308L33.2487 17.5527L19.8739 28.5075C19.6884 28.6594 19.6369 28.9216 19.7511 29.1324L22.6582 34.4999L20.9756 33.1543L18.168 28.885L31.2959 17.7308Z" fill="white"/>
</g>
</g>
<defs>
<filter id="filter0_d_952_46063" x="15" y="16.5" width="34" height="35" filterUnits="userSpaceOnUse" color-interpolation-filters="sRGB">
<feFlood flood-opacity="0" result="BackgroundImageFix"/>
<feColorMatrix in="SourceAlpha" type="matrix" values="0 0 0 0 0 0 0 0 0 0 0 0 0 0 0 0 0 0 127 0" result="hardAlpha"/>
<feOffset dy="2"/>
<feGaussianBlur stdDeviation="2"/>
<feColorMatrix type="matrix" values="0 0 0 0 0.10035 0 0 0 0 0.442743 0 0 0 0 0.852861 0 0 0 1 0"/>
<feBlend mode="normal" in2="BackgroundImageFix" result="effect1_dropShadow_952_46063"/>
<feBlend mode="normal" in="SourceGraphic" in2="effect1_dropShadow_952_46063" result="shape"/>
</filter>
<filter id="filter1_d_952_46063" x="27.8008" y="31" width="11.0098" height="12.4082" filterUnits="userSpaceOnUse" color-interpolation-filters="sRGB">
<feFlood flood-opacity="0" result="BackgroundImageFix"/>
<feColorMatrix in="SourceAlpha" type="matrix" values="0 0 0 0 0 0 0 0 0 0 0 0 0 0 0 0 0 0 127 0" result="hardAlpha"/>
<feOffset dx="1" dy="2"/>
<feGaussianBlur stdDeviation="0.5"/>
<feComposite in2="hardAlpha" operator="out"/>
<feColorMatrix type="matrix" values="0 0 0 0 0.14902 0 0 0 0 0.509804 0 0 0 0 0.929412 0 0 0 0.29 0"/>
<feBlend mode="normal" in2="BackgroundImageFix" result="effect1_dropShadow_952_46063"/>
<feBlend mode="normal" in="SourceGraphic" in2="effect1_dropShadow_952_46063" result="shape"/>
</filter>
<filter id="filter2_i_952_46063" x="33.9395" y="37.5371" width="2.87109" height="3.07109" filterUnits="userSpaceOnUse" color-interpolation-filters="sRGB">
<feFlood flood-opacity="0" result="BackgroundImageFix"/>
<feBlend mode="normal" in="SourceGraphic" in2="BackgroundImageFix" result="shape"/>
<feColorMatrix in="SourceAlpha" type="matrix" values="0 0 0 0 0 0 0 0 0 0 0 0 0 0 0 0 0 0 127 0" result="hardAlpha"/>
<feOffset dy="0.2"/>
<feGaussianBlur stdDeviation="0.15"/>
<feComposite in2="hardAlpha" operator="arithmetic" k2="-1" k3="1"/>
<feColorMatrix type="matrix" values="0 0 0 0 1 0 0 0 0 1 0 0 0 0 1 0 0 0 1 0"/>
<feBlend mode="normal" in2="shape" result="effect1_innerShadow_952_46063"/>
</filter>
<filter id="filter3_i_952_46063" x="27.8008" y="31" width="8.5" height="8.5" filterUnits="userSpaceOnUse" color-interpolation-filters="sRGB">
<feFlood flood-opacity="0" result="BackgroundImageFix"/>
<feBlend mode="normal" in="SourceGraphic" in2="BackgroundImageFix" result="shape"/>
<feColorMatrix in="SourceAlpha" type="matrix" values="0 0 0 0 0 0 0 0 0 0 0 0 0 0 0 0 0 0 127 0" result="hardAlpha"/>
<feOffset/>
<feGaussianBlur stdDeviation="0.5"/>
<feComposite in2="hardAlpha" operator="arithmetic" k2="-1" k3="1"/>
<feColorMatrix type="matrix" values="0 0 0 0 1 0 0 0 0 1 0 0 0 0 1 0 0 0 1 0"/>
<feBlend mode="normal" in2="shape" result="effect1_innerShadow_952_46063"/>
</filter>
<filter id="filter4_f_952_46063" x="12.5691" y="27.448" width="32.6509" height="21.772" filterUnits="userSpaceOnUse" color-interpolation-filters="sRGB">
<feFlood flood-opacity="0" result="BackgroundImageFix"/>
<feBlend mode="normal" in="SourceGraphic" in2="BackgroundImageFix" result="shape"/>
<feGaussianBlur stdDeviation="0.86" result="effect1_foregroundBlur_952_46063"/>
</filter>
<filter id="filter5_f_952_46063" x="38.4848" y="22.5386" width="12.4893" height="12.6924" filterUnits="userSpaceOnUse" color-interpolation-filters="sRGB">
<feFlood flood-opacity="0" result="BackgroundImageFix"/>
<feBlend mode="normal" in="SourceGraphic" in2="BackgroundImageFix" result="shape"/>
<feGaussianBlur stdDeviation="1.35914" result="effect1_foregroundBlur_952_46063"/>
</filter>
<linearGradient id="paint0_linear_952_46063" x1="0" y1="0" x2="0" y2="64" gradientUnits="userSpaceOnUse">
<stop stop-color="#4AA4FC"/>
<stop offset="1" stop-color="#1E7BEA"/>
</linearGradient>
<linearGradient id="paint1_linear_952_46063" x1="27.5" y1="31" x2="41.5" y2="49.5" gradientUnits="userSpaceOnUse">
<stop stop-color="white"/>
<stop offset="1" stop-color="#61AAFE"/>
</linearGradient>
<linearGradient id="paint2_linear_952_46063" x1="34.5" y1="40.5" x2="35.5" y2="39.5" gradientUnits="userSpaceOnUse">
<stop stop-color="#FBFCFF"/>
<stop offset="1" stop-color="#4188F7"/>
</linearGradient>
</defs>
</svg>
