<svg width="64" height="64" viewBox="0 0 64 64" fill="none" xmlns="http://www.w3.org/2000/svg">
<rect width="64" height="64" rx="12" fill="url(#paint0_linear_952_46081)"/>
<g filter="url(#filter0_d_952_46081)">
<path fill-rule="evenodd" clip-rule="evenodd" d="M23 19.5C21.8954 19.5 21 20.3954 21 21.5V34.6503C21 35.5151 21.5558 36.282 22.3777 36.5511L28.3304 38.5H28.334V44.5004C28.334 45.605 29.2294 46.5004 30.334 46.5004H33.6673C34.7719 46.5004 35.6673 45.605 35.6673 44.5004V38.4994L41.622 36.5509C42.444 36.2819 43 35.515 43 34.6501V21.5C43 20.3954 42.1046 19.5 41 19.5H23Z" fill="url(#paint1_linear_952_46081)"/>
<mask id="mask0_952_46081" style="mask-type:alpha" maskUnits="userSpaceOnUse" x="21" y="19" width="22" height="28">
<path fill-rule="evenodd" clip-rule="evenodd" d="M23 19.5C21.8954 19.5 21 20.3954 21 21.5V34.6503C21 35.5151 21.5558 36.282 22.3777 36.5511L28.3304 38.5H28.334V44.5004C28.334 45.605 29.2294 46.5004 30.334 46.5004H33.6673C34.7719 46.5004 35.6673 45.605 35.6673 44.5004V38.4994L41.622 36.5509C42.444 36.2819 43 35.515 43 34.6501V21.5C43 20.3954 42.1046 19.5 41 19.5H23Z" fill="white"/>
</mask>
<g mask="url(#mask0_952_46081)">
<g filter="url(#filter1_f_952_46081)">
<path fill-rule="evenodd" clip-rule="evenodd" d="M41.9104 17.3691C43.015 17.3691 44.6912 18.2646 44.6912 19.3691V34.7193C44.6912 35.5505 44.177 37.5386 43.3998 37.8331L38.1582 39.7438L38.1589 45.9844C38.1589 46.5367 25.2807 48.056 25.2807 48.056L19 35.9003L30.8795 37.5298L26.5857 45.9844L35.2134 45.5003V37.5298L41.9104 34.7193V17.3691Z" fill="#FFF1E7"/>
</g>
</g>
<g filter="url(#filter2_i_952_46081)">
<path fill-rule="evenodd" clip-rule="evenodd" d="M21 21.5C21 20.3954 21.8954 19.5 23 19.5H41C42.1046 19.5 43 20.3954 43 21.5V29.5H21L21 21.5Z" fill="url(#paint2_linear_952_46081)"/>
</g>
<path d="M21.25 21.5C21.25 20.5335 22.0335 19.75 23 19.75H41C41.9665 19.75 42.75 20.5335 42.75 21.5V29.25H21.25V21.5Z" stroke="url(#paint3_linear_952_46081)" stroke-width="0.5"/>
<mask id="mask1_952_46081" style="mask-type:alpha" maskUnits="userSpaceOnUse" x="21" y="19" width="22" height="11">
<path fill-rule="evenodd" clip-rule="evenodd" d="M21 21.5C21 20.3954 21.8954 19.5 23 19.5H41C42.1046 19.5 43 20.3954 43 21.5V29.5H21L21 21.5Z" fill="white"/>
</mask>
<g mask="url(#mask1_952_46081)">
<g filter="url(#filter3_f_952_46081)">
<path fill-rule="evenodd" clip-rule="evenodd" d="M41.1211 13.9443C42.2644 13.9443 43.9993 15.4267 43.9993 17.2553V42.6669C43.9993 44.0429 41.1211 42.6669 41.1211 42.6669L41.1211 13.9443Z" fill="#FFEEE1"/>
</g>
</g>
</g>
<defs>
<filter id="filter0_d_952_46081" x="17" y="17.5" width="30" height="35" filterUnits="userSpaceOnUse" color-interpolation-filters="sRGB">
<feFlood flood-opacity="0" result="BackgroundImageFix"/>
<feColorMatrix in="SourceAlpha" type="matrix" values="0 0 0 0 0 0 0 0 0 0 0 0 0 0 0 0 0 0 127 0" result="hardAlpha"/>
<feOffset dy="2"/>
<feGaussianBlur stdDeviation="2"/>
<feColorMatrix type="matrix" values="0 0 0 0 0.962848 0 0 0 0 0.55689 0 0 0 0 0.248192 0 0 0 1 0"/>
<feBlend mode="normal" in2="BackgroundImageFix" result="effect1_dropShadow_952_46081"/>
<feBlend mode="normal" in="SourceGraphic" in2="effect1_dropShadow_952_46081" result="shape"/>
</filter>
<filter id="filter1_f_952_46081" x="16.2817" y="14.6509" width="31.128" height="36.1231" filterUnits="userSpaceOnUse" color-interpolation-filters="sRGB">
<feFlood flood-opacity="0" result="BackgroundImageFix"/>
<feBlend mode="normal" in="SourceGraphic" in2="BackgroundImageFix" result="shape"/>
<feGaussianBlur stdDeviation="1.35914" result="effect1_foregroundBlur_952_46081"/>
</filter>
<filter id="filter2_i_952_46081" x="21" y="19.5" width="22" height="10" filterUnits="userSpaceOnUse" color-interpolation-filters="sRGB">
<feFlood flood-opacity="0" result="BackgroundImageFix"/>
<feBlend mode="normal" in="SourceGraphic" in2="BackgroundImageFix" result="shape"/>
<feColorMatrix in="SourceAlpha" type="matrix" values="0 0 0 0 0 0 0 0 0 0 0 0 0 0 0 0 0 0 127 0" result="hardAlpha"/>
<feOffset dx="0.8" dy="0.8"/>
<feComposite in2="hardAlpha" operator="arithmetic" k2="-1" k3="1"/>
<feColorMatrix type="matrix" values="0 0 0 0 1 0 0 0 0 1 0 0 0 0 1 0 0 0 1 0"/>
<feBlend mode="normal" in2="shape" result="effect1_innerShadow_952_46081"/>
</filter>
<filter id="filter3_f_952_46081" x="38.4028" y="11.2261" width="8.31547" height="34.7705" filterUnits="userSpaceOnUse" color-interpolation-filters="sRGB">
<feFlood flood-opacity="0" result="BackgroundImageFix"/>
<feBlend mode="normal" in="SourceGraphic" in2="BackgroundImageFix" result="shape"/>
<feGaussianBlur stdDeviation="1.35914" result="effect1_foregroundBlur_952_46081"/>
</filter>
<linearGradient id="paint0_linear_952_46081" x1="0" y1="0" x2="0" y2="64" gradientUnits="userSpaceOnUse">
<stop stop-color="#FEC365"/>
<stop offset="1" stop-color="#FF7F46"/>
</linearGradient>
<linearGradient id="paint1_linear_952_46081" x1="27" y1="29.0001" x2="35.5002" y2="43.5002" gradientUnits="userSpaceOnUse">
<stop stop-color="white"/>
<stop offset="1" stop-color="#FFC475"/>
</linearGradient>
<linearGradient id="paint2_linear_952_46081" x1="25.5" y1="25" x2="38.5" y2="25" gradientUnits="userSpaceOnUse">
<stop stop-color="white"/>
<stop offset="1" stop-color="#FFC69D"/>
</linearGradient>
<linearGradient id="paint3_linear_952_46081" x1="21.5" y1="23.5" x2="43" y2="25" gradientUnits="userSpaceOnUse">
<stop stop-color="#FFE0B7"/>
<stop offset="1" stop-color="white" stop-opacity="0"/>
</linearGradient>
</defs>
</svg>
