<?xml version="1.0" encoding="UTF-8"?>
<svg width="24px" height="24px" viewBox="0 0 24 24" version="1.1" xmlns="http://www.w3.org/2000/svg" xmlns:xlink="http://www.w3.org/1999/xlink">
    <title>关注ic</title>
    <g id="V2.0" stroke="none" stroke-width="1" fill="none" fill-rule="evenodd">
        <g id="我的" transform="translate(-28.000000, -490.000000)">
            <g id="编组-6备份-2" transform="translate(12.000000, 477.000000)">
                <g id="ic/我的关注" transform="translate(16.000000, 13.000000)">
                    <rect id="矩形备份-11" opacity="0" x="0" y="0" width="24" height="24"></rect>
                    <g id="编组-5" transform="translate(3.000000, 2.503730)" stroke="#333333" stroke-width="1.3">
                        <path d="M9.49988617,3.58133964 C11.0437489,3.58132867 12.5876156,4.13103711 13.8164522,5.23046717 L13.8164522,5.23046717 L17.0679908,8.13959227 C17.3046577,8.35133621 17.4330932,8.6389626 17.449426,8.93281972 C17.46522,9.21698367 17.376185,9.50697409 17.1788202,9.73980701 L17.1788202,9.73980701 L13.81621,12.7659578 C12.5877576,13.8661511 11.04382,14.4162411 9.49988619,14.4162301 C7.95595243,14.4162192 6.41202257,13.8661072 5.18358584,12.7658965 L5.18358584,12.7658965 L1.93152553,9.85329101 C1.69496759,9.64142534 1.5666801,9.35373292 1.55049852,9.05986743 C1.53485056,8.7756928 1.62403655,8.48574552 1.82152486,8.25301309 L1.82152486,8.25301309 L5.18334356,5.23052846 C6.41216453,4.13108095 7.9560234,3.5813506 9.49988617,3.58133964 Z" id="路径"></path>
                        <circle id="椭圆形" cx="9.45151601" cy="8.99163791" r="1.35"></circle>
                    </g>
                </g>
            </g>
        </g>
    </g>
</svg>