<svg width="24" height="24" viewBox="0 0 24 24" fill="none" xmlns="http://www.w3.org/2000/svg">
<g clip-path="url(#clip0_625_39354)">
<rect width="24" height="24" fill="white"/>
<path d="M6.89497 11.044C10.0562 7.46134 15.7028 7.65943 18.6052 11.4548C19.1316 12.1432 19.1242 13.101 18.5872 13.7812L18.2394 14.2217C15.1442 18.1424 9.13471 17.9373 6.314 13.8147C5.83532 13.1151 5.89289 12.1797 6.45374 11.5441L6.89497 11.044Z" fill="#F5F5F5"/>
<path fill-rule="evenodd" clip-rule="evenodd" d="M10.5 6.125C9.11929 6.125 8 7.24429 8 8.625V10.625C8 12.0057 9.11929 13.125 10.5 13.125C11.8807 13.125 13 12.0057 13 10.625V8.625C13 7.24429 11.8807 6.125 10.5 6.125ZM10.5 7.125C9.67157 7.125 9 7.79657 9 8.625V10.625C9 11.4534 9.67157 12.125 10.5 12.125C11.3284 12.125 12 11.4534 12 10.625V8.625C12 7.79657 11.3284 7.125 10.5 7.125Z" fill="#BDBFC0"/>
<path fill-rule="evenodd" clip-rule="evenodd" d="M17.9664 8.90056L17.7863 8.68873C14.7539 5.1213 9.24701 5.12134 6.2147 8.68881L6.03468 8.9006C4.6473 10.5328 4.64729 12.93 6.03467 14.5622L6.21469 14.774C9.24701 18.3415 14.7539 18.3416 17.7863 14.7741L17.9664 14.5623C19.3538 12.93 19.3538 10.5328 17.9664 8.90056ZM18.5482 8.04108C15.1165 4.00385 8.88439 4.00389 5.45275 8.04117L5.27273 8.25296C3.56794 10.2586 3.56794 13.2042 5.27273 15.2099L5.45275 15.4217C8.88439 19.459 15.1165 19.459 18.5482 15.4218L18.7283 15.2099C20.4331 13.2043 20.4332 10.2586 18.7283 8.25291L18.5482 8.04108Z" fill="#666666"/>
</g>
<defs>
<clipPath id="clip0_625_39354">
<rect width="24" height="24" fill="white"/>
</clipPath>
</defs>
</svg>
