<?xml version="1.0" encoding="UTF-8"?>
<svg width="24px" height="24px" viewBox="0 0 24 24" version="1.1" xmlns="http://www.w3.org/2000/svg" xmlns:xlink="http://www.w3.org/1999/xlink">
    <title>ic/我的收藏</title>
    <g id="V2.0" stroke="none" stroke-width="1" fill="none" fill-rule="evenodd">
        <g id="我的" transform="translate(-28.000000, -440.000000)">
            <g id="编组-6备份" transform="translate(12.000000, 427.000000)">
                <g id="ic/我的收藏" transform="translate(16.000000, 13.000000)">
                    <rect id="矩形备份-9" opacity="0" x="0" y="0" width="24" height="24"></rect>
                    <path d="M11.1850184,4.07167288 C11.3910294,4.00181251 11.6236913,4.01054271 11.8341741,4.11442218 C12.0018049,4.19715289 12.1374883,4.33283628 12.220219,4.50046699 L12.220219,4.50046699 L13.9480729,8.00148153 L18.0481383,8.74022505 C18.2845224,8.77193848 18.484694,8.89764991 18.6165508,9.07434151 C18.7466529,9.24868163 18.8102465,9.47265402 18.776494,9.70493559 C18.7496132,9.88992706 18.6624991,10.0608981 18.528638,10.1913804 L18.528638,10.1913804 L15.7329115,12.9165402 L16.2973146,17.0442183 C16.3402,17.278833 16.2824978,17.5080545 16.1552001,17.6880585 C16.0295965,17.865667 15.8362376,17.9953593 15.6048946,18.0350378 C15.4206506,18.0666381 15.2311278,18.0366206 15.0656664,17.9496324 L15.0656664,17.9496324 L11.6099584,16.1328592 L7.85871336,17.9451611 C7.64883391,18.0584475 7.41300035,18.0744027 7.20246917,18.0089598 C6.99473983,17.9443877 6.81164389,17.8005696 6.70241855,17.5928107 C6.61543034,17.4273493 6.58541286,17.2378264 6.61701318,17.0535824 L6.61701318,17.0535824 L7.27699467,13.2055951 L4.39419468,10.1979811 C4.22159661,10.0333813 4.1335457,9.81402067 4.13072796,9.59357063 C4.12794772,9.37605443 4.20814711,9.1574776 4.37198513,8.98939708 C4.50246744,8.85553599 4.67343849,8.76842189 4.85842997,8.74154105 L4.85842997,8.74154105 L8.7220289,8.18012727 L10.6916056,4.50901772 C10.7948136,4.29400307 10.9762287,4.14247552 11.1850184,4.07167288 Z" id="星形" stroke="#333333" stroke-width="1.3"></path>
                </g>
            </g>
        </g>
    </g>
</svg>