<svg width="24" height="24" viewBox="0 0 24 24" fill="none" xmlns="http://www.w3.org/2000/svg">
<rect width="24" height="24" fill="white"/>
<path fill-rule="evenodd" clip-rule="evenodd" d="M13.5053 16.9243C13.1859 16.7708 12.8141 16.7708 12.4947 16.9243L10.5422 17.8625C9.69565 18.2694 8.7399 17.5601 8.88405 16.6319L9.20276 14.5798C9.25809 14.2236 9.14563 13.8618 8.89812 13.5997L7.48656 12.1051C6.84884 11.4298 7.21752 10.3163 8.13221 10.1551L10.1481 9.79968C10.5012 9.73745 10.806 9.51637 10.9748 9.20013L11.9708 7.3343C12.4101 6.51128 13.5899 6.51128 14.0292 7.3343L15.0252 9.20014C15.194 9.51637 15.4988 9.73745 15.8519 9.79968L17.8678 10.1551C18.7825 10.3163 19.1512 11.4298 18.5134 12.1051L17.1019 13.5997C16.8544 13.8618 16.7419 14.2236 16.7972 14.5798L17.116 16.6319C17.2601 17.5601 16.3043 18.2694 15.4578 17.8625L13.5053 16.9243Z" fill="#F5F5F5"/>
<path d="M12.8876 17.5288C12.3208 17.2565 11.661 17.2565 11.0942 17.5288L8.47479 18.7876C7.70546 19.1573 6.83691 18.5128 6.96791 17.6693L7.3955 14.9162C7.49367 14.2841 7.29413 13.6421 6.85493 13.177L4.96115 11.1717C4.38162 10.5581 4.71666 9.54621 5.5479 9.39967L8.25248 8.92288C8.87892 8.81244 9.41982 8.42015 9.71937 7.85899L11.0556 5.35576C11.4549 4.60784 12.527 4.60784 12.9262 5.35576L14.2625 7.85899C14.562 8.42015 15.1029 8.81244 15.7293 8.92288L18.4339 9.39967C19.2652 9.54621 19.6002 10.5581 19.0207 11.1717L17.1269 13.177C16.6877 13.6421 16.4882 14.2841 16.5863 14.9162L17.0139 17.6693C17.1449 18.5128 16.2764 19.1573 15.507 18.7876L12.8876 17.5288Z" stroke="#666666" stroke-width="1.01"/>
<path d="M14.1482 12.8516C13.0779 13.8984 10.9216 13.8984 9.98413 12.8516L9.68582 12.547C9.47904 12.3359 9.49945 11.9925 9.72979 11.8074L9.79138 11.7579C9.9903 11.598 10.2777 11.6136 10.4581 11.7941L10.817 12.153C11.4809 12.8168 12.5573 12.8168 13.2212 12.153L13.619 11.7551C13.8028 11.5713 14.0967 11.559 14.2952 11.7267L14.3986 11.814C14.6169 11.9985 14.6365 12.328 14.4416 12.537L14.1482 12.8516Z" fill="#BDBFC0"/>
</svg>
