<?xml version="1.0" encoding="UTF-8"?>
<svg width="32px" height="32px" viewBox="0 0 32 32" version="1.1" xmlns="http://www.w3.org/2000/svg" xmlns:xlink="http://www.w3.org/1999/xlink">
    <title>ic/评价</title>
    <defs>
        <linearGradient x1="0%" y1="5.63278778%" x2="100%" y2="94.3672122%" id="linearGradient-1">
            <stop stop-color="#54D1CD" offset="0%"></stop>
            <stop stop-color="#00BFB5" offset="100%"></stop>
        </linearGradient>
    </defs>
    <g id="V2.0" stroke="none" stroke-width="1" fill="none" fill-rule="evenodd">
        <g id="我的" transform="translate(-242.000000, -240.000000)">
            <g id="编组-13" transform="translate(242.000000, 240.000000)">
                <rect id="矩形备份" fill="#DCDCDC" opacity="0" x="0" y="0" width="32" height="32"></rect>
                <path d="M7,25 C5.34314575,25 4,23.6568542 4,22 L4,9 C4,7.34314575 5.34314575,6 7,6 L24,6 C25.6568542,6 27,7.34314575 27,9 L27,22 C27,23.6568542 25.6568542,25 24,25 L20,25 L16.3246015,27.4187682 C15.8241875,27.748089 15.1758125,27.748089 14.6753985,27.4187682 L11,25 L7,25 Z" id="形状结合" fill="url(#linearGradient-1)"></path>
                <rect id="矩形备份-24" fill="#FFFFFF" x="9.5172788" y="14.4429061" width="2" height="2" rx="1"></rect>
                <rect id="矩形备份-25" fill="#FFFFFF" x="14.5172788" y="14.4429061" width="2" height="2" rx="1"></rect>
                <rect id="矩形备份-26" fill="#FFFFFF" x="19.5172788" y="14.4429061" width="2" height="2" rx="1"></rect>
            </g>
        </g>
    </g>
</svg>