<svg width="12" height="12" viewBox="0 0 12 12" fill="none" xmlns="http://www.w3.org/2000/svg">
<path fill-rule="evenodd" clip-rule="evenodd" d="M7.37128 4.66392L7.37245 4.66274L4.82687 2.11716C4.67066 1.96095 4.41739 1.96095 4.26118 2.11716L4.11976 2.25858C3.96355 2.41479 3.96355 2.66805 4.11976 2.82426L5.19669 3.90119V3.90355L6.85355 5.5604L6.93125 5.64762C7.24208 6.04014 7.21617 6.61199 6.85355 6.97462L5.19669 8.63147V8.63372L4.11716 9.71325C3.96095 9.86946 3.96095 10.1227 4.11716 10.2789L4.25858 10.4204C4.41479 10.5766 4.66805 10.5766 4.82426 10.4204L7.36985 7.87478L7.36872 7.87365L7.56065 7.68172C8.3417 6.90067 8.3417 5.63434 7.56065 4.8533L7.37128 4.66392Z" fill="#B9B9B9"/>
</svg>
