<?xml version="1.0" encoding="UTF-8"?>
<svg width="24px" height="24px" viewBox="0 0 24 24" version="1.1" xmlns="http://www.w3.org/2000/svg" xmlns:xlink="http://www.w3.org/1999/xlink">
    <title>房屋管理ic</title>
    <g id="V2.0" stroke="none" stroke-width="1" fill="none" fill-rule="evenodd">
        <g id="我的" transform="translate(-28.000000, -540.000000)">
            <g id="编组-6备份-3" transform="translate(12.000000, 527.000000)">
                <g id="ic/房屋管理" transform="translate(16.000000, 13.000000)">
                    <rect id="矩形备份-13" opacity="0" x="0" y="0" width="24" height="24"></rect>
                    <g id="编组-10" transform="translate(6.000000, 5.016135)">
                        <path d="M7,0.65 C7.24658827,0.65 7.49317655,0.717459545 7.71096076,0.852378636 L7.71096076,0.852378636 L12.7109608,3.94991927 C13.1082653,4.19605267 13.35,4.63017293 13.35,5.09754063 L13.35,5.09754063 L13.35,11.9838645 C13.35,12.3566567 13.1988961,12.6941567 12.9545942,12.9384587 C12.7102922,13.1827606 12.3727922,13.3338645 12,13.3338645 L12,13.3338645 L2,13.3338645 C1.62720779,13.3338645 1.28970779,13.1827606 1.04540585,12.9384587 C0.801103897,12.6941567 0.65,12.3566567 0.65,11.9838645 L0.65,11.9838645 L0.65,5.09754063 C0.65,4.63017293 0.89173468,4.19605267 1.28903924,3.94991927 L1.28903924,3.94991927 L6.28903924,0.852378636 C6.50682345,0.717459545 6.75341173,0.65 7,0.65 Z" id="路径" stroke="#333333" stroke-width="1.3"></path>
                        <path d="M8.6,8.50316985 C9.15228475,8.50316985 9.6,8.9508851 9.6,9.50316985 L9.6,13.9838645 L4.6,13.9838645 L4.6,9.50316985 C4.6,8.9508851 5.04771525,8.50316985 5.6,8.50316985 L8.6,8.50316985 Z M7.99430342,9.80473073 L6.19571905,9.80473073 C6.03003363,9.80473073 5.89571905,9.9390453 5.89571905,10.1047307 L5.89571905,10.1047307 L5.89571905,12.6839406 L8.29430342,12.6839406 L8.29430342,10.1047307 C8.29430342,9.9390453 8.15998884,9.80473073 7.99430342,9.80473073 L7.99430342,9.80473073 Z" id="形状结合" fill="#333333"></path>
                    </g>
                </g>
            </g>
        </g>
    </g>
</svg>