<svg width="24" height="24" viewBox="0 0 24 24" fill="none" xmlns="http://www.w3.org/2000/svg">
<rect width="24" height="24" fill="white"/>
<path d="M7.5 12.1999C7.5 11.5196 7.84578 10.886 8.41788 10.5179L11.4535 8.56486C12.0942 8.15265 12.9135 8.14025 13.5664 8.53291L17.6047 10.9616C18.1656 11.2989 18.526 11.8893 18.5695 12.5424L18.8578 16.8669C18.9348 18.0213 18.0192 18.9999 16.8622 18.9999L9.5 18.9999C8.39543 18.9999 7.5 18.1045 7.5 16.9999L7.5 12.1999Z" fill="#F5F5F5"/>
<path fill-rule="evenodd" clip-rule="evenodd" d="M5.95316 7.91444C5.36089 8.27826 5 8.9235 5 9.61858V17C5 18.1045 5.89543 19 7 19H17C18.1046 19 19 18.1045 19 17V9.61858C19 8.9235 18.6391 8.27826 18.0468 7.91444L13.0468 4.84297C12.4047 4.4485 11.5953 4.4485 10.9532 4.84297L5.95316 7.91444ZM6.58269 8.69758C6.22125 8.91445 6.0001 9.30505 6.00009 9.72656L6.00006 16.8C6.00005 17.4628 6.53731 18 7.20006 18H16.8C17.4628 18 18 17.4628 18 16.8V9.72657C18 9.30506 17.7789 8.91445 17.4174 8.69758L12.6175 5.81754C12.2374 5.58953 11.7627 5.58953 11.3826 5.81755L6.58269 8.69758Z" fill="#666666"/>
<path fill-rule="evenodd" clip-rule="evenodd" d="M12 12C10.6193 12 9.5 13.1193 9.5 14.5V18H10.5V14.5C10.5 13.6715 11.1716 13 12 13C12.8284 13 13.5 13.6716 13.5 14.5V18H14.5V14.5C14.5 13.1193 13.3807 12 12 12Z" fill="#BDBFC0"/>
</svg>
