<?xml version="1.0" encoding="UTF-8"?>
<svg width="24px" height="24px" viewBox="0 0 24 24" version="1.1" xmlns="http://www.w3.org/2000/svg" xmlns:xlink="http://www.w3.org/1999/xlink">
    <title>ic_优惠券</title>
    <g id="储值卡优惠券" stroke="none" stroke-width="1" fill="none" fill-rule="evenodd">
        <g id="我的_2" transform="translate(-28.000000, -440.000000)">
            <g id="编组-6备份" transform="translate(12.000000, 427.000000)">
                <g id="ic_优惠券" transform="translate(16.000000, 13.000000)">
                    <rect id="矩形" x="0" y="0" width="24" height="24"></rect>
                    <g id="编组-8" transform="translate(4.400000, 6.036414)">
                        <path d="M11.2505188,6.00966239 C11.2505188,7.79234395 12.5936645,9.29902654 14.2505188,9.29902654 C14.3440399,9.29902654 14.4365616,9.2938253 14.5278986,9.28371203 C14.3229354,10.1688966 13.5286302,10.8292043 12.5801019,10.8292043 L4.94312985,10.8292043 C4.11470273,10.8292043 3.44312985,10.1576314 3.44312985,9.32920429 L3.44312985,6.24993906 C3.44312985,5.14536956 4.33856035,4.24993906 5.44312985,4.24993906 L11.7825455,4.24851921 C11.4470702,4.72850283 11.2505188,5.32771595 11.2505188,6.00966239 Z" id="形状结合" fill="#D2F5F4" opacity="0.400000006"></path>
                        <path d="M13.0278986,0.5 C13.304041,0.5 13.554041,0.611928813 13.7350054,0.792893219 C13.9159698,0.973857625 14.0278986,1.22385763 14.0278986,1.49989687 L14.0278986,1.49989687 L14.0274616,3.61847307 C13.612109,3.77222804 13.2486801,4.0330516 12.9709304,4.36767251 C12.611527,4.80066633 12.395332,5.35686474 12.395332,5.9635864 C12.395332,6.57030807 12.611527,7.12650647 12.9709304,7.5595003 C13.2486912,7.89413458 13.612138,8.15496561 14.0275114,8.30871817 L14.0275114,8.30871817 L14.0278986,9.45501497 C14.0278986,10.0072997 13.804041,10.5072997 13.4421121,10.8692285 C13.0801833,11.2311573 12.5801833,11.455015 12.0278986,11.455015 L12.0278986,11.455015 L2.5,11.455015 C1.94771525,11.455015 1.44771525,11.2311573 1.08578644,10.8692285 C0.723857625,10.5072997 0.5,10.0072997 0.499999967,9.45519601 L0.499999967,9.45519601 L0.500442758,8.23228537 C0.835190957,8.06094588 1.10588875,7.80275376 1.30703412,7.4812714 C1.56691786,7.06590993 1.70899373,6.53954728 1.70899373,5.9635864 C1.70899373,5.38762553 1.56691786,4.86126287 1.30703412,4.44590141 C1.10589814,4.12443405 0.835216227,3.86625102 0.500489632,3.69491142 L0.500489632,3.69491142 L0.5,1.5 C0.5,1.22385763 0.611928813,0.973857625 0.792893219,0.792893219 C0.973857625,0.611928813 1.22385763,0.5 1.5,0.5 L1.5,0.5 Z" id="形状结合" stroke="#666666"></path>
                        <rect id="矩形" fill="#6CDBD5" x="4.25581877" y="3.94528031" width="1" height="4" rx="0.3"></rect>
                    </g>
                </g>
            </g>
        </g>
    </g>
</svg>