<?xml version="1.0" encoding="UTF-8"?>
<svg width="24px" height="24px" viewBox="0 0 24 24" version="1.1" xmlns="http://www.w3.org/2000/svg" xmlns:xlink="http://www.w3.org/1999/xlink">
    <title>ic_储值卡</title>
    <g id="储值卡优惠券" stroke="none" stroke-width="1" fill="none" fill-rule="evenodd">
        <g id="我的" transform="translate(-28.000000, -390.000000)">
            <g id="编组-6" transform="translate(12.000000, 377.000000)">
                <g id="ic_储值卡" transform="translate(16.000000, 13.000000)">
                    <rect id="矩形" x="0" y="0" width="24" height="24"></rect>
                    <g id="编组-7" transform="translate(4.000000, 6.400000)">
                        <path d="M6.5982314,7.13999151 L13.6325666,7.13999151 C14.4609937,7.13999151 15.1325666,7.81156439 15.1325666,8.63999151 L15.1325666,9.29130139 C15.1325666,10.479437 14.1693924,11.4426113 12.9812567,11.4426113 L5.0982314,11.4426113 L5.0982314,11.4426113 L5.0982314,8.63999151 C5.0982314,7.81156439 5.76980428,7.13999151 6.5982314,7.13999151 Z" id="矩形" fill="#D2F5F4"></path>
                        <path d="M13.6325666,0.5 C13.908709,0.5 14.158709,0.611928813 14.3396734,0.792893219 C14.5206378,0.973857625 14.6325666,1.22385763 14.6325666,1.5 L14.6325666,1.5 L14.6325666,9.17346898 C14.6325666,9.72575373 14.408709,10.2257537 14.0467802,10.5876825 C13.6848514,10.9496114 13.1848514,11.173469 12.6325666,11.173469 L12.6325666,11.173469 L2.87083718,11.173469 C2.31855243,11.173469 1.81855243,10.9496114 1.45662362,10.5876825 C1.09469481,10.2257537 0.870837181,9.72575373 0.870837181,9.17346898 L0.870837181,9.17346898 L0.870837181,1.5 C0.870837181,1.22385763 0.982765994,0.973857625 1.1637304,0.792893219 C1.34469481,0.611928813 1.59469481,0.5 1.87083718,0.5 L1.87083718,0.5 Z" id="矩形" stroke="#666666"></path>
                        <polygon id="矩形" fill="#6CDBD5" points="1.37293422 2.7 14.138183 2.7 14.138183 3.7 1.37293422 3.7"></polygon>
                    </g>
                </g>
            </g>
        </g>
    </g>
</svg>