<?xml version="1.0" encoding="UTF-8"?>
<svg width="22px" height="22px" viewBox="0 0 22 22" version="1.1" xmlns="http://www.w3.org/2000/svg" xmlns:xlink="http://www.w3.org/1999/xlink">
    <title>图文ic</title>
    <g id="V2.0" stroke="none" stroke-width="1" fill="none" fill-rule="evenodd">
        <g id="我的收藏_5_案例_管理案例管理" transform="translate(-333.000000, -406.000000)">
            <g id="编组-9" transform="translate(191.000000, 398.000000)">
                <g id="图文ic" transform="translate(142.000000, 8.000000)">
                    <circle id="底板" fill="#000000" opacity="0.200000003" cx="11" cy="11" r="11"></circle>
                    <path d="M14.11,6 C15.1538182,6 16,6.84618182 16,7.89 L16,14.11 C16,15.1538182 15.1538182,16 14.11,16 L7.89,16 C6.84618182,16 6,15.1538182 6,14.11 L6,7.89 C6,6.84618182 6.84618182,6 7.89,6 L14.11,6 Z M13.1282343,11.099495 C12.7078242,10.7902307 12.1163062,10.8803322 11.8070419,11.3007423 L11.8070419,11.3007423 L10.3879218,13.2279084 L9.66572169,12.2042836 C9.60382447,12.1166543 9.52745717,12.0402049 9.4398943,11.9782136 C9.01392937,11.6766461 8.42414778,11.7774901 8.12258025,12.203455 L8.12258025,12.203455 L7.26773625,13.4109245 C7.15471256,13.5705707 7.09401399,13.7613559 7.09401399,13.9569608 C7.09401399,14.4788699 7.5171049,14.9019608 8.03901399,14.9019608 L8.03901399,14.9019608 L13.9223933,14.9019608 C14.1043079,14.9019608 14.2823563,14.8494542 14.4351616,14.7507452 C14.8735566,14.4675511 14.9993718,13.8825875 14.7161777,13.4441925 L14.7161777,13.4441925 L13.3620462,11.3479466 C13.2998277,11.25163 13.2205995,11.1674411 13.1282343,11.099495 Z M8.91776316,8.31372549 C8.4690318,8.31372549 8.10526316,8.70174537 8.10526316,9.18039216 C8.10526316,9.65903894 8.4690318,10.0470588 8.91776316,10.0470588 C9.36649452,10.0470588 9.73026316,9.65903894 9.73026316,9.18039216 C9.73026316,8.70174537 9.36649452,8.31372549 8.91776316,8.31372549 Z" id="发送图片icon" fill="#FFFFFF"></path>
                </g>
            </g>
        </g>
    </g>
</svg>