<?xml version="1.0" encoding="UTF-8"?>
<svg width="22px" height="22px" viewBox="0 0 22 22" version="1.1" xmlns="http://www.w3.org/2000/svg" xmlns:xlink="http://www.w3.org/1999/xlink">
    <title>全景ic</title>
    <g id="V2.0" stroke="none" stroke-width="1" fill="none" fill-rule="evenodd">
        <g id="我的收藏_5_案例_管理案例管理" transform="translate(-154.000000, -152.000000)">
            <g id="瀑布流1" transform="translate(12.000000, 144.000000)">
                <g id="3D_ic" transform="translate(142.000000, 8.000000)">
                    <circle id="底板" fill="#000000" opacity="0.200000003" cx="11" cy="11" r="11"></circle>
                    <g id="icon" transform="translate(4.000000, 7.500000)" fill="#FFFFFF">
                        <path d="M12.0257032,0 C12.8044247,0 13.4357032,0.631278503 13.4357032,1.41 L13.4357032,3.29 C13.4357032,4.0687215 12.8044247,4.7 12.0257032,4.7 L7.32570321,4.7 L7.32570321,3.76 L9.20570321,3.76 L9.20570321,1.88 L7.32570321,1.88 L7.32570321,0.94 C7.32570321,0.420852335 7.74655554,-4.59745633e-16 8.26570321,0 L12.0257032,0 Z M11.5557032,1.88 L9.20570321,1.88 L9.20570321,2.82 L11.5557032,2.82 L11.5557032,1.88 Z" id="形状结合" fill-rule="nonzero"></path>
                        <path d="M8.26570321,2.82 L9.20570321,2.82 L9.20570321,2.82 L9.20570321,7.52 C9.20570321,7.77957383 8.99527704,7.99 8.73570321,7.99 L7.79570321,7.99 C7.53612937,7.99 7.32570321,7.77957383 7.32570321,7.52 L7.32570321,3.76 C7.32570321,3.24085234 7.74655554,2.82 8.26570321,2.82 Z" id="矩形"></path>
                        <path d="M2.95823529,7.99 C2.7589634,7.99 2.58135153,7.86433693 2.51502984,7.67642546 L2.51502984,7.67642546 L0.0267945432,0.626425455 C0.00906065732,0.576179445 -3.05533376e-13,0.523283696 -3.05533376e-13,0.47 C-3.04645198e-13,0.210426168 0.210426168,-5.64289843e-16 0.47,0 L0.47,0 L1.35317112,0 C1.55244302,5.46661561e-16 1.73005488,0.125663071 1.79637657,0.313574545 L1.79637657,0.313574545 L3.565,5.326 L5.33502984,0.313574545 C5.40135153,0.125663071 5.5789634,5.46661561e-16 5.77823529,0 L6.66140641,0 C6.92098024,-5.64289843e-16 7.13140641,0.210426168 7.13140641,0.47 C7.13140641,0.523283696 7.12234575,0.576179445 7.10461187,0.626425455 L4.61637657,7.67642546 C4.55005488,7.86433693 4.37244302,7.99 4.17317112,7.99 Z" id="形状结合"></path>
                        <path d="M9.67570321,3.76 L11.5557032,3.76 L13.7117443,7.64087391 C13.7747744,7.75432809 13.7338976,7.89739686 13.6204434,7.96042696 C13.5855323,7.97982203 13.5462542,7.99 13.5063173,7.99 L12.3022528,7.99 C12.1315642,7.99 11.9742925,7.89746081 11.8913989,7.74825218 L9.67570321,3.76 L9.67570321,3.76 Z" id="矩形备份-2"></path>
                    </g>
                </g>
            </g>
        </g>
    </g>
</svg>