<svg width="32" height="32" viewBox="0 0 32 32" fill="none" xmlns="http://www.w3.org/2000/svg">
<rect x="8.5" y="5" width="15" height="1.5" rx="0.4" fill="#404748"/>
<rect x="5.75" y="8.75" width="20.5" height="17.5" rx="2.25" stroke="#404748" stroke-width="1.5"/>
<path fill-rule="evenodd" clip-rule="evenodd" d="M13.9675 14.0033C13.9441 14.0033 13.9251 14.0223 13.9251 14.0458V18.9468C13.9172 18.9974 13.9131 19.0493 13.9131 19.1021C13.9131 19.405 14.0478 19.6765 14.2606 19.8599C14.4372 20.0171 14.67 20.1126 14.9251 20.1126C14.9745 20.1126 15.023 20.109 15.0705 20.1021H21.1117C21.1396 20.1021 21.1621 20.0795 21.1621 20.0517V18.1525C21.1621 18.1247 21.1396 18.1021 21.1117 18.1021H15.9251V14.0458C15.9251 14.0223 15.9061 14.0033 15.8826 14.0033H13.9675Z" fill="#FA462A"/>
</svg>
