<svg width="375" height="238" viewBox="0 0 375 238" fill="none" xmlns="http://www.w3.org/2000/svg">
<rect width="375" height="238" fill="white"/>
<rect opacity="0.8" width="375" height="238" fill="url(#paint0_linear_947_45071)"/>
<g opacity="0.9" filter="url(#filter0_f_947_45071)">
<ellipse cx="147.993" cy="-15.8247" rx="47.4166" ry="89.377" transform="rotate(71.65 147.993 -15.8247)" fill="#F1EBFF"/>
</g>
<g filter="url(#filter1_f_947_45071)">
<ellipse cx="305.993" cy="-36.8247" rx="47.4166" ry="89.377" transform="rotate(28.1688 305.993 -36.8247)" fill="#F4FBFF"/>
</g>
<mask id="path-5-inside-1_947_45071" fill="white">
<path fill-rule="evenodd" clip-rule="evenodd" d="M310.097 117.951C307.049 117.631 304.318 119.88 303.991 122.991C303.666 126.084 305.87 128.855 308.917 129.175C311.965 129.495 314.705 127.244 315.03 124.152C315.357 121.04 313.145 118.272 310.097 117.951ZM286.572 126.985C285.681 126.579 285.332 125.477 285.911 124.687C285.955 124.627 285.997 124.57 286.035 124.518C294.765 112.726 309.591 98.5269 329.238 109.775C339.849 96.1491 368.142 94.0413 382.467 107.287C383.06 107.836 382.866 108.798 382.147 109.166C371.819 114.452 368.71 125.304 365.566 136.278C362.566 146.748 359.535 157.328 350.173 163.292C346.646 165.538 342.905 166.921 339.352 168.235C330.114 171.651 322.158 174.593 322.601 191C322.602 191.045 322.604 191.093 322.606 191.143C322.646 192.343 321.48 193.232 320.353 192.817C312.063 189.766 306.781 187.05 303.161 182.233C298.403 175.918 298.376 166.66 298.348 157.391C298.311 144.867 298.274 132.322 286.572 126.985ZM383.12 140.02C384.116 140.434 384.912 141.007 385.364 141.895C385.459 142.083 385.545 142.395 385.613 142.693C385.689 143.025 385.69 143.366 385.624 143.695C385.619 144.022 385.547 144.346 385.415 144.649C385.277 144.968 385.111 145.32 384.968 145.544C382.299 149.733 375.828 151.444 369.268 149.641C369.226 149.629 369.151 149.603 369.058 149.568C368.291 149.279 367.673 148.587 367.758 147.771C367.763 147.731 367.767 147.691 367.771 147.652C367.775 147.615 367.779 147.578 367.784 147.542C367.78 147.469 367.782 147.395 367.79 147.319C367.929 145.991 368.129 145.108 368.739 143.87C368.748 143.852 368.757 143.834 368.767 143.816C369.151 143.134 370.047 143.021 370.824 143.116C370.937 143.13 371.042 143.142 371.129 143.15C375.173 143.543 378.148 142.597 380.357 140.7C381.13 140.036 382.179 139.63 383.12 140.02ZM344.624 172.218C344.281 172.495 344.142 172.927 344.219 173.331C344.13 173.684 344.209 174.074 344.463 174.373C347.998 178.535 352.754 182.925 358.841 183.565L359.478 183.632C360.434 183.732 361.612 183.48 361.929 182.572C362.23 181.715 362.419 180.978 362.742 179.468C362.773 179.322 362.778 179.177 362.759 179.038L362.776 178.96C362.924 178.271 362.478 177.605 361.801 177.409C361.619 177.356 361.467 177.308 361.395 177.274C356.869 176.073 353.018 172.963 350.675 171.071L350.535 170.958C350.504 170.932 350.47 170.906 350.434 170.879C349.447 170.129 348.095 170.139 346.997 170.715C346.997 170.715 345.636 171.469 344.912 171.995C344.831 172.054 344.732 172.132 344.624 172.218Z"/>
</mask>
<path fill-rule="evenodd" clip-rule="evenodd" d="M310.097 117.951C307.049 117.631 304.318 119.88 303.991 122.991C303.666 126.084 305.87 128.855 308.917 129.175C311.965 129.495 314.705 127.244 315.03 124.152C315.357 121.04 313.145 118.272 310.097 117.951ZM286.572 126.985C285.681 126.579 285.332 125.477 285.911 124.687C285.955 124.627 285.997 124.57 286.035 124.518C294.765 112.726 309.591 98.5269 329.238 109.775C339.849 96.1491 368.142 94.0413 382.467 107.287C383.06 107.836 382.866 108.798 382.147 109.166C371.819 114.452 368.71 125.304 365.566 136.278C362.566 146.748 359.535 157.328 350.173 163.292C346.646 165.538 342.905 166.921 339.352 168.235C330.114 171.651 322.158 174.593 322.601 191C322.602 191.045 322.604 191.093 322.606 191.143C322.646 192.343 321.48 193.232 320.353 192.817C312.063 189.766 306.781 187.05 303.161 182.233C298.403 175.918 298.376 166.66 298.348 157.391C298.311 144.867 298.274 132.322 286.572 126.985ZM383.12 140.02C384.116 140.434 384.912 141.007 385.364 141.895C385.459 142.083 385.545 142.395 385.613 142.693C385.689 143.025 385.69 143.366 385.624 143.695C385.619 144.022 385.547 144.346 385.415 144.649C385.277 144.968 385.111 145.32 384.968 145.544C382.299 149.733 375.828 151.444 369.268 149.641C369.226 149.629 369.151 149.603 369.058 149.568C368.291 149.279 367.673 148.587 367.758 147.771C367.763 147.731 367.767 147.691 367.771 147.652C367.775 147.615 367.779 147.578 367.784 147.542C367.78 147.469 367.782 147.395 367.79 147.319C367.929 145.991 368.129 145.108 368.739 143.87C368.748 143.852 368.757 143.834 368.767 143.816C369.151 143.134 370.047 143.021 370.824 143.116C370.937 143.13 371.042 143.142 371.129 143.15C375.173 143.543 378.148 142.597 380.357 140.7C381.13 140.036 382.179 139.63 383.12 140.02ZM344.624 172.218C344.281 172.495 344.142 172.927 344.219 173.331C344.13 173.684 344.209 174.074 344.463 174.373C347.998 178.535 352.754 182.925 358.841 183.565L359.478 183.632C360.434 183.732 361.612 183.48 361.929 182.572C362.23 181.715 362.419 180.978 362.742 179.468C362.773 179.322 362.778 179.177 362.759 179.038L362.776 178.96C362.924 178.271 362.478 177.605 361.801 177.409C361.619 177.356 361.467 177.308 361.395 177.274C356.869 176.073 353.018 172.963 350.675 171.071L350.535 170.958C350.504 170.932 350.47 170.906 350.434 170.879C349.447 170.129 348.095 170.139 346.997 170.715C346.997 170.715 345.636 171.469 344.912 171.995C344.831 172.054 344.732 172.132 344.624 172.218Z" fill="url(#paint1_linear_947_45071)"/>
<path d="M285.911 124.687L285.427 124.332L285.427 124.332L285.911 124.687ZM286.572 126.985L286.821 126.439L286.821 126.439L286.572 126.985ZM286.035 124.518L285.553 124.161L285.553 124.161L286.035 124.518ZM329.238 109.775L328.94 110.296L329.391 110.555L329.711 110.144L329.238 109.775ZM382.467 107.287L382.06 107.728L382.06 107.728L382.467 107.287ZM382.147 109.166L382.42 109.7L382.147 109.166ZM365.566 136.278L364.989 136.113L365.566 136.278ZM350.173 163.292L350.495 163.798L350.496 163.798L350.173 163.292ZM339.352 168.235L339.144 167.672L339.352 168.235ZM322.601 191L323.201 190.984L323.201 190.984L322.601 191ZM322.606 191.143L322.006 191.164L322.006 191.164L322.606 191.143ZM320.353 192.817L320.146 193.38L320.353 192.817ZM303.161 182.233L303.64 181.873L303.64 181.872L303.161 182.233ZM298.348 157.391L298.948 157.389L298.348 157.391ZM385.364 141.895L385.898 141.623L385.898 141.623L385.364 141.895ZM383.12 140.02L383.35 139.466L383.12 140.02ZM385.613 142.693L386.198 142.56L386.198 142.56L385.613 142.693ZM385.624 143.695L385.036 143.578L385.025 143.631L385.024 143.686L385.624 143.695ZM385.415 144.649L385.966 144.888L385.966 144.888L385.415 144.649ZM384.968 145.544L385.474 145.867L385.474 145.867L384.968 145.544ZM369.268 149.641L369.427 149.062L369.427 149.062L369.268 149.641ZM369.058 149.568L368.847 150.129L368.847 150.129L369.058 149.568ZM367.771 147.652L367.175 147.586L367.175 147.586L367.771 147.652ZM367.784 147.542L368.38 147.611L368.385 147.561L368.383 147.512L367.784 147.542ZM368.739 143.87L368.201 143.605L368.201 143.605L368.739 143.87ZM368.767 143.816L368.244 143.522L368.244 143.522L368.767 143.816ZM370.824 143.116L370.752 143.712L370.824 143.116ZM371.129 143.15L371.187 142.553L371.187 142.553L371.129 143.15ZM380.357 140.7L380.747 141.156L380.357 140.7ZM344.219 173.331L344.801 173.477L344.833 173.349L344.808 173.219L344.219 173.331ZM344.624 172.218L345.001 172.686L345.001 172.686L344.624 172.218ZM344.463 174.373L344.005 174.762L344.463 174.373ZM361.929 182.572L361.363 182.374L361.929 182.572ZM362.742 179.468L363.329 179.593L363.329 179.593L362.742 179.468ZM362.759 179.038L362.173 178.912L362.151 179.013L362.164 179.116L362.759 179.038ZM362.776 178.96L363.363 179.086L363.363 179.086L362.776 178.96ZM361.801 177.409L361.968 176.832L361.968 176.832L361.801 177.409ZM361.395 177.274L361.644 176.728L361.597 176.707L361.548 176.694L361.395 177.274ZM350.675 171.071L351.052 170.604L351.052 170.604L350.675 171.071ZM350.535 170.958L350.912 170.491L350.912 170.491L350.535 170.958ZM350.434 170.879L350.797 170.401L350.797 170.401L350.434 170.879ZM346.997 170.715L346.719 170.183L346.707 170.19L346.997 170.715ZM344.912 171.995L345.266 172.48L345.266 172.48L344.912 171.995ZM304.587 123.054C304.881 120.262 307.326 118.263 310.034 118.548L310.16 117.355C306.772 116.999 303.755 119.498 303.394 122.929L304.587 123.054ZM308.98 128.578C306.271 128.293 304.296 125.827 304.587 123.054L303.394 122.929C303.035 126.342 305.468 129.416 308.855 129.772L308.98 128.578ZM314.433 124.089C314.142 126.86 311.69 128.863 308.98 128.578L308.855 129.772C312.24 130.127 315.268 127.629 315.627 124.214L314.433 124.089ZM310.034 118.548C312.744 118.833 314.727 121.298 314.433 124.089L315.627 124.214C315.987 120.782 313.546 117.71 310.16 117.355L310.034 118.548ZM285.427 124.332C284.598 125.463 285.125 126.985 286.323 127.531L286.821 126.439C286.236 126.173 286.065 125.491 286.395 125.042L285.427 124.332ZM285.553 124.161C285.514 124.214 285.471 124.272 285.427 124.332L286.395 125.042C286.438 124.982 286.48 124.926 286.518 124.875L285.553 124.161ZM329.536 109.255C319.528 103.525 310.697 104.268 303.275 107.97C295.894 111.651 289.936 118.24 285.553 124.161L286.518 124.875C290.864 119.004 296.685 112.598 303.811 109.044C310.896 105.51 319.301 104.777 328.94 110.296L329.536 109.255ZM382.875 106.847C375.561 100.084 364.73 97.2743 354.426 97.8552C344.13 98.4356 334.212 102.411 328.764 109.407L329.711 110.144C334.875 103.513 344.409 99.6218 354.494 99.0533C364.57 98.4852 375.049 101.245 382.06 107.728L382.875 106.847ZM382.42 109.7C383.457 109.169 383.817 107.718 382.875 106.847L382.06 107.728C382.304 107.953 382.275 108.426 381.874 108.632L382.42 109.7ZM366.143 136.443C369.303 125.412 372.363 114.848 382.42 109.7L381.874 108.632C371.276 114.056 368.117 125.196 364.989 136.113L366.143 136.443ZM350.496 163.798C360.081 157.691 363.157 146.865 366.143 136.443L364.989 136.113C361.976 146.631 358.988 156.965 349.851 162.786L350.496 163.798ZM339.56 168.798C343.105 167.487 346.906 166.084 350.495 163.798L349.851 162.786C346.386 164.992 342.704 166.356 339.144 167.672L339.56 168.798ZM323.201 190.984C322.982 182.88 324.838 178.222 327.779 175.162C330.755 172.066 334.912 170.517 339.56 168.798L339.144 167.672C334.555 169.369 330.115 171 326.914 174.33C323.678 177.697 321.777 182.713 322.001 191.016L323.201 190.984ZM323.205 191.123C323.204 191.074 323.202 191.027 323.201 190.984L322.001 191.016C322.003 191.063 322.004 191.112 322.006 191.164L323.205 191.123ZM320.146 193.38C321.695 193.95 323.26 192.724 323.205 191.123L322.006 191.164C322.033 191.962 321.264 192.513 320.56 192.254L320.146 193.38ZM302.681 182.594C306.414 187.56 311.844 190.325 320.146 193.38L320.56 192.254C312.281 189.207 307.148 186.539 303.64 181.873L302.681 182.594ZM297.748 157.392C297.762 162.018 297.775 166.693 298.387 171.004C298.999 175.319 300.218 179.324 302.682 182.594L303.64 181.872C301.346 178.827 300.172 175.046 299.575 170.836C298.977 166.622 298.962 162.033 298.948 157.389L297.748 157.392ZM286.323 127.531C291.978 130.11 294.815 134.414 296.256 139.652C297.707 144.928 297.73 151.109 297.748 157.392L298.948 157.389C298.93 151.148 298.915 144.795 297.413 139.334C295.9 133.833 292.868 129.197 286.821 126.439L286.323 127.531ZM385.898 141.623C385.358 140.561 384.419 139.91 383.35 139.466L382.89 140.575C383.814 140.958 384.466 141.454 384.829 142.167L385.898 141.623ZM386.198 142.56C386.131 142.265 386.031 141.885 385.898 141.623L384.829 142.167C384.886 142.28 384.96 142.526 385.028 142.827L386.198 142.56ZM386.212 143.813C386.294 143.404 386.293 142.977 386.198 142.56L385.028 142.827C385.084 143.072 385.086 143.327 385.036 143.578L386.212 143.813ZM385.966 144.888C386.128 144.515 386.217 144.113 386.224 143.705L385.024 143.686C385.02 143.93 384.966 144.177 384.865 144.41L385.966 144.888ZM385.474 145.867C385.645 145.598 385.827 145.208 385.966 144.888L384.865 144.41C384.727 144.729 384.577 145.041 384.462 145.222L385.474 145.867ZM369.109 150.219C375.808 152.06 382.609 150.363 385.474 145.867L384.462 145.222C381.99 149.102 375.848 150.827 369.427 149.062L369.109 150.219ZM368.847 150.129C368.937 150.163 369.036 150.199 369.109 150.219L369.427 149.062C369.427 149.062 369.424 149.061 369.415 149.058C369.406 149.055 369.394 149.052 369.38 149.046C369.351 149.036 369.314 149.023 369.27 149.006L368.847 150.129ZM367.162 147.709C367.037 148.893 367.928 149.783 368.847 150.129L369.27 149.006C368.653 148.774 368.308 148.281 368.355 147.834L367.162 147.709ZM367.175 147.586C367.17 147.627 367.166 147.667 367.162 147.709L368.355 147.834C368.359 147.795 368.363 147.756 368.368 147.718L367.175 147.586ZM367.188 147.473C367.183 147.51 367.179 147.548 367.175 147.586L368.368 147.718C368.372 147.682 368.376 147.646 368.38 147.611L367.188 147.473ZM367.193 147.257C367.182 147.363 367.179 147.468 367.184 147.572L368.383 147.512C368.381 147.47 368.382 147.426 368.386 147.382L367.193 147.257ZM368.201 143.605C367.553 144.921 367.338 145.877 367.193 147.257L368.386 147.382C368.521 146.105 368.706 145.294 369.277 144.135L368.201 143.605ZM368.244 143.522C368.229 143.549 368.215 143.576 368.201 143.605L369.277 144.135C369.281 144.127 369.285 144.119 369.29 144.11L368.244 143.522ZM370.897 142.521C370.461 142.467 369.958 142.467 369.489 142.596C369.013 142.727 368.536 143.003 368.244 143.522L369.29 144.11C369.383 143.946 369.546 143.825 369.808 143.753C370.077 143.679 370.411 143.67 370.752 143.712L370.897 142.521ZM371.187 142.553C371.107 142.545 371.008 142.534 370.897 142.521L370.752 143.712C370.867 143.726 370.977 143.738 371.071 143.748L371.187 142.553ZM379.966 140.245C377.903 142.016 375.1 142.933 371.187 142.553L371.071 143.748C375.246 144.153 378.393 143.178 380.747 141.156L379.966 140.245ZM383.35 139.466C382.106 138.95 380.818 139.514 379.966 140.245L380.747 141.156C381.442 140.559 382.251 140.309 382.89 140.575L383.35 139.466ZM344.808 173.219C344.771 173.02 344.84 172.816 345.001 172.686L344.248 171.751C343.723 172.174 343.513 172.834 343.63 173.444L344.808 173.219ZM344.92 173.985C344.796 173.839 344.758 173.649 344.801 173.477L343.637 173.185C343.503 173.719 343.622 174.31 344.005 174.762L344.92 173.985ZM358.903 182.968C353.064 182.354 348.44 178.129 344.92 173.985L344.005 174.762C347.555 178.94 352.444 183.496 358.778 184.162L358.903 182.968ZM359.541 183.035L358.903 182.968L358.778 184.162L359.415 184.229L359.541 183.035ZM361.363 182.374C361.282 182.605 361.084 182.791 360.739 182.916C360.39 183.042 359.952 183.078 359.541 183.035L359.415 184.229C359.961 184.286 360.589 184.246 361.147 184.044C361.709 183.841 362.259 183.448 362.496 182.771L361.363 182.374ZM362.155 179.342C361.833 180.845 361.651 181.552 361.363 182.374L362.496 182.771C362.809 181.877 363.004 181.112 363.329 179.593L362.155 179.342ZM362.164 179.116C362.174 179.188 362.172 179.264 362.155 179.342L363.329 179.593C363.374 179.379 363.381 179.166 363.354 178.959L362.164 179.116ZM362.189 178.835L362.173 178.912L363.346 179.163L363.363 179.086L362.189 178.835ZM361.634 177.985C362.042 178.103 362.264 178.486 362.189 178.835L363.363 179.086C363.583 178.056 362.914 177.107 361.968 176.832L361.634 177.985ZM361.145 177.82C361.266 177.875 361.461 177.935 361.634 177.985L361.968 176.832C361.88 176.807 361.804 176.784 361.743 176.764C361.713 176.754 361.689 176.746 361.67 176.739C361.65 176.731 361.643 176.728 361.644 176.728L361.145 177.82ZM350.298 171.537C352.629 173.42 356.574 176.616 361.241 177.854L361.548 176.694C357.165 175.531 353.408 172.506 351.052 170.604L350.298 171.537ZM350.158 171.424L350.298 171.538L351.052 170.604L350.912 170.491L350.158 171.424ZM350.071 171.357C350.103 171.381 350.132 171.404 350.158 171.424L350.912 170.491C350.875 170.461 350.837 170.431 350.797 170.401L350.071 171.357ZM347.276 171.246C348.212 170.755 349.307 170.776 350.071 171.357L350.797 170.401C349.588 169.483 347.978 169.523 346.719 170.183L347.276 171.246ZM345.266 172.48C345.602 172.235 346.102 171.928 346.531 171.674C346.743 171.549 346.933 171.44 347.07 171.362C347.138 171.324 347.193 171.293 347.231 171.271C347.25 171.261 347.264 171.253 347.274 171.247C347.279 171.245 347.282 171.243 347.285 171.241C347.286 171.241 347.287 171.24 347.287 171.24C347.288 171.24 347.288 171.24 347.288 171.24C347.288 171.239 347.288 171.239 347.288 171.239C347.288 171.239 347.288 171.239 347.288 171.239C347.288 171.239 347.288 171.239 346.997 170.715C346.707 170.19 346.707 170.19 346.707 170.19C346.707 170.19 346.707 170.19 346.707 170.19C346.706 170.19 346.706 170.19 346.706 170.19C346.706 170.19 346.706 170.19 346.705 170.19C346.705 170.191 346.704 170.191 346.702 170.192C346.699 170.194 346.695 170.196 346.69 170.199C346.679 170.205 346.664 170.213 346.644 170.225C346.605 170.247 346.548 170.279 346.477 170.319C346.336 170.399 346.14 170.512 345.921 170.641C345.489 170.896 344.946 171.229 344.559 171.51L345.266 172.48ZM345.001 172.686C345.105 172.602 345.196 172.531 345.266 172.48L344.559 171.51C344.467 171.578 344.358 171.663 344.248 171.751L345.001 172.686Z" fill="url(#paint2_linear_947_45071)" mask="url(#path-5-inside-1_947_45071)"/>
<rect x="182" y="211" width="193" height="27" fill="url(#paint3_linear_947_45071)"/>
<rect y="211" width="193" height="27" fill="url(#paint4_linear_947_45071)"/>
<defs>
<filter id="filter0_f_947_45071" x="-25.1572" y="-155.909" width="346.3" height="280.169" filterUnits="userSpaceOnUse" color-interpolation-filters="sRGB">
<feFlood flood-opacity="0" result="BackgroundImageFix"/>
<feBlend mode="normal" in="SourceGraphic" in2="BackgroundImageFix" result="shape"/>
<feGaussianBlur stdDeviation="43.5" result="effect1_foregroundBlur_947_45071"/>
</filter>
<filter id="filter1_f_947_45071" x="170.601" y="-194.755" width="270.785" height="315.86" filterUnits="userSpaceOnUse" color-interpolation-filters="sRGB">
<feFlood flood-opacity="0" result="BackgroundImageFix"/>
<feBlend mode="normal" in="SourceGraphic" in2="BackgroundImageFix" result="shape"/>
<feGaussianBlur stdDeviation="38" result="effect1_foregroundBlur_947_45071"/>
</filter>
<linearGradient id="paint0_linear_947_45071" x1="110.5" y1="75.5" x2="382.777" y2="247.043" gradientUnits="userSpaceOnUse">
<stop stop-color="#FFEDED"/>
<stop offset="0.623351" stop-color="#FFFCF9"/>
<stop offset="1" stop-color="#FDE4EB" stop-opacity="0.31"/>
</linearGradient>
<linearGradient id="paint1_linear_947_45071" x1="345" y1="94" x2="355.5" y2="152" gradientUnits="userSpaceOnUse">
<stop stop-color="#FFFDF9"/>
<stop offset="1" stop-color="#FEF6F5"/>
</linearGradient>
<linearGradient id="paint2_linear_947_45071" x1="324.953" y1="123.95" x2="341.431" y2="171.64" gradientUnits="userSpaceOnUse">
<stop offset="0.0346139" stop-color="#FAF0ED"/>
<stop offset="1" stop-color="#FEF7F8"/>
</linearGradient>
<linearGradient id="paint3_linear_947_45071" x1="278.5" y1="211" x2="278.5" y2="238" gradientUnits="userSpaceOnUse">
<stop stop-color="#FEF8F9"/>
<stop offset="1" stop-color="#F6F6F6"/>
</linearGradient>
<linearGradient id="paint4_linear_947_45071" x1="96.5" y1="211" x2="96.5" y2="238" gradientUnits="userSpaceOnUse">
<stop stop-color="#FFF4F4"/>
<stop offset="1" stop-color="#F6F6F6"/>
</linearGradient>
</defs>
</svg>
