<svg width="32" height="32" viewBox="0 0 32 32" fill="none" xmlns="http://www.w3.org/2000/svg">
<path d="M6.99933 9.36802L8.73878 7.27258C9.22114 6.73518 9.52163 6.56165 9.88573 6.56165H22.8789C23.233 6.56165 23.4623 6.70446 24.0379 7.287L25.7727 9.3675C26.2598 9.95168 26.5266 10.6882 26.5266 11.4488V24.1945C26.5266 25.4372 25.5192 26.4445 24.2766 26.4445H8.5C7.25736 26.4445 6.25 25.4372 6.25 24.1945V11.4439C6.25 10.6857 6.51507 9.95139 6.99933 9.36802Z" stroke="#404748" stroke-width="1.5"/>
<path fill-rule="evenodd" clip-rule="evenodd" d="M20.2477 15.4983C20.2267 15.4773 20.1928 15.4773 20.1719 15.4983L16.1063 19.5638L14.4192 17.8767C14.4072 17.8647 14.3878 17.8647 14.3759 17.8767L13.005 19.2476C12.993 19.2596 12.993 19.2789 13.005 19.2909L15.3924 21.6783C15.7684 22.0543 16.3693 22.0683 16.762 21.7203C16.8025 21.6905 16.8412 21.6574 16.8778 21.6208L21.5861 16.9125C21.607 16.8916 21.607 16.8576 21.5861 16.8367L20.2477 15.4983Z" fill="#FA462A"/>
<path fill-rule="evenodd" clip-rule="evenodd" d="M5.95898 10H26.9124V11.5H5.95898V10Z" fill="#404748"/>
<rect x="15.875" y="5.80176" width="1.5" height="4.18832" fill="#404748"/>
</svg>
