<?xml version="1.0" encoding="UTF-8"?>
<svg width="32px" height="32px" viewBox="0 0 32 32" version="1.1" xmlns="http://www.w3.org/2000/svg" xmlns:xlink="http://www.w3.org/1999/xlink">
    <title>ic/已完成</title>
    <defs>
        <linearGradient x1="0%" y1="1.79163992%" x2="100%" y2="98.2083601%" id="linearGradient-1">
            <stop stop-color="#54D1CD" offset="0%"></stop>
            <stop stop-color="#00BFB5" offset="100%"></stop>
        </linearGradient>
    </defs>
    <g id="V2.0" stroke="none" stroke-width="1" fill="none" fill-rule="evenodd">
        <g id="我的" transform="translate(-172.000000, -240.000000)">
            <g id="-mockplus-" transform="translate(172.000000, 240.000000)">
                <g id="编组-4" transform="translate(5.500000, 5.000000)">
                    <path d="M2.67073902,1.78268371 C3.19050318,1.20147613 3.68319917,0.811675217 4.38572487,0.811675217 L17.3788992,0.811675217 C18.0814249,0.811675217 18.5112799,1.19087771 19.093885,1.78268371 L20.8487158,3.88722432 C21.4482352,4.6062183 21.7765825,5.51271434 21.7765825,6.44886377 L21.7765825,19.1945406 L21.7765825,19.1945406 C21.7765825,20.8513948 20.4334367,22.1945406 18.7765825,22.1945406 L3,22.1945406 C1.34314575,22.1945406 0,20.8513948 0,19.1945406 L0,6.44389634 C-1.41684731e-15,5.51076554 0.326236838,4.60699751 0.922247375,3.88901106 L2.67073902,1.78268371 L2.67073902,1.78268371 Z" id="路径" fill="url(#linearGradient-1)"></path>
                    <path d="M12.8873709,8.67868938 C13.246356,8.67868938 13.5373709,8.96970429 13.5373709,9.32868938 L13.5373709,15.7408004 C13.5373709,15.8727002 13.4980837,15.995424 13.4305729,16.0979083 C13.3206107,16.2963095 13.1086577,16.4297975 12.8655269,16.4297975 L9.75860634,16.4297975 C9.39962125,16.4297975 9.10860634,16.1387826 9.10860634,15.7797975 C9.10860634,15.4208124 9.39962125,15.1297975 9.75860634,15.1297975 L12.2366063,15.1296894 L12.2373709,9.32868938 C12.2373709,8.96970429 12.5283858,8.67868938 12.8873709,8.67868938 Z" id="形状结合" fill="#FFFFFF" fill-rule="nonzero" transform="translate(11.322989, 12.554243) rotate(-315.000000) translate(-11.322989, -12.554243) "></path>
                    <rect id="矩形" fill="#FFFFFF" x="0" y="5" width="22" height="1.3"></rect>
                    <rect id="矩形" fill="#FFFFFF" x="10.3750015" y="0.801770663" width="1.3" height="4.18832478"></rect>
                </g>
            </g>
        </g>
    </g>
</svg>