<svg width="24" height="25" viewBox="0 0 24 25" fill="none" xmlns="http://www.w3.org/2000/svg">
<g opacity="0.9" filter="url(#filter0_d_947_45159)">
<rect x="4" y="4" width="16" height="16" rx="8" fill="url(#paint0_linear_947_45159)"/>
<rect x="4.5" y="4.5" width="15" height="15" rx="7.5" stroke="white"/>
</g>
<path fill-rule="evenodd" clip-rule="evenodd" d="M15.1966 9.95713C15.3528 9.80091 15.606 9.80091 15.7623 9.95712L16.1157 10.3106C16.2719 10.4668 16.272 10.7201 16.1157 10.8763L13.5497 13.4424C13.5312 13.4609 13.5123 13.4788 13.493 13.4959L12.5413 14.4476C11.7993 15.1896 10.5963 15.1896 9.8543 14.4476L8.69025 13.2835C8.68043 13.2737 8.67101 13.2636 8.662 13.2533L8.11716 12.7085C7.96095 12.5523 7.96095 12.299 8.11716 12.1428L8.47069 11.7893C8.6269 11.6331 8.88016 11.6331 9.03637 11.7893L9.18111 11.934L9.18258 11.9325L10.5635 13.3134C10.9149 13.6649 11.4848 13.6649 11.8362 13.3134L14.5181 10.6316C14.5186 10.6325 14.519 10.6333 14.5195 10.6342L15.1966 9.95713Z" fill="white"/>
<defs>
<filter id="filter0_d_947_45159" x="0" y="1" width="24" height="24" filterUnits="userSpaceOnUse" color-interpolation-filters="sRGB">
<feFlood flood-opacity="0" result="BackgroundImageFix"/>
<feColorMatrix in="SourceAlpha" type="matrix" values="0 0 0 0 0 0 0 0 0 0 0 0 0 0 0 0 0 0 127 0" result="hardAlpha"/>
<feOffset dy="1"/>
<feGaussianBlur stdDeviation="2"/>
<feColorMatrix type="matrix" values="0 0 0 0 0 0 0 0 0 0 0 0 0 0 0 0 0 0 0.05 0"/>
<feBlend mode="normal" in2="BackgroundImageFix" result="effect1_dropShadow_947_45159"/>
<feBlend mode="normal" in="SourceGraphic" in2="effect1_dropShadow_947_45159" result="shape"/>
</filter>
<linearGradient id="paint0_linear_947_45159" x1="-2.72523" y1="12.5679" x2="12.6703" y2="27.7106" gradientUnits="userSpaceOnUse">
<stop stop-color="#6D6D6D"/>
<stop offset="1" stop-color="#333333"/>
</linearGradient>
</defs>
</svg>
