<?xml version="1.0" encoding="UTF-8"?>
<svg width="32px" height="32px" viewBox="0 0 32 32" version="1.1" xmlns="http://www.w3.org/2000/svg" xmlns:xlink="http://www.w3.org/1999/xlink">
    <title>ic/退款</title>
    <defs>
        <linearGradient x1="0%" y1="0%" x2="100%" y2="100%" id="linearGradient-1">
            <stop stop-color="#54D1CD" offset="0%"></stop>
            <stop stop-color="#00BFB5" offset="100%"></stop>
        </linearGradient>
    </defs>
    <g id="V2.0" stroke="none" stroke-width="1" fill="none" fill-rule="evenodd">
        <g id="我的" transform="translate(-312.000000, -240.000000)">
            <g id="-mockplus-" transform="translate(312.000000, 240.000000)">
                <g id="编组-14" transform="translate(3.000000, 5.000000)">
                    <g transform="translate(0.500000, 0.000000)">
                        <g id="编组-9">
                            <circle id="椭圆形" fill="url(#linearGradient-1)" cx="11" cy="11" r="11"></circle>
                            <g id="编组-8" transform="translate(6.769905, 4.757610)" fill="#FFFFFF">
                                <rect id="矩形" x="0.301428449" y="5.24331641" width="8" height="1.3"></rect>
                                <rect id="矩形备份-15" x="0.301428449" y="8.06272803" width="8" height="1.3"></rect>
                                <rect id="矩形备份-15" transform="translate(4.363464, 8.312728) rotate(-270.000000) translate(-4.363464, -8.312728) " x="1.36346352" y="7.66272803" width="6" height="1.3"></rect>
                                <rect id="矩形备份-16" transform="translate(3.000000, 3.650000) rotate(-300.000000) translate(-3.000000, -3.650000) " x="0" y="3" width="6" height="1.3"></rect>
                                <rect id="矩形备份-17" transform="translate(5.500000, 3.650000) scale(-1, 1) rotate(-300.000000) translate(-5.500000, -3.650000) " x="2.5" y="3" width="6" height="1.3"></rect>
                            </g>
                        </g>
                        <path d="M24.3076939,14.6504476 L24.4014638,14.999876 L24.4202288,15.0000464 L24.4094638,15.031876 L25.1100329,17.6448177 C25.1815038,17.9115507 25.0232126,18.1857192 24.7564795,18.2571901 L24.2735166,18.3865996 C24.0067836,18.4580706 23.7326151,18.2997793 23.6611442,18.0330463 L23.4791339,17.3525375 C21.5559446,21.1229873 17.9741896,23.9062573 13.6954638,24.7407528 L13.6951608,24.7109769 C13.2931206,24.6971282 12.9714481,24.3668439 12.9714481,23.961429 C12.9714481,23.5472154 13.3072345,23.211429 13.7214481,23.211429 L13.6954481,23.212876 L13.6958783,23.2085482 C17.9912433,22.2643453 21.458561,19.111054 22.846203,15.0003024 L22.8554638,14.999876 L22.8560109,14.9218897 C22.8728855,14.7441664 22.9977209,14.5873433 23.1802849,14.5384255 L23.8177959,14.3676049 C24.0311824,14.3104282 24.2505172,14.4370612 24.3076939,14.6504476 Z" id="形状结合" fill="#0EC1B8" fill-rule="nonzero"></path>
                    </g>
                </g>
            </g>
        </g>
    </g>
</svg>