<svg width="32" height="32" viewBox="0 0 32 32" fill="none" xmlns="http://www.w3.org/2000/svg">
<rect opacity="0.01" width="32" height="32" fill="#DCDCDC"/>
<circle cx="14.5" cy="16" r="10.25" stroke="#404748" stroke-width="1.5"/>
<path fill-rule="evenodd" clip-rule="evenodd" d="M15.9641 11.5245C16.0745 11.3332 16.3192 11.2677 16.5105 11.3781L17.1167 11.7281C17.308 11.8386 17.3736 12.0832 17.2631 12.2745L15.5741 15.2H17.5999C17.8208 15.2 17.9999 15.3791 17.9999 15.6V16.2384C17.9999 16.4593 17.8208 16.6384 17.5999 16.6384H15.3152V17.6075H17.5999C17.8208 17.6075 17.9999 17.7865 17.9999 18.0075V18.7622C17.9999 18.9831 17.8208 19.1622 17.5999 19.1622H15.3152V20.8205C15.3152 21.0414 15.1361 21.2205 14.9152 21.2205H14.157C13.9361 21.2205 13.757 21.0414 13.757 20.8205V19.1622H11.4176C11.1967 19.1622 11.0176 18.9831 11.0176 18.7622V18.0075C11.0176 17.7865 11.1967 17.6075 11.4176 17.6075H13.757V16.6384H11.4176C11.1967 16.6384 11.0176 16.4593 11.0176 16.2384V15.6C11.0176 15.3791 11.1967 15.2 11.4176 15.2H13.4858L11.8099 12.2973C11.6994 12.106 11.765 11.8614 11.9563 11.7509L12.5625 11.4009C12.7538 11.2905 12.9985 11.356 13.1089 11.5473L14.5299 14.0086L15.9641 11.5245Z" fill="#FA462A"/>
<path fill-rule="evenodd" clip-rule="evenodd" d="M26.9789 22.353C25.2625 25.7178 22.225 28.2964 18.5501 29.4052C18.4136 29.5909 18.1936 29.7114 17.9455 29.7114C17.8366 29.7114 17.7332 29.6882 17.6399 29.6465C17.4922 29.6804 17.3437 29.7119 17.1943 29.741V28.2089C21.4905 27.2651 24.9586 24.1114 26.3463 20H26.3556C26.338 19.7918 26.4714 19.5944 26.6803 19.5384L27.3178 19.3676C27.5312 19.3104 27.7505 19.4371 27.8077 19.6505L27.9014 20H27.9203C27.917 20.0111 27.9136 20.0222 27.9103 20.0333L28.6101 22.6448C28.6815 22.9116 28.5232 23.1857 28.2565 23.2572L27.7735 23.3866C27.5068 23.4581 27.2326 23.2998 27.1612 23.0331L26.9789 22.353Z" fill="#404748"/>
</svg>
