<?xml version="1.0" encoding="UTF-8"?>
<svg width="36px" height="36px" viewBox="0 0 36 36" version="1.1" xmlns="http://www.w3.org/2000/svg" xmlns:xlink="http://www.w3.org/1999/xlink">
    <title>设置_ic</title>
    <g id="V2.0" stroke="none" stroke-width="1" fill="none" fill-rule="evenodd">
        <g id="我的" transform="translate(-330.000000, -82.000000)" stroke="#FFFFFF" stroke-width="1.3">
            <g id="ic/设置" transform="translate(330.000000, 82.000000)">
                <path d="M17.075,8.78460435 C17.647392,8.45413368 18.352608,8.45413368 18.925,8.78460435 L18.925,8.78460435 L25.5182667,12.5912287 C26.0906587,12.9216993 26.4432667,13.5324343 26.4432667,14.1933757 L26.4432667,14.1933757 L26.4432667,21.8066243 C26.4432667,22.4675657 26.0906587,23.0783007 25.5182667,23.4087713 L25.5182667,23.4087713 L18.925,27.2153957 C18.352608,27.5458663 17.647392,27.5458663 17.075,27.2153957 L17.075,27.2153957 L10.4817333,23.4087713 C10.1955373,23.243536 9.96428726,23.0082346 9.80458626,22.7316243 C9.64488526,22.4550141 9.55673326,22.137095 9.55673326,21.8066243 L9.55673326,21.8066243 L9.55673326,14.1933757 C9.55673326,13.5324343 9.90934127,12.9216993 10.4817333,12.5912287 L10.4817333,12.5912287 Z" id="多边形"></path>
                <circle id="椭圆形" cx="18" cy="18" r="2.35"></circle>
            </g>
        </g>
    </g>
</svg>