<svg width="24" height="24" viewBox="0 0 24 24" fill="none" xmlns="http://www.w3.org/2000/svg">
<g clip-path="url(#clip0_625_39327)">
<rect width="24" height="24" fill="white"/>
<path fill-rule="evenodd" clip-rule="evenodd" d="M10 18C10 19.1046 9.10457 20 8 20C6.89543 20 6 19.1046 6 18C6 16.8954 6.89543 16 8 16C9.10457 16 10 16.8954 10 18ZM9 18C9 18.5523 8.55228 19 8 19C7.44772 19 7 18.5523 7 18C7 17.4477 7.44772 17 8 17C8.55228 17 9 17.4477 9 18ZM18 18C18 19.1046 17.1046 20 16 20C14.8954 20 14 19.1046 14 18C14 16.8954 14.8954 16 16 16C17.1046 16 18 16.8954 18 18ZM17 18C17 18.5523 16.5523 19 16 19C15.4477 19 15 18.5523 15 18C15 17.4477 15.4477 17 16 17C16.5523 17 17 17.4477 17 18Z" fill="#C6C8C8"/>
<path d="M9 9C9 8.44772 9.44772 8 10 8H17C17.5523 8 18 8.44772 18 9V11C18 11.5523 17.5523 12 17 12H9V9Z" fill="#F8F8F8"/>
<path fill-rule="evenodd" clip-rule="evenodd" d="M4.4 4H5.05405C6.12877 4 7 4.87123 7 5.94595V5.99994H17.8513C18.2095 5.99994 18.4999 6.29035 18.4999 6.64859V11.054C18.4999 12.1287 17.6287 12.9999 16.554 12.9999H7V14.8C7 15.4627 7.53726 16 8.2 16H17.6108C17.8258 16 18 16.1742 18 16.3892V16.6108C18 16.8258 17.8258 17 17.6108 17H8.2C6.98497 17 6 16.015 6 14.8V12.9999H5.99994V6.64859C5.99994 6.64571 5.99996 6.64283 6 6.63995V6.03784C6 5.46466 5.53534 5 4.96216 5H4.4C4.17909 5 4 4.82091 4 4.6V4.4C4 4.17909 4.17909 4 4.4 4ZM7 12H16.3324C16.9773 12 17.5 11.4773 17.5 10.8324V7.12972C17.5 7.05807 17.4419 6.99999 17.3703 6.99999H7V12Z" fill="#666666"/>
</g>
<defs>
<clipPath id="clip0_625_39327">
<rect width="24" height="24" fill="white"/>
</clipPath>
</defs>
</svg>
