<svg width="32" height="32" viewBox="0 0 32 32" fill="none" xmlns="http://www.w3.org/2000/svg">
<path d="M5.75 9.36988C5.75 8.12723 6.75736 7.11987 8 7.11987H25C26.2426 7.11987 27.25 8.12723 27.25 9.36987V24C27.25 25.2427 26.2426 26.25 25 26.25H8C6.75736 26.25 5.75 25.2427 5.75 24V9.36988Z" stroke="#404748" stroke-width="1.5"/>
<mask id="mask0_625_39269" style="mask-type:alpha" maskUnits="userSpaceOnUse" x="5" y="6" width="23" height="21">
<path d="M5.75 9.36988C5.75 8.12723 6.75736 7.11987 8 7.11987H25C26.2426 7.11987 27.25 8.12723 27.25 9.36987V24C27.25 25.2427 26.2426 26.25 25 26.25H8C6.75736 26.25 5.75 25.2427 5.75 24V9.36988Z" fill="white" stroke="white" stroke-width="1.5"/>
</mask>
<g mask="url(#mask0_625_39269)">
<path d="M29 13V20H21.6318C20.5758 20 19.6699 19.6459 19.0371 19.0582C18.4134 18.4789 18 17.6231 18 16.4948C18 15.3667 18.4131 14.5142 19.0359 13.9377C19.6681 13.3525 20.5742 13 21.6318 13H29Z" stroke="#FA462A" stroke-width="2"/>
<path fill-rule="evenodd" clip-rule="evenodd" d="M26.4951 12H27.9996V21H26.4951V12Z" fill="#FA462A"/>
</g>
<circle cx="22.8018" cy="16.4591" r="1" fill="#FA462A"/>
</svg>
