<?xml version="1.0" encoding="UTF-8"?>
<svg width="19px" height="18px" viewBox="0 0 19 18" version="1.1" xmlns="http://www.w3.org/2000/svg" xmlns:xlink="http://www.w3.org/1999/xlink">
    <title>选中</title>
    <defs>
        <linearGradient x1="0%" y1="0%" x2="100%" y2="100%" id="linearGradient-1">
            <stop stop-color="#36D9CD" offset="0%"></stop>
            <stop stop-color="#28C6C6" offset="100%"></stop>
        </linearGradient>
    </defs>
    <g id="V2.0" stroke="none" stroke-width="1" fill="none" fill-rule="evenodd">
        <g id="选择房屋" transform="translate(-16.000000, -130.000000)">
            <g id="编组-2" transform="translate(0.000000, 88.000000)">
                <g id="选中" transform="translate(16.000000, 42.000000)">
                    <circle id="未选中" fill="url(#linearGradient-1)" cx="9" cy="9" r="9"></circle>
                    <path d="M13.6566107,6.45677361 L13.8544433,6.64445148 C14.0948465,6.87251488 14.1048499,7.25228214 13.8767865,7.49268539 C13.8695362,7.500328 13.8620859,7.50777834 13.8544433,7.51502866 L8.96519066,12.153317 L8.96519066,12.153317 C8.85616697,12.2567445 8.72464103,12.3225621 8.58697812,12.3507696 L8.48283596,12.3648733 L8.48283596,12.3648733 L8.37792668,12.3648733 C8.20329097,12.3531202 8.0318516,12.2826014 7.89557198,12.153317 L5.14555673,9.54445944 C4.90515348,9.31639603 4.89515006,8.93662877 5.12321346,8.69622552 C5.13046378,8.68858291 5.13791412,8.68113257 5.14555673,8.67388225 L5.3433893,8.48620439 C5.57488725,8.26658918 5.937782,8.26658918 6.16927995,8.48620439 L8.42950075,10.6310622 L12.8307201,6.45677361 C13.062218,6.2371584 13.4251128,6.2371584 13.6566107,6.45677361 Z" id="形状结合" fill="#FFFFFF"></path>
                </g>
            </g>
        </g>
    </g>
</svg>