<?xml version="1.0" encoding="UTF-8"?>
<svg width="14px" height="14px" viewBox="0 0 14 14" version="1.1" xmlns="http://www.w3.org/2000/svg" xmlns:xlink="http://www.w3.org/1999/xlink">
    <title>添加房屋</title>
    <g id="页面-1" stroke="none" stroke-width="1" fill="none" fill-rule="evenodd">
        <g id="02装修-弹窗" transform="translate(-127.000000, -516.000000)" fill="#000000" fill-rule="nonzero">
            <g id="添加房屋" transform="translate(127.000000, 516.000000)">
                <path d="M13.2999577,14 L5.78011998,14 C5.45815488,14 5.29692092,13.6005533 5.52452561,13.3667686 L6.18387528,12.6900144 C6.26309965,12.6087338 6.37052752,12.5630585 6.48254359,12.5630585 L13.2855438,12.5630585 C13.678405,12.5630585 14.007577,12.8930063 13.9998673,13.2960655 C13.9921124,13.6871246 13.6810386,14 13.2999577,14 M12.2395344,4.48553075 L9.27011443,1.43669626 L10.2598093,0.420704802 C10.8065012,-0.140234934 11.6926749,-0.140234934 12.2393668,0.420704802 L13.2298997,1.43669626 C13.7764134,1.99781891 13.7764134,2.90738449 13.2298997,3.46850714 L12.2395344,4.48553075 Z M2.62382284,14 L0.836003087,14 C0.374291331,14 0,13.6158287 0,13.1419293 L0,11.3069173 C0,11.0793198 0.0881919408,10.861066 0.245035388,10.7001781 L8.77384234,1.94675631 C8.77455042,1.94607892 8.77564831,1.94607892 8.77635639,1.94675631 L11.7446031,4.99387054 L3.21495814,13.7486686 C3.05818048,13.909589 2.84554299,14 2.62382284,14 L2.62382284,14 Z" id="形状"></path>
            </g>
        </g>
    </g>
</svg>