<?xml version="1.0" encoding="UTF-8"?>
<svg width="9px" height="9px" viewBox="0 0 9 9" version="1.1" xmlns="http://www.w3.org/2000/svg" xmlns:xlink="http://www.w3.org/1999/xlink">
    <title>ic/添加房屋信息</title>
    <g id="页面-1" stroke="none" stroke-width="1" fill="none" fill-rule="evenodd">
        <g id="03装修-未添加房屋信息-进行装修服务" transform="translate(-138.000000, -126.000000)" fill="#FFFFFF">
            <g id="ic/添加房屋信息" transform="translate(138.000000, 126.000000)">
                <path d="M0.75,3.75 L8.25,3.75 C8.66421356,3.75 9,4.08578644 9,4.5 C9,4.91421356 8.66421356,5.25 8.25,5.25 L0.75,5.25 C0.335786438,5.25 5.07265313e-17,4.91421356 0,4.5 C-5.07265313e-17,4.08578644 0.335786438,3.75 0.75,3.75 Z" id="矩形"></path>
                <path d="M4.5,0 C4.91421356,-7.6089797e-17 5.25,0.335786438 5.25,0.75 L5.25,8.25 C5.25,8.66421356 4.91421356,9 4.5,9 C4.08578644,9 3.75,8.66421356 3.75,8.25 L3.75,0.75 C3.75,0.335786438 4.08578644,7.6089797e-17 4.5,0 Z" id="矩形备份"></path>
            </g>
        </g>
    </g>
</svg>