<?xml version="1.0" encoding="UTF-8"?>
<svg width="25px" height="25px" viewBox="0 0 25 25" version="1.1" xmlns="http://www.w3.org/2000/svg" xmlns:xlink="http://www.w3.org/1999/xlink">
    <title>ic/取消</title>
    <g id="量房服务" stroke="none" stroke-width="1" fill="none" fill-rule="evenodd">
        <g id="05待办提示" transform="translate(-175.000000, -729.000000)" fill="#FFFFFF">
            <g id="ic/取消" transform="translate(175.000000, 729.000000)">
                <g id="ic_cancel_black" transform="translate(-0.000000, -0.000000)">
                    <path d="M12.5,3.66116524 C13.0423948,3.66116524 13.4820928,4.10086314 13.4820928,4.64325799 L13.4811652,11.5171652 L20.356742,11.5179072 C20.8991369,11.5179072 21.3388348,11.9576052 21.3388348,12.5 C21.3388348,13.0423948 20.8991369,13.4820928 20.356742,13.4820928 L13.4811652,13.4811652 L13.4820928,20.356742 C13.4820928,20.8991369 13.0423948,21.3388348 12.5,21.3388348 C11.9576052,21.3388348 11.5179072,20.8991369 11.5179072,20.356742 L11.5171652,13.4811652 L4.64325799,13.4820928 C4.10086314,13.4820928 3.66116524,13.0423948 3.66116524,12.5 C3.66116524,11.9576052 4.10086314,11.5179072 4.64325799,11.5179072 L11.5171652,11.5171652 L11.5179072,4.64325799 C11.5179072,4.10086314 11.9576052,3.66116524 12.5,3.66116524 Z" id="Combined-Shape" transform="translate(12.500000, 12.500000) rotate(-45.000000) translate(-12.500000, -12.500000) "></path>
                </g>
            </g>
        </g>
    </g>
</svg>