<?xml version="1.0" encoding="UTF-8"?>
<svg width="16px" height="16px" viewBox="0 0 16 16" version="1.1" xmlns="http://www.w3.org/2000/svg" xmlns:xlink="http://www.w3.org/1999/xlink">
    <title>-mockplus-</title>
    <g id="V2.0" stroke="none" stroke-width="1" fill="none" fill-rule="evenodd">
        <g id="新建房屋" transform="translate(-343.000000, -233.000000)" fill="#C3C3C3">
            <g id="-mockplus-" transform="translate(0.000000, 212.000000)">
                <g id="-mockplus-" transform="translate(343.000000, 21.000000)">
                    <g id="ic_more备份-2" transform="translate(3.000000, 1.000000)">
                        <g id="编组" transform="translate(6.500000, 7.003961) rotate(-45.000000) translate(-6.500000, -7.003961) translate(2.000000, 2.503961)">
                            <path d="M6.96396103,0 L7.88528137,0 C8.21665222,-6.08718376e-17 8.48528137,0.26862915 8.48528137,0.6 L8.48528137,7.4246212 C8.48528137,8.01040764 8.01040764,8.48528137 7.4246212,8.48528137 C6.83883476,8.48528137 6.36396103,8.01040764 6.36396103,7.4246212 L6.36396103,0.6 C6.36396103,0.26862915 6.63259018,1.7189414e-16 6.96396103,0 Z" id="矩形"></path>
                            <path d="M0.6,6.36396103 L7.4246212,6.36396103 C8.01040764,6.36396103 8.48528137,6.83883476 8.48528137,7.4246212 C8.48528137,8.01040764 8.01040764,8.48528137 7.4246212,8.48528137 L0.6,8.48528137 C0.26862915,8.48528137 1.51603528e-16,8.21665222 0,7.88528137 L0,6.96396103 C-4.05812251e-17,6.63259018 0.26862915,6.36396103 0.6,6.36396103 Z" id="矩形"></path>
                        </g>
                    </g>
                </g>
            </g>
        </g>
    </g>
</svg>