<?xml version="1.0" encoding="UTF-8"?>
<svg width="66px" height="57px" viewBox="0 0 66 57" version="1.1" xmlns="http://www.w3.org/2000/svg" xmlns:xlink="http://www.w3.org/1999/xlink">
    <title>已过期</title>
    <defs>
        <rect id="path-1" x="0" y="0" width="66" height="57"></rect>
    </defs>
    <g id="储值卡优惠券" stroke="none" stroke-width="1" fill="none" fill-rule="evenodd">
        <g id="历史优惠券_已使用" transform="translate(-224.000000, -549.000000)">
            <g id="已过期" transform="translate(224.000000, 549.000000)">
                <mask id="mask-2" fill="white">
                    <use xlink:href="#path-1"></use>
                </mask>
                <use id="蒙版" fill-opacity="0" fill="#FFFFFF" xlink:href="#path-1"></use>
                <g id="编组-2备份-6" mask="url(#mask-2)">
                    <g transform="translate(25.000000, 32.000000) rotate(-30.000000) translate(-25.000000, -32.000000) translate(0.000000, 7.000000)">
                        <text id="已过期" stroke="none" fill="none" font-family="PingFangSC-Regular, PingFang SC" font-size="12" font-weight="normal">
                            <tspan x="7" y="30" fill="#CCCCCC">已过期</tspan>
                        </text>
                        <circle id="椭圆形" stroke="#E0E0E0" stroke-width="0.5" fill="none" cx="25" cy="25" r="24.75"></circle>
                        <path d="M25,42 C19.501179,42 14.6502433,39.2260734 11.770188,35.0012153 L12.3797961,35.0009939 C15.1908831,38.9353445 19.7959379,41.5 25,41.5 C30.2040621,41.5 34.8091169,38.9353445 37.6202039,35.0009939 L38.229812,35.0012153 C35.3497567,39.2260734 30.498821,42 25,42 Z M25,10 C30.4992539,10 35.3505205,12.7743634 38.2304922,16.9997826 L37.6209175,17.0000049 C34.8098962,13.0650895 30.2045025,10.5 25,10.5 C19.7954975,10.5 15.1901038,13.0650895 12.3790825,17.0000049 L11.7695078,16.9997826 C14.6494795,12.7743634 19.5007461,10 25,10 Z" id="形状结合" stroke="none" fill="#E0E0E0" fill-rule="nonzero"></path>
                    </g>
                </g>
            </g>
        </g>
    </g>
</svg>