<svg width="24" height="24" viewBox="0 0 24 24" fill="none" xmlns="http://www.w3.org/2000/svg">
<mask id="path-1-inside-1_947_44882" fill="white">
<path d="M20 12C20 16.4183 16.4183 20 12 20C7.58172 20 4 16.4183 4 12C4 7.58172 7.58172 4 12 4C16.4183 4 20 7.58172 20 12Z"/>
</mask>
<path d="M19.5 12C19.5 16.1421 16.1421 19.5 12 19.5V20.5C16.6944 20.5 20.5 16.6944 20.5 12H19.5ZM12 19.5C7.85786 19.5 4.5 16.1421 4.5 12H3.5C3.5 16.6944 7.30558 20.5 12 20.5V19.5ZM4.5 12C4.5 7.85786 7.85786 4.5 12 4.5V3.5C7.30558 3.5 3.5 7.30558 3.5 12H4.5ZM12 4.5C16.1421 4.5 19.5 7.85786 19.5 12H20.5C20.5 7.30558 16.6944 3.5 12 3.5V4.5Z" fill="#999999" mask="url(#path-1-inside-1_947_44882)"/>
</svg>
