<?xml version="1.0" encoding="UTF-8"?>
<svg width="20px" height="20px" viewBox="0 0 20 20" version="1.1" xmlns="http://www.w3.org/2000/svg" xmlns:xlink="http://www.w3.org/1999/xlink">
    <title>选中</title>
    <defs>
        <linearGradient x1="0%" y1="0%" x2="100%" y2="100%" id="linearGradient-1">
            <stop stop-color="#36D9CD" offset="0%"></stop>
            <stop stop-color="#28C6C6" offset="100%"></stop>
        </linearGradient>
    </defs>
    <g id="V2.0" stroke="none" stroke-width="1" fill="none" fill-rule="evenodd">
        <g id="我的收藏_商品管理" transform="translate(-16.000000, -764.000000)">
            <g id="编组-5备份" transform="translate(0.000000, 710.000000)">
                <g id="选中" transform="translate(16.000000, 54.000000)">
                    <circle id="未选中" fill="url(#linearGradient-1)" cx="10" cy="10" r="10"></circle>
                    <path d="M14.6566107,7.45677361 L14.8544433,7.64445148 C15.0948465,7.87251488 15.1048499,8.25228214 14.8767865,8.49268539 C14.8695362,8.500328 14.8620859,8.50777834 14.8544433,8.51502866 L9.96519066,13.153317 L9.96519066,13.153317 C9.85616697,13.2567445 9.72464103,13.3225621 9.58697812,13.3507696 L9.48283596,13.3648733 L9.48283596,13.3648733 L9.37792668,13.3648733 C9.20329097,13.3531202 9.0318516,13.2826014 8.89557198,13.153317 L6.14555673,10.5444594 C5.90515348,10.316396 5.89515006,9.93662877 6.12321346,9.69622552 C6.13046378,9.68858291 6.13791412,9.68113257 6.14555673,9.67388225 L6.3433893,9.48620439 C6.57488725,9.26658918 6.937782,9.26658918 7.16927995,9.48620439 L9.42950075,11.6310622 L13.8307201,7.45677361 C14.062218,7.2371584 14.4251128,7.2371584 14.6566107,7.45677361 Z" id="形状结合" fill="#FFFFFF"></path>
                </g>
            </g>
        </g>
    </g>
</svg>