<svg width="24" height="25" viewBox="0 0 24 25" fill="none" xmlns="http://www.w3.org/2000/svg">
<g clip-path="url(#clip0_947_44886)">
<rect width="24" height="24" transform="translate(0 0.00268555)" fill="white"/>
<rect width="24" height="24" transform="translate(0 0.00268555)" fill="#FCFCFC"/>
<rect x="4" y="4.00269" width="16" height="16" rx="8" fill="url(#paint0_linear_947_44886)"/>
<path fill-rule="evenodd" clip-rule="evenodd" d="M15.9952 9.44965C15.839 9.29344 15.5857 9.29344 15.4295 9.44965L11.1508 13.7284L9.22126 11.7989C9.06505 11.6427 8.81178 11.6427 8.65557 11.7989L8.30202 12.1524C8.14581 12.3087 8.14581 12.5619 8.30202 12.7181L10.6316 15.0478C10.8262 15.2424 11.1054 15.3008 11.3508 15.2232C11.4722 15.193 11.5871 15.1305 11.682 15.0356L16.3487 10.3689C16.5049 10.2127 16.5049 9.95941 16.3487 9.8032L15.9952 9.44965Z" fill="white"/>
</g>
<rect width="24" height="24" fill="#FCFCFC"/>
<rect opacity="0.9" x="4" y="4" width="16" height="16" rx="8" fill="url(#paint1_linear_947_44886)"/>
<path fill-rule="evenodd" clip-rule="evenodd" d="M15.1966 9.95713C15.3528 9.80091 15.606 9.80091 15.7623 9.95712L16.1157 10.3106C16.2719 10.4668 16.272 10.7201 16.1157 10.8763L13.5497 13.4424C13.5312 13.4609 13.5123 13.4788 13.493 13.4959L12.5413 14.4476C11.7993 15.1896 10.5963 15.1896 9.8543 14.4476L8.69025 13.2835C8.68043 13.2737 8.67101 13.2636 8.662 13.2533L8.11716 12.7085C7.96095 12.5523 7.96095 12.299 8.11716 12.1428L8.47069 11.7893C8.6269 11.6331 8.88016 11.6331 9.03637 11.7893L9.18111 11.934L9.18258 11.9325L10.5635 13.3134C10.9149 13.6649 11.4848 13.6649 11.8362 13.3134L14.5181 10.6316C14.5186 10.6325 14.519 10.6333 14.5195 10.6342L15.1966 9.95713Z" fill="white"/>
<defs>
<linearGradient id="paint0_linear_947_44886" x1="4" y1="12.0027" x2="16.8841" y2="18.3387" gradientUnits="userSpaceOnUse">
<stop stop-color="#F83112"/>
<stop offset="1" stop-color="#FD6421"/>
</linearGradient>
<linearGradient id="paint1_linear_947_44886" x1="-2.72523" y1="12.5679" x2="12.6703" y2="27.7106" gradientUnits="userSpaceOnUse">
<stop stop-color="#6D6D6D"/>
<stop offset="1" stop-color="#333333"/>
</linearGradient>
<clipPath id="clip0_947_44886">
<rect width="24" height="24" fill="white" transform="translate(0 0.00268555)"/>
</clipPath>
</defs>
</svg>
