<svg width="24" height="24" viewBox="0 0 24 24" fill="none" xmlns="http://www.w3.org/2000/svg">
<path fill-rule="evenodd" clip-rule="evenodd" d="M10.1271 5.87351C9.97093 5.7173 9.71766 5.7173 9.56145 5.8735L9.27861 6.15635C9.1224 6.31256 9.1224 6.56582 9.27861 6.72203L10.3392 7.78266C10.3385 7.7829 10.3377 7.78313 10.337 7.78336L13.7585 11.2048C14.2271 11.6735 14.2271 12.4333 13.7585 12.9019L10.337 16.3234C10.3377 16.3236 10.3385 16.3238 10.3392 16.3241L9.3321 17.3312C9.17589 17.4874 9.17589 17.7406 9.3321 17.8969L9.61494 18.1797C9.77115 18.3359 10.0244 18.3359 10.1806 18.1797L12.5337 15.8267C12.5551 15.8068 12.5763 15.7865 12.5971 15.7657L14.8952 13.4676C15.6762 12.6865 15.6762 11.4202 14.8952 10.6392L12.5971 8.34106C12.5763 8.32026 12.5552 8.29995 12.5338 8.28014L10.1271 5.87351Z" fill="#666666"/>
</svg>
