<svg width="121" height="19" viewBox="0 0 121 19" fill="none" xmlns="http://www.w3.org/2000/svg">
<path opacity="0.9" d="M2.44293 3.3424C2.76439 1.41365 4.43315 0 6.38851 0H55V18H1.18046C0.562521 18 0.0924779 17.4451 0.194067 16.8356L2.44293 3.3424Z" fill="#222222"/>
<path d="M49.1644 5.01361C49.6466 2.12048 52.1497 0 55.0828 0H119.82C120.437 0 120.908 0.554867 120.806 1.1644L118.557 14.6576C118.236 16.5863 116.567 18 114.611 18H48.1805C47.5625 18 47.0925 17.4451 47.1941 16.8356L49.1644 5.01361Z" fill="url(#paint0_linear_602_28485)"/>
<path d="M49.1644 5.01361C49.6466 2.12048 52.1497 0 55.0828 0H119.82C120.437 0 120.908 0.554867 120.806 1.1644L118.557 14.6576C118.236 16.5863 116.567 18 114.611 18H48.1805C47.5625 18 47.0925 17.4451 47.1941 16.8356L49.1644 5.01361Z" fill="#F5F5F5"/>
<path d="M9.772 4.552C9.256 5.668 8.464 6.64 7.396 7.456L7.768 8.656C9.232 7.576 10.252 6.388 10.852 5.068L9.772 4.552ZM10.204 7.324C9.604 8.644 8.704 9.796 7.504 10.768L7.876 11.956C8.284 11.632 8.68 11.296 9.052 10.948V15.676H10.264V9.568C10.672 9.016 11.008 8.428 11.272 7.828L10.204 7.324ZM14.26 4.624V5.8H11.728V6.94H14.26V8.08H11.296V9.232H18.52V8.08H15.472V6.94H18.028V5.8H15.472V4.624H14.26ZM11.332 10.336V11.5H15.844V13.924C15.844 14.308 15.664 14.512 15.304 14.512C14.824 14.512 14.308 14.488 13.756 14.44L14.044 15.628H15.748C16.636 15.628 17.092 15.16 17.092 14.236V11.5H18.352V10.336H17.092V9.58H15.844V10.336H11.332ZM12.952 11.74L11.98 12.352C12.604 13.012 13.108 13.612 13.48 14.152L14.452 13.468C14.104 12.964 13.6 12.388 12.952 11.74ZM22.024 4.54C21.448 6.4 20.548 8.02 19.336 9.388L19.744 10.684C20.164 10.252 20.56 9.796 20.92 9.34V15.772H22.168V7.456C22.588 6.7 22.936 5.908 23.2 5.092L22.024 4.54ZM23.296 7.108V8.332H27.592V14.032C27.592 14.38 27.424 14.56 27.1 14.56C26.572 14.56 26.02 14.524 25.444 14.476L25.732 15.7H27.532C28.408 15.7 28.852 15.244 28.852 14.344V8.332H30.484V7.108H28.852V4.696H27.592V7.108H23.296ZM24.58 9.376L23.548 10.012C24.376 11.044 25.036 11.992 25.528 12.832L26.596 12.088C26.116 11.32 25.444 10.408 24.58 9.376ZM31.54 5.632V6.712H33.952V7.42H31.96V8.464H36.928V7.42H35.128V6.712H37.204V5.632H35.128V4.648H33.952V5.632H31.54ZM32.356 9.112V10.192H36.556V9.112H32.356ZM31.624 10.792V11.872H33.94V14.296C33.94 14.536 33.784 14.668 33.496 14.668C33.232 14.668 32.956 14.644 32.668 14.596L32.92 15.724H33.892C34.708 15.724 35.116 15.34 35.116 14.596V11.872H37.336V10.792H31.624ZM32.392 12.256C32.2 12.952 31.852 13.612 31.36 14.236L32.284 14.824C32.752 14.164 33.112 13.372 33.376 12.46L32.392 12.256ZM36.484 12.136L35.512 12.46C35.776 12.988 36.016 13.6 36.244 14.296L37.204 13.864C36.988 13.252 36.748 12.676 36.484 12.136ZM38.176 4.696C37.972 6.616 37.528 8.116 36.844 9.196L37.792 9.88C38.2 9.304 38.548 8.512 38.824 7.528H40.972C40.828 8.416 40.648 9.196 40.432 9.856L41.584 10.18C41.824 9.172 42.016 8.176 42.172 7.168V6.412H39.076C39.172 5.944 39.244 5.44 39.316 4.888L38.176 4.696ZM39.016 8.332C39.004 9.844 38.872 11.08 38.608 12.028C38.272 13.156 37.552 14.104 36.448 14.896L37.204 15.808C38.464 14.92 39.28 13.828 39.664 12.508C40.168 13.756 40.876 14.836 41.776 15.748L42.604 14.788C41.38 13.72 40.528 12.304 40.036 10.54C40.108 9.868 40.144 9.124 40.144 8.332H39.016Z" fill="white"/>
<defs>
<linearGradient id="paint0_linear_602_28485" x1="3" y1="9" x2="131" y2="9" gradientUnits="userSpaceOnUse">
<stop offset="0.365123" stop-color="#F8E2F1"/>
<stop offset="0.999467" stop-color="#FAEBE5"/>
</linearGradient>
</defs>
</svg>
