<svg width="121" height="18" viewBox="0 0 121 18" fill="none" xmlns="http://www.w3.org/2000/svg">
<path opacity="0.9" d="M2.44293 3.3424C2.76439 1.41365 4.43315 0 6.38851 0H55V18H1.18046C0.562521 18 0.0924779 17.4451 0.194067 16.8356L2.44293 3.3424Z" fill="#222222"/>
<path d="M49.1644 5.01361C49.6466 2.12048 52.1497 0 55.0828 0H119.82C120.437 0 120.908 0.554867 120.806 1.1644L118.557 14.6576C118.236 16.5863 116.567 18 114.611 18H48.1805C47.5625 18 47.0925 17.4451 47.1941 16.8356L49.1644 5.01361Z" fill="url(#paint0_linear_4273_122263)"/>
<path d="M49.1644 5.01361C49.6466 2.12048 52.1497 0 55.0828 0H119.82C120.437 0 120.908 0.554867 120.806 1.1644L118.557 14.6576C118.236 16.5863 116.567 18 114.611 18H48.1805C47.5625 18 47.0925 17.4451 47.1941 16.8356L49.1644 5.01361Z" fill="#F5F5F5"/>
<path d="M10.541 2.881C10.068 3.904 9.342 4.795 8.363 5.543L8.704 6.643C10.046 5.653 10.981 4.564 11.531 3.354L10.541 2.881ZM10.937 5.422C10.387 6.632 9.562 7.688 8.462 8.579L8.803 9.668C9.177 9.371 9.54 9.063 9.881 8.744V13.078H10.992V7.479C11.366 6.973 11.674 6.434 11.916 5.884L10.937 5.422ZM14.655 2.947V4.025H12.334V5.07H14.655V6.115H11.938V7.171H18.56V6.115H15.766V5.07H18.109V4.025H15.766V2.947H14.655ZM11.971 8.183V9.25H16.107V11.472C16.107 11.824 15.942 12.011 15.612 12.011C15.172 12.011 14.699 11.989 14.193 11.945L14.457 13.034H16.019C16.833 13.034 17.251 12.605 17.251 11.758V9.25H18.406V8.183H17.251V7.49H16.107V8.183H11.971ZM13.456 9.47L12.565 10.031C13.137 10.636 13.599 11.186 13.94 11.681L14.831 11.054C14.512 10.592 14.05 10.064 13.456 9.47ZM21.772 2.87C21.244 4.575 20.419 6.06 19.308 7.314L19.682 8.502C20.067 8.106 20.43 7.688 20.76 7.27V13.166H21.904V5.543C22.289 4.85 22.608 4.124 22.85 3.376L21.772 2.87ZM22.938 5.224V6.346H26.876V11.571C26.876 11.89 26.722 12.055 26.425 12.055C25.941 12.055 25.435 12.022 24.907 11.978L25.171 13.1H26.821C27.624 13.1 28.031 12.682 28.031 11.857V6.346H29.527V5.224H28.031V3.013H26.876V5.224H22.938ZM24.115 7.303L23.169 7.886C23.928 8.832 24.533 9.701 24.984 10.471L25.963 9.789C25.523 9.085 24.907 8.249 24.115 7.303ZM30.495 3.871V4.861H32.706V5.51H30.88V6.467H35.434V5.51H33.784V4.861H35.687V3.871H33.784V2.969H32.706V3.871H30.495ZM31.243 7.061V8.051H35.093V7.061H31.243ZM30.572 8.601V9.591H32.695V11.813C32.695 12.033 32.552 12.154 32.288 12.154C32.046 12.154 31.793 12.132 31.529 12.088L31.76 13.122H32.651C33.399 13.122 33.773 12.77 33.773 12.088V9.591H35.808V8.601H30.572ZM31.276 9.943C31.1 10.581 30.781 11.186 30.33 11.758L31.177 12.297C31.606 11.692 31.936 10.966 32.178 10.13L31.276 9.943ZM35.027 9.833L34.136 10.13C34.378 10.614 34.598 11.175 34.807 11.813L35.687 11.417C35.489 10.856 35.269 10.328 35.027 9.833ZM36.578 3.013C36.391 4.773 35.984 6.148 35.357 7.138L36.226 7.765C36.6 7.237 36.919 6.511 37.172 5.609H39.141C39.009 6.423 38.844 7.138 38.646 7.743L39.702 8.04C39.922 7.116 40.098 6.203 40.241 5.279V4.586H37.403C37.491 4.157 37.557 3.695 37.623 3.189L36.578 3.013ZM37.348 6.346C37.337 7.732 37.216 8.865 36.974 9.734C36.666 10.768 36.006 11.637 34.994 12.363L35.687 13.199C36.842 12.385 37.59 11.384 37.942 10.174C38.404 11.318 39.053 12.308 39.878 13.144L40.637 12.264C39.515 11.285 38.734 9.987 38.283 8.37C38.349 7.754 38.382 7.072 38.382 6.346H37.348Z" fill="white"/>
<defs>
<linearGradient id="paint0_linear_4273_122263" x1="3" y1="9" x2="131" y2="9" gradientUnits="userSpaceOnUse">
<stop offset="0.365123" stop-color="#F8E2F1"/>
<stop offset="0.999467" stop-color="#FAEBE5"/>
</linearGradient>
</defs>
</svg>
