<?xml version="1.0" encoding="UTF-8"?>
<svg width="351px" height="97px" viewBox="0 0 351 97" version="1.1" xmlns="http://www.w3.org/2000/svg" xmlns:xlink="http://www.w3.org/1999/xlink">
    <title>优惠券_不可用</title>
    <defs>
        <path d="M80,0.915853284 C80,4.22956178 82.6862915,6.91585328 86,6.91585328 C89.3137085,6.91585328 92,4.22956178 92,0.915853284 L347,0.915853284 C349.209139,0.915853284 351,2.70671429 351,4.91585328 L351,8.91585328 L351,8.91585328 C349.343146,8.91585328 348,10.258999 348,11.9158533 C348,13.5727075 349.343146,14.9158533 351,14.9158533 L351,21.9158533 L351,21.9158533 C349.343146,21.9158533 348,23.258999 348,24.9158533 C348,26.5727075 349.343146,27.9158533 351,27.9158533 L351,33.9158533 L351,33.9158533 C349.343146,33.9158533 348,35.258999 348,36.9158533 C348,38.5727075 349.343146,39.9158533 351,39.9158533 L351,46.9158533 L351,46.9158533 C349.343146,46.9158533 348,48.258999 348,49.9158533 C348,51.5727075 349.343146,52.9158533 351,52.9158533 L351,58.9158533 L351,58.9158533 C349.343146,58.9158533 348,60.258999 348,61.9158533 C348,63.5727075 349.343146,64.9158533 351,64.9158533 L351,71.9158533 L351,71.9158533 C349.343146,71.9158533 348,73.258999 348,74.9158533 C348,76.5727075 349.343146,77.9158533 351,77.9158533 L351,83.9158533 L351,83.9158533 C349.343146,83.9158533 348,85.258999 348,86.9158533 C348,88.5727075 349.343146,89.9158533 351,89.9158533 L351,93.9158533 C351,96.1249923 349.209139,97.9158533 347,97.9158533 L92,97.9158533 L92,97.9158533 C92,94.6021448 89.3137085,91.9158533 86,91.9158533 C82.6862915,91.9158533 80,94.6021448 80,97.9158533 L4,97.9158533 C1.790861,97.9158533 2.705415e-16,96.1249923 0,93.9158533 L0,89.9158533 L0,89.9158533 C1.65685425,89.9158533 3,88.5727075 3,86.9158533 C3,85.258999 1.65685425,83.9158533 0,83.9158533 L0,77.9158533 L0,77.9158533 C1.65685425,77.9158533 3,76.5727075 3,74.9158533 C3,73.258999 1.65685425,71.9158533 0,71.9158533 L0,64.9158533 L0,64.9158533 C1.65685425,64.9158533 3,63.5727075 3,61.9158533 C3,60.258999 1.65685425,58.9158533 0,58.9158533 L0,52.9158533 L0,52.9158533 C1.65685425,52.9158533 3,51.5727075 3,49.9158533 C3,48.258999 1.65685425,46.9158533 0,46.9158533 L0,39.9158533 L0,39.9158533 C1.65685425,39.9158533 3,38.5727075 3,36.9158533 C3,35.258999 1.65685425,33.9158533 0,33.9158533 L0,27.9158533 L0,27.9158533 C1.65685425,27.9158533 3,26.5727075 3,24.9158533 C3,23.258999 1.65685425,21.9158533 0,21.9158533 L0,14.9158533 L0,14.9158533 C1.65685425,14.9158533 3,13.5727075 3,11.9158533 C3,10.258999 1.65685425,8.91585328 0,8.91585328 L0,4.91585328 C-2.705415e-16,2.70671429 1.790861,0.915853284 4,0.915853284 L80,0.915853284 L80,0.915853284 Z" id="path-1"></path>
        <rect id="path-3" x="86" y="14" width="1" height="72"></rect>
        <mask id="mask-4" maskContentUnits="userSpaceOnUse" maskUnits="objectBoundingBox" x="0" y="0" width="0.5" height="72" fill="white">
            <use xlink:href="#path-3"></use>
        </mask>
        <polygon id="path-5" points="98 68 339 68 339 68.5 98 68.5"></polygon>
        <mask id="mask-6" maskContentUnits="userSpaceOnUse" maskUnits="objectBoundingBox" x="0" y="0" width="241" height="1" fill="white">
            <use xlink:href="#path-5"></use>
        </mask>
    </defs>
    <g id="储值卡优惠券" stroke="none" stroke-width="1" fill="none" fill-rule="evenodd">
        <g id="历史优惠券_已使用" transform="translate(-12.000000, -152.000000)">
            <g id="优惠券_不可用" transform="translate(12.000000, 151.000000)">
                <g id="矩形备份-5">
                    <g id="编组-2" transform="translate(0.000000, 0.084147)">
                        <mask id="mask-2" fill="white">
                            <use xlink:href="#path-1"></use>
                        </mask>
                        <path stroke="#E7E7E7" stroke-width="0.5" d="M79.7549086,1.16585328 C79.8188905,2.79233074 80.5044246,4.25911265 81.5805826,5.33527067 C82.7116102,6.46629821 84.2741102,7.16585328 86,7.16585328 C87.7258898,7.16585328 89.2883898,6.46629821 90.4194174,5.33527067 C91.4955754,4.25911265 92.1811095,2.79233074 92.2450914,1.16585328 L92.2450914,1.16585328 L347,1.16585328 C348.035534,1.16585328 348.973034,1.58558633 349.65165,2.26420286 C350.330267,2.94281938 350.75,3.88031938 350.75,4.91585328 L350.75,4.91585328 L350.75,8.67532569 C349.952199,8.73601546 349.234912,9.08474698 348.701903,9.61775625 C348.113769,10.2058906 347.75,11.0183906 347.75,11.9158533 C347.75,12.813316 348.113769,13.625816 348.701903,14.2139503 C349.234912,14.7469596 349.952199,15.0956911 350.75,15.1563809 L350.75,15.1563809 L350.75,21.6753257 C349.952199,21.7360155 349.234912,22.084747 348.701903,22.6177562 C348.113769,23.2058906 347.75,24.0183906 347.75,24.9158533 C347.75,25.813316 348.113769,26.625816 348.701903,27.2139503 C349.234912,27.7469596 349.952199,28.0956911 350.75,28.1563809 L350.75,28.1563809 L350.75,33.6753257 C349.952199,33.7360155 349.234912,34.084747 348.701903,34.6177562 C348.113769,35.2058906 347.75,36.0183906 347.75,36.9158533 C347.75,37.813316 348.113769,38.625816 348.701903,39.2139503 C349.234912,39.7469596 349.952199,40.0956911 350.75,40.1563809 L350.75,40.1563809 L350.75,46.6753257 C349.952199,46.7360155 349.234912,47.084747 348.701903,47.6177562 C348.113769,48.2058906 347.75,49.0183906 347.75,49.9158533 C347.75,50.813316 348.113769,51.625816 348.701903,52.2139503 C349.234912,52.7469596 349.952199,53.0956911 350.75,53.1563809 L350.75,53.1563809 L350.75,58.6753257 C349.952199,58.7360155 349.234912,59.084747 348.701903,59.6177562 C348.113769,60.2058906 347.75,61.0183906 347.75,61.9158533 C347.75,62.813316 348.113769,63.625816 348.701903,64.2139503 C349.234912,64.7469596 349.952199,65.0956911 350.75,65.1563809 L350.75,65.1563809 L350.75,71.6753257 C349.952199,71.7360155 349.234912,72.084747 348.701903,72.6177562 C348.113769,73.2058906 347.75,74.0183906 347.75,74.9158533 C347.75,75.813316 348.113769,76.625816 348.701903,77.2139503 C349.234912,77.7469596 349.952199,78.0956911 350.75,78.1563809 L350.75,78.1563809 L350.75,83.6753257 C349.952199,83.7360155 349.234912,84.084747 348.701903,84.6177562 C348.113769,85.2058906 347.75,86.0183906 347.75,86.9158533 C347.75,87.813316 348.113769,88.625816 348.701903,89.2139503 C349.234912,89.7469596 349.952199,90.0956911 350.75,90.1563809 L350.75,90.1563809 L350.75,93.9158533 C350.75,94.9513872 350.330267,95.8888872 349.65165,96.5675037 C348.973034,97.2461202 348.035534,97.6658533 347,97.6658533 L347,97.6658533 L92.2450914,97.6658533 C92.1811095,96.0393758 91.4955754,94.5725939 90.4194174,93.4964359 C89.2883898,92.3654084 87.7258898,91.6658533 86,91.6658533 C84.2741102,91.6658533 82.7116102,92.3654084 81.5805826,93.4964359 C80.5044246,94.5725939 79.8188905,96.0393758 79.7549086,97.6658533 L79.7549086,97.6658533 L4,97.6658533 C2.96446609,97.6658533 2.02696609,97.2461202 1.34834957,96.5675037 C0.669733047,95.8888872 0.25,94.9513872 0.25,93.9158533 L0.25,93.9158533 L0.25,90.1563809 C1.04780076,90.0956911 1.76508777,89.7469596 2.29809704,89.2139503 C2.88623136,88.625816 3.25,87.813316 3.25,86.9158533 C3.25,86.0183906 2.88623136,85.2058906 2.29809704,84.6177562 C1.76508777,84.084747 1.04780076,83.7360155 0.25,83.6753257 L0.25,83.6753257 L0.25,78.1563809 C1.04780076,78.0956911 1.76508777,77.7469596 2.29809704,77.2139503 C2.88623136,76.625816 3.25,75.813316 3.25,74.9158533 C3.25,74.0183906 2.88623136,73.2058906 2.29809704,72.6177562 C1.76508777,72.084747 1.04780076,71.7360155 0.25,71.6753257 L0.25,71.6753257 L0.25,65.1563809 C1.04780076,65.0956911 1.76508777,64.7469596 2.29809704,64.2139503 C2.88623136,63.625816 3.25,62.813316 3.25,61.9158533 C3.25,61.0183906 2.88623136,60.2058906 2.29809704,59.6177562 C1.76508777,59.084747 1.04780076,58.7360155 0.25,58.6753257 L0.25,58.6753257 L0.25,53.1563809 C1.04780076,53.0956911 1.76508777,52.7469596 2.29809704,52.2139503 C2.88623136,51.625816 3.25,50.813316 3.25,49.9158533 C3.25,49.0183906 2.88623136,48.2058906 2.29809704,47.6177562 C1.76508777,47.084747 1.04780076,46.7360155 0.25,46.6753257 L0.25,46.6753257 L0.25,40.1563809 C1.04780076,40.0956911 1.76508777,39.7469596 2.29809704,39.2139503 C2.88623136,38.625816 3.25,37.813316 3.25,36.9158533 C3.25,36.0183906 2.88623136,35.2058906 2.29809704,34.6177562 C1.76508777,34.084747 1.04780076,33.7360155 0.25,33.6753257 L0.25,33.6753257 L0.25,28.1563809 C1.04780076,28.0956911 1.76508777,27.7469596 2.29809704,27.2139503 C2.88623136,26.625816 3.25,25.813316 3.25,24.9158533 C3.25,24.0183906 2.88623136,23.2058906 2.29809704,22.6177562 C1.76508777,22.084747 1.04780076,21.7360155 0.25,21.6753257 L0.25,21.6753257 L0.25,15.1563809 C1.04780076,15.0956911 1.76508777,14.7469596 2.29809704,14.2139503 C2.88623136,13.625816 3.25,12.813316 3.25,11.9158533 C3.25,11.0183906 2.88623136,10.2058906 2.29809704,9.61775625 C1.76508777,9.08474698 1.04780076,8.73601546 0.25,8.67532569 L0.25,8.67532569 L0.25,4.91585328 C0.25,3.88031938 0.669733047,2.94281938 1.34834957,2.26420286 C2.02696609,1.58558633 2.96446609,1.16585328 4,1.16585328 L4,1.16585328 Z"></path>
                    </g>
                    <rect id="矩形" opacity="0" x="0" y="1" width="86" height="97"></rect>
                </g>
                <use id="矩形" stroke="#E0E0E0" mask="url(#mask-4)" stroke-width="2" stroke-dasharray="5" xlink:href="#path-3"></use>
                <use id="矩形备份-6" stroke="#E0E0E0" mask="url(#mask-6)" stroke-width="2" stroke-dasharray="2" xlink:href="#path-5"></use>
            </g>
        </g>
    </g>
</svg>