<?xml version="1.0" encoding="UTF-8"?>
<svg width="351px" height="97px" viewBox="0 0 351 97" version="1.1" xmlns="http://www.w3.org/2000/svg" xmlns:xlink="http://www.w3.org/1999/xlink">
    <title>优惠券</title>
    <defs>
        <rect id="path-1" x="86" y="13" width="1" height="72"></rect>
        <mask id="mask-2" maskContentUnits="userSpaceOnUse" maskUnits="objectBoundingBox" x="0" y="0" width="0.5" height="72" fill="white">
            <use xlink:href="#path-1"></use>
        </mask>
        <polygon id="path-3" points="98 67 339 67 339 67.5 98 67.5"></polygon>
        <mask id="mask-4" maskContentUnits="userSpaceOnUse" maskUnits="objectBoundingBox" x="0" y="0" width="241" height="1" fill="white">
            <use xlink:href="#path-3"></use>
        </mask>
    </defs>
    <g id="储值卡优惠券" stroke="none" stroke-width="1" fill="none" fill-rule="evenodd">
        <g id="优惠券" transform="translate(-12.000000, -112.000000)">
            <g id="优惠券_可用" transform="translate(12.000000, 112.000000)">
                <g id="矩形备份-5">
                    <path d="M92.2450914,0.25 L347,0.25 C348.035534,0.25 348.973034,0.669733047 349.65165,1.34834957 C350.330267,2.02696609 350.75,2.96446609 350.75,4 L350.75,4 L350.75,7.75947241 C349.952199,7.82016218 349.234912,8.1688937 348.701903,8.70190296 C348.113769,9.29003728 347.75,10.1025373 347.75,11 C347.75,11.8974627 348.113769,12.7099627 348.701903,13.298097 C349.234912,13.8311063 349.952199,14.1798378 350.75,14.2405276 L350.75,14.2405276 L350.75,20.7594724 C349.952199,20.8201622 349.234912,21.1688937 348.701903,21.701903 C348.113769,22.2900373 347.75,23.1025373 347.75,24 C347.75,24.8974627 348.113769,25.7099627 348.701903,26.298097 C349.234912,26.8311063 349.952199,27.1798378 350.75,27.2405276 L350.75,27.2405276 L350.75,32.7594724 C349.952199,32.8201622 349.234912,33.1688937 348.701903,33.701903 C348.113769,34.2900373 347.75,35.1025373 347.75,36 C347.75,36.8974627 348.113769,37.7099627 348.701903,38.298097 C349.234912,38.8311063 349.952199,39.1798378 350.75,39.2405276 L350.75,39.2405276 L350.75,45.7594724 C349.952199,45.8201622 349.234912,46.1688937 348.701903,46.701903 C348.113769,47.2900373 347.75,48.1025373 347.75,49 C347.75,49.8974627 348.113769,50.7099627 348.701903,51.298097 C349.234912,51.8311063 349.952199,52.1798378 350.75,52.2405276 L350.75,52.2405276 L350.75,57.7594724 C349.952199,57.8201622 349.234912,58.1688937 348.701903,58.701903 C348.113769,59.2900373 347.75,60.1025373 347.75,61 C347.75,61.8974627 348.113769,62.7099627 348.701903,63.298097 C349.234912,63.8311063 349.952199,64.1798378 350.75,64.2405276 L350.75,64.2405276 L350.75,70.7594724 C349.952199,70.8201622 349.234912,71.1688937 348.701903,71.701903 C348.113769,72.2900373 347.75,73.1025373 347.75,74 C347.75,74.8974627 348.113769,75.7099627 348.701903,76.298097 C349.234912,76.8311063 349.952199,77.1798378 350.75,77.2405276 L350.75,77.2405276 L350.75,82.7594724 C349.952199,82.8201622 349.234912,83.1688937 348.701903,83.701903 C348.113769,84.2900373 347.75,85.1025373 347.75,86 C347.75,86.8974627 348.113769,87.7099627 348.701903,88.298097 C349.234912,88.8311063 349.952199,89.1798378 350.75,89.2405276 L350.75,89.2405276 L350.75,93 C350.75,94.0355339 350.330267,94.9730339 349.65165,95.6516504 C348.973034,96.330267 348.035534,96.75 347,96.75 L347,96.75 L92.2450914,96.75 C92.1811095,95.1235225 91.4955754,93.6567406 90.4194174,92.5805826 C89.2883898,91.4495551 87.7258898,90.75 86,90.75 C84.2741102,90.75 82.7116102,91.4495551 81.5805826,92.5805826 C80.5044246,93.6567406 79.8188905,95.1235225 79.7549086,96.75 L79.7549086,96.75 L4,96.75 C2.96446609,96.75 2.02696609,96.330267 1.34834957,95.6516504 C0.669733047,94.9730339 0.25,94.0355339 0.25,93 L0.25,93 L0.25,89.2405276 C1.04780076,89.1798378 1.76508777,88.8311063 2.29809704,88.298097 C2.88623136,87.7099627 3.25,86.8974627 3.25,86 C3.25,85.1025373 2.88623136,84.2900373 2.29809704,83.701903 C1.76508777,83.1688937 1.04780076,82.8201622 0.25,82.7594724 L0.25,82.7594724 L0.25,77.2405276 C1.04780076,77.1798378 1.76508777,76.8311063 2.29809704,76.298097 C2.88623136,75.7099627 3.25,74.8974627 3.25,74 C3.25,73.1025373 2.88623136,72.2900373 2.29809704,71.701903 C1.76508777,71.1688937 1.04780076,70.8201622 0.25,70.7594724 L0.25,70.7594724 L0.25,64.2405276 C1.04780076,64.1798378 1.76508777,63.8311063 2.29809704,63.298097 C2.88623136,62.7099627 3.25,61.8974627 3.25,61 C3.25,60.1025373 2.88623136,59.2900373 2.29809704,58.701903 C1.76508777,58.1688937 1.04780076,57.8201622 0.25,57.7594724 L0.25,57.7594724 L0.25,52.2405276 C1.04780076,52.1798378 1.76508777,51.8311063 2.29809704,51.298097 C2.88623136,50.7099627 3.25,49.8974627 3.25,49 C3.25,48.1025373 2.88623136,47.2900373 2.29809704,46.701903 C1.76508777,46.1688937 1.04780076,45.8201622 0.25,45.7594724 L0.25,45.7594724 L0.25,39.2405276 C1.04780076,39.1798378 1.76508777,38.8311063 2.29809704,38.298097 C2.88623136,37.7099627 3.25,36.8974627 3.25,36 C3.25,35.1025373 2.88623136,34.2900373 2.29809704,33.701903 C1.76508777,33.1688937 1.04780076,32.8201622 0.25,32.7594724 L0.25,32.7594724 L0.25,27.2405276 C1.04780076,27.1798378 1.76508777,26.8311063 2.29809704,26.298097 C2.88623136,25.7099627 3.25,24.8974627 3.25,24 C3.25,23.1025373 2.88623136,22.2900373 2.29809704,21.701903 C1.76508777,21.1688937 1.04780076,20.8201622 0.25,20.7594724 L0.25,20.7594724 L0.25,14.2405276 C1.04780076,14.1798378 1.76508777,13.8311063 2.29809704,13.298097 C2.88623136,12.7099627 3.25,11.8974627 3.25,11 C3.25,10.1025373 2.88623136,9.29003728 2.29809704,8.70190296 C1.76508777,8.1688937 1.04780076,7.82016218 0.25,7.75947241 L0.25,7.75947241 L0.25,4 C0.25,2.96446609 0.669733047,2.02696609 1.34834957,1.34834957 C2.02696609,0.669733047 2.96446609,0.25 4,0.25 L4,0.25 L79.7549086,0.25 C79.8188905,1.87647746 80.5044246,3.34325937 81.5805826,4.41941738 C82.7116102,5.55044492 84.2741102,6.25 86,6.25 C87.7258898,6.25 89.2883898,5.55044492 90.4194174,4.41941738 C91.4955754,3.34325937 92.1811095,1.87647746 92.2450914,0.25 L92.2450914,0.25 Z" id="蒙版" stroke="#FCD3BF" stroke-width="0.5" fill="#FFFCF7"></path>
                    <rect id="矩形" opacity="0" x="0" y="0" width="86" height="97"></rect>
                </g>
                <use id="矩形" stroke="#FCD3BF" mask="url(#mask-2)" stroke-width="2" stroke-dasharray="5" xlink:href="#path-1"></use>
                <use id="矩形备份-6" stroke="#E0E0E0" mask="url(#mask-4)" stroke-width="2" stroke-dasharray="2" xlink:href="#path-3"></use>
            </g>
        </g>
    </g>
</svg>