<svg width="50" height="50" viewBox="0 0 50 50" fill="none" xmlns="http://www.w3.org/2000/svg">
<circle cx="25" cy="25" r="24" stroke="#F7F7F7" stroke-width="2"/>
<rect opacity="0.01" x="17" y="17" width="16" height="16" fill="black"/>
<path fill-rule="evenodd" clip-rule="evenodd" d="M28.2799 22.8512C28.9789 23.7887 29.3569 24.9211 29.3569 26.1118C29.3569 27.5726 28.7881 28.946 27.7551 29.9789C26.7221 31.0119 25.3487 31.5807 23.8879 31.5807C22.4271 31.5807 21.0537 31.0119 20.0208 29.9789C18.9878 28.946 18.419 27.5726 18.4189 26.1118C18.4189 24.651 18.9878 23.2776 20.0208 22.2447C21.0537 21.2117 22.4271 20.6429 23.8879 20.6429C25.0785 20.6428 26.211 21.0208 27.1485 21.7199L28.8463 20.022H27.5222C27.3013 20.022 27.1013 19.9325 26.9565 19.7877C26.8117 19.6429 26.7222 19.4429 26.7222 19.222C26.7222 18.7802 27.0804 18.422 27.5222 18.422H30.713C30.7343 18.4203 30.7559 18.4192 30.7777 18.4192C30.9993 18.4192 31.1998 18.5093 31.3447 18.6548C31.4903 18.7997 31.5805 19.0003 31.5805 19.222C31.5805 19.2438 31.5794 19.2653 31.5777 19.2867V22.4775C31.5777 22.9194 31.2195 23.2775 30.7777 23.2775C30.5568 23.2775 30.3568 23.188 30.212 23.0432C30.0672 22.8984 29.9777 22.6985 29.9777 22.4775V21.1534L28.2799 22.8512ZM21.1521 28.8475C21.8829 29.5783 22.8545 29.9807 23.8879 29.9808C24.9214 29.9808 25.893 29.5783 26.6237 28.8476C27.3544 28.1168 27.7569 27.1452 27.7569 26.1118C27.7569 25.0783 27.3545 24.1068 26.6237 23.376C25.893 22.6453 24.9214 22.2428 23.8879 22.2428C22.8544 22.2428 21.8829 22.6453 21.1521 23.376C20.4214 24.1068 20.0189 25.0783 20.0189 26.1118C20.019 27.1452 20.4214 28.1168 21.1521 28.8475Z" fill="#BDBDBD"/>
</svg>
