<svg width="48" height="48" viewBox="0 0 48 48" fill="none" xmlns="http://www.w3.org/2000/svg">
<circle cx="24" cy="24" r="23" stroke="#333333" stroke-width="2"/>
<rect opacity="0.01" x="16" y="16" width="16" height="16" fill="black"/>
<path fill-rule="evenodd" clip-rule="evenodd" d="M27.2799 21.8512C27.9789 22.7887 28.3569 23.9211 28.3569 25.1118C28.3569 26.5726 27.7881 27.946 26.7551 28.9789C25.7221 30.0119 24.3487 30.5807 22.8879 30.5807C21.4271 30.5807 20.0537 30.0119 19.0208 28.9789C17.9878 27.946 17.419 26.5726 17.4189 25.1118C17.4189 23.651 17.9878 22.2776 19.0208 21.2447C20.0537 20.2117 21.4271 19.6429 22.8879 19.6429C24.0785 19.6428 25.211 20.0208 26.1485 20.7199L27.8463 19.022H26.5222C26.3013 19.022 26.1013 18.9325 25.9565 18.7877C25.8117 18.6429 25.7222 18.4429 25.7222 18.222C25.7222 17.7802 26.0804 17.422 26.5222 17.422H29.713C29.7343 17.4203 29.7559 17.4192 29.7777 17.4192C29.9993 17.4192 30.1998 17.5093 30.3447 17.6548C30.4903 17.7997 30.5805 18.0003 30.5805 18.222C30.5805 18.2438 30.5794 18.2653 30.5777 18.2867V21.4775C30.5777 21.9194 30.2195 22.2775 29.7777 22.2775C29.5568 22.2775 29.3568 22.188 29.212 22.0432C29.0672 21.8984 28.9777 21.6985 28.9777 21.4775V20.1534L27.2799 21.8512ZM20.1521 27.8475C20.8829 28.5783 21.8545 28.9807 22.8879 28.9808C23.9214 28.9808 24.893 28.5783 25.6237 27.8476C26.3544 27.1168 26.7569 26.1452 26.7569 25.1118C26.7569 24.0783 26.3545 23.1068 25.6237 22.376C24.893 21.6453 23.9214 21.2428 22.8879 21.2428C21.8544 21.2428 20.8829 21.6453 20.1521 22.376C19.4214 23.1068 19.0189 24.0783 19.0189 25.1118C19.019 26.1452 19.4214 27.1168 20.1521 27.8475Z" fill="#333333"/>
</svg>
