<svg width="32" height="32" viewBox="0 0 32 32" fill="none" xmlns="http://www.w3.org/2000/svg">
<path fill-rule="evenodd" clip-rule="evenodd" d="M22.8729 8.87593C22.6386 8.64162 22.2587 8.64162 22.0243 8.87593L16.0158 14.8845L10.0073 8.87594C9.77299 8.64162 9.39309 8.64162 9.15877 8.87594L8.87593 9.15878C8.64162 9.3931 8.64162 9.77299 8.87593 10.0073L14.8844 16.0158L8.87598 22.0243C8.64167 22.2586 8.64167 22.6385 8.87598 22.8728L9.15883 23.1557C9.39314 23.39 9.77304 23.39 10.0074 23.1557L16.0158 17.1472L22.0243 23.1557C22.2586 23.39 22.6385 23.39 22.8728 23.1557L23.1557 22.8728C23.39 22.6385 23.39 22.2586 23.1557 22.0243L17.1472 16.0158L23.1557 10.0073C23.39 9.77299 23.39 9.39309 23.1557 9.15877L22.8729 8.87593Z" fill="#666666"/>
</svg>
