<?xml version="1.0" encoding="UTF-8"?>
<svg width="16px" height="16px" viewBox="0 0 16 16" version="1.1" xmlns="http://www.w3.org/2000/svg" xmlns:xlink="http://www.w3.org/1999/xlink">
    <title>infer_grey</title>
    <g id="infer_grey" stroke="none" stroke-width="1" fill="none" fill-rule="evenodd">
        <path d="M8.75608447,3.08603672 C9.28622613,3.21396423 9.54208117,3.8354827 9.42336942,4.36562436 C9.29544191,4.89576602 8.80185097,5.34359044 8.27170931,5.21566292 C7.74156766,5.08773541 7.54053869,4.47527652 7.65940664,3.94529106 C7.78717797,3.4149932 8.22594281,2.957953 8.75608447,3.08603672 Z M6.48025539,7.00696064 C6.48025539,7.00696064 8.07973994,5.60850506 8.70125839,5.88279167 C9.12174788,5.99244383 8.89322778,7.88449034 8.82918591,8.14034539 C8.81091055,8.3688655 8.44524714,11.2479377 8.53678014,11.3758652 C8.66470766,11.8511808 8.81091055,11.4764578 9.25889117,11.1017348 C9.25889117,11.1017348 10.3099587,10.3888395 9.18578973,11.8694561 C8.25359016,12.8656976 7.3487255,12.73777 7.2115822,11.9883241 C7.10193005,11.4216317 7.54975447,7.99414252 7.65940664,7.22642117 C7.69595736,6.97056613 7.37606045,7.22642117 7.37606045,7.22642117 C7.37606045,7.22642117 6.50774653,7.76562241 6.29750178,7.40011519 C6.2425195,7.29952261 6.32483672,7.14410394 6.48025539,7.00696064 L6.48025539,7.00696064 Z M7.9974227,0 C3.59884022,0 0,3.59884022 0,7.9974227 C0,12.3960052 3.59884022,15.9948454 7.9974227,15.9948454 C12.3960052,15.9948454 15.9948454,12.3960052 15.9948454,7.9974227 C15.9948454,3.59884022 12.3960052,0 7.9974227,0 Z M7.9974227,14.7452481 C4.27065497,14.7452481 1.2495973,11.7241904 1.2495973,7.9974227 C1.2495973,4.27065497 4.27065497,1.2495973 7.9974227,1.2495973 C11.7241904,1.2495973 14.7452481,4.27065497 14.7452481,7.9974227 C14.7452481,11.7241904 11.7241904,14.7452481 7.9974227,14.7452481 Z" id="形状" fill="#CFCFCF" fill-rule="nonzero"></path>
    </g>
</svg>