<svg width="50" height="50" viewBox="0 0 50 50" fill="none" xmlns="http://www.w3.org/2000/svg">
<circle cx="25" cy="25" r="24" stroke="#F7F7F7" stroke-width="2"/>
<rect opacity="0.01" x="13.6865" y="25" width="16" height="16" transform="rotate(-45 13.6865 25)" fill="#35C4C4"/>
<path fill-rule="evenodd" clip-rule="evenodd" d="M21.133 18.6756C22.166 17.6426 23.5394 17.0738 25.0002 17.0738C26.461 17.0738 27.8344 17.6426 28.8673 18.6756C29.9003 19.7086 30.4692 21.0819 30.4692 22.5428C30.4692 24.0036 29.9003 25.377 28.8673 26.4099C28.0254 27.2518 26.9574 27.7853 25.8002 27.9539L25.8002 29.2842L28.9762 29.2842C29.418 29.2842 29.7762 29.6424 29.7762 30.0842C29.7762 30.526 29.418 30.8842 28.9762 30.8842L25.8002 30.8842L25.8002 32.1162C25.8002 32.558 25.442 32.9162 25.0001 32.9162C24.5583 32.9162 24.2002 32.558 24.2002 32.1162L24.2002 30.8842L21.0242 30.8842C20.5823 30.8842 20.2242 30.526 20.2242 30.0842C20.2242 29.6424 20.5823 29.2842 21.0242 29.2842L24.2002 29.2842L24.2002 27.9539C23.043 27.7853 21.9749 27.2518 21.133 26.4099C20.1001 25.3769 19.5312 24.0036 19.5312 22.5427C19.5312 21.0819 20.1001 19.7085 21.133 18.6756ZM27.736 25.2785C28.4667 24.5478 28.8692 23.5762 28.8692 22.5428C28.8692 21.5093 28.4667 20.5377 27.7359 19.807C27.0052 19.0762 26.0336 18.6738 25.0002 18.6738C23.9667 18.6738 22.9951 19.0762 22.2644 19.807C21.5336 20.5377 21.1312 21.5093 21.1312 22.5427C21.1312 23.5762 21.5336 24.5477 22.2644 25.2785C22.9951 26.0093 23.9667 26.4117 25.0002 26.4117C26.0336 26.4117 27.0052 26.0093 27.736 25.2785Z" fill="#BDBDBD"/>
</svg>
