<svg width="48" height="48" viewBox="0 0 48 48" fill="none" xmlns="http://www.w3.org/2000/svg">
<circle cx="24" cy="24" r="23" stroke="#333333" stroke-width="2"/>
<rect opacity="0.01" x="12.6865" y="24" width="16" height="16" transform="rotate(-45 12.6865 24)" fill="#4DBAB5"/>
<path fill-rule="evenodd" clip-rule="evenodd" d="M20.133 17.6756C21.166 16.6426 22.5394 16.0738 24.0002 16.0738C25.461 16.0738 26.8344 16.6426 27.8673 17.6756C28.9003 18.7086 29.4692 20.0819 29.4692 21.5428C29.4692 23.0036 28.9003 24.377 27.8673 25.4099C27.0254 26.2518 25.9574 26.7853 24.8002 26.9539L24.8002 28.2842L27.9762 28.2842C28.418 28.2842 28.7762 28.6424 28.7762 29.0842C28.7762 29.526 28.418 29.8842 27.9762 29.8842L24.8002 29.8842L24.8002 31.1162C24.8002 31.558 24.442 31.9162 24.0001 31.9162C23.5583 31.9162 23.2002 31.558 23.2002 31.1162L23.2002 29.8842L20.0242 29.8842C19.5823 29.8842 19.2242 29.526 19.2242 29.0842C19.2242 28.6424 19.5823 28.2842 20.0242 28.2842L23.2002 28.2842L23.2002 26.9539C22.043 26.7853 20.9749 26.2518 20.133 25.4099C19.1001 24.3769 18.5312 23.0036 18.5312 21.5427C18.5312 20.0819 19.1001 18.7085 20.133 17.6756ZM26.736 24.2785C27.4667 23.5478 27.8692 22.5762 27.8692 21.5428C27.8692 20.5093 27.4667 19.5377 26.7359 18.807C26.0052 18.0762 25.0336 17.6738 24.0002 17.6738C22.9667 17.6738 21.9951 18.0762 21.2644 18.807C20.5336 19.5377 20.1312 20.5093 20.1312 21.5427C20.1312 22.5762 20.5336 23.5477 21.2644 24.2785C21.9951 25.0093 22.9667 25.4117 24.0002 25.4117C25.0336 25.4117 26.0052 25.0093 26.736 24.2785Z" fill="#333333"/>
</svg>
