<?xml version="1.0" encoding="UTF-8"?>
<svg width="16px" height="16px" viewBox="0 0 16 16" version="1.1" xmlns="http://www.w3.org/2000/svg" xmlns:xlink="http://www.w3.org/1999/xlink">
    <title>ic_more</title>
    <g id="ic_more" stroke="none" stroke-width="1" fill="none" fill-rule="evenodd">
        <g id="编组" transform="translate(6.500999, 8.309903) rotate(-315.000000) translate(-6.500999, -8.309903) translate(3.500999, 5.309903)" fill="#333333">
            <path d="M5.34908073,1.94622096e-13 L5.44397092,0.00696240629 L5.44397092,0.00696240629 L5.52,0.00672783323 C5.78509668,0.00672783323 6,0.221631153 6,0.486727833 L6,5.6 C6,5.8209139 5.8209139,6 5.6,6 L5.11616778,6 C4.89525388,6 4.71616778,5.8209139 4.71616778,5.6 L4.716,1.284 L0.4,1.28427261 C0.1790861,1.28427261 3.8893818e-13,1.10518651 3.89022148e-13,0.884272607 L3.89022148e-13,0.4 C3.89050605e-13,0.1790861 0.1790861,1.94662677e-13 0.4,1.94622096e-13 L5.34908073,1.94622096e-13 Z" id="形状结合"></path>
        </g>
    </g>
</svg>