<?xml version="1.0" encoding="UTF-8"?>
<svg width="29px" height="28px" viewBox="0 0 29 28" version="1.1" xmlns="http://www.w3.org/2000/svg" xmlns:xlink="http://www.w3.org/1999/xlink">
    <title>ic/order_wait</title>
    <g id="订单" stroke="none" stroke-width="1" fill="none" fill-rule="evenodd">
        <g id="订单详情-已关闭" transform="translate(-134.000000, -82.000000)">
            <g id="订单状态/待付款" transform="translate(132.500000, 80.000000)">
                <g id="ic/order_wait" transform="translate(2.000000, 2.000000)">
                    <circle id="椭圆形" stroke="#FFFFFF" stroke-width="2" cx="14" cy="14" r="13"></circle>
                    <path d="M14,8 C14.5522847,8 15,8.44771525 15,9 L15,12.999 L19,13 C19.5522847,13 20,13.4477153 20,14 C20,14.5522847 19.5522847,15 19,15 L15,14.999 L15,19 C15,19.5522847 14.5522847,20 14,20 C13.4477153,20 13,19.5522847 13,19 L13,14.999 L9,15 C8.44771525,15 8,14.5522847 8,14 C8,13.4477153 8.44771525,13 9,13 L13,12.999 L13,9 C13,8.44771525 13.4477153,8 14,8 Z" id="形状结合" fill="#FFFFFF" transform="translate(14.000000, 14.000000) rotate(-315.000000) translate(-14.000000, -14.000000) "></path>
                </g>
            </g>
        </g>
    </g>
</svg>