<svg width="32" height="32" viewBox="0 0 32 32" fill="none" xmlns="http://www.w3.org/2000/svg">
<path d="M19.5 7H13.5C9.63401 7 6.5 10.134 6.5 14V18C6.5 21.866 9.63401 25 13.5 25H17.5C21.366 25 24.5 21.866 24.5 18V16" stroke="white" stroke-width="2"/>
<path d="M12.0815 14.3309C11.769 14.0185 11.2625 14.0185 10.9501 14.3309L10.6672 14.6137C10.3548 14.9262 10.3548 15.4327 10.6672 15.7451L13.0124 18.0902C14.184 19.2618 16.0834 19.2618 17.255 18.0903L24.7658 10.5795C25.0782 10.2671 25.0782 9.76056 24.7658 9.44814L24.483 9.16529C24.1705 8.85288 23.664 8.85288 23.3516 9.16529L15.8408 16.6761C15.4503 17.0666 14.8171 17.0666 14.4266 16.6761L12.0815 14.3309Z" fill="white"/>
</svg>
