<svg width="32" height="32" viewBox="0 0 32 32" fill="none" xmlns="http://www.w3.org/2000/svg">
<path d="M25.5 13V18C25.5 21.866 22.366 25 18.5 25H14.5C10.634 25 7.5 21.866 7.5 18V14C7.5 10.134 10.634 7 14.5 7H20.5" stroke="white" stroke-width="2"/>
<path d="M20.1769 13.7367C20.4893 13.4243 20.4893 12.9178 20.1769 12.6054L19.8941 12.3225C19.5817 12.0101 19.0751 12.0101 18.7627 12.3225L17.2071 13.8782C16.8166 14.2687 16.1834 14.2687 15.7929 13.8782L14.2372 12.3225C13.9248 12.0101 13.4183 12.0101 13.1059 12.3225L12.823 12.6054C12.5106 12.9178 12.5106 13.4243 12.823 13.7367L14.3786 15.2924C14.7692 15.6829 14.7692 16.3161 14.3786 16.7066L12.823 18.2622C12.5106 18.5746 12.5106 19.0812 12.823 19.3936L13.1059 19.6764C13.4183 19.9889 13.9248 19.9889 14.2372 19.6764L15.7929 18.1208C16.1834 17.7303 16.8166 17.7303 17.2071 18.1208L18.7627 19.6764C19.0751 19.9889 19.5817 19.9889 19.8941 19.6764L20.1769 19.3936C20.4893 19.0812 20.4893 18.5746 20.1769 18.2622L18.6213 16.7066C18.2308 16.3161 18.2308 15.6829 18.6213 15.2924L20.1769 13.7367Z" fill="white"/>
</svg>
