<svg width="32" height="32" viewBox="0 0 32 32" fill="none" xmlns="http://www.w3.org/2000/svg">
<path d="M25.5 13V18C25.5 21.866 22.366 25 18.5 25H14.5C10.634 25 7.5 21.866 7.5 18V14C7.5 10.134 10.634 7 14.5 7H20.5" stroke="white" stroke-width="2"/>
<path d="M16.5 11.8C16.5 11.3582 16.1418 11 15.7 11H15.3C14.8582 11 14.5 11.3582 14.5 11.8V14.8431C14.5 15.904 14.9214 16.9214 15.6716 17.6716L18.2494 20.2494C18.5553 20.5553 19.049 20.5626 19.3639 20.2658L19.6992 19.9496C20.0274 19.6402 20.035 19.1208 19.7161 18.8019L16.7929 15.8787C16.6054 15.6911 16.5 15.4368 16.5 15.1716V11.8Z" fill="white"/>
</svg>
