<svg width="201" height="209" viewBox="0 0 201 209" fill="none" xmlns="http://www.w3.org/2000/svg">
<path opacity="0.344509" fill-rule="evenodd" clip-rule="evenodd" d="M98.3154 1.53713L201 0.967023V161L98.3154 131.257V1.53713Z" fill="url(#paint0_linear_947_45087)"/>
<path opacity="0.344509" fill-rule="evenodd" clip-rule="evenodd" d="M90.2832 9.00007L0.000366211 6.68201V156.5L90.2832 127.72V9.00007Z" fill="url(#paint1_linear_947_45087)"/>
<g filter="url(#filter0_f_947_45087)">
<path d="M151.252 83.7131L149.439 81.4908V145.668L151.252 146.116V83.7131Z" fill="url(#paint2_linear_947_45087)"/>
</g>
<g filter="url(#filter1_f_947_45087)">
<path d="M90.4256 62.1845L87.7784 63.2871L148.452 82.3417L150.764 80.9864L90.4256 62.1845Z" fill="url(#paint3_linear_947_45087)"/>
</g>
<path opacity="0.5" fill-rule="evenodd" clip-rule="evenodd" d="M103.692 133.948C106.698 133.77 109.712 134.109 112.603 134.951L151.693 146.338L128.958 157.187L80.4766 135.325L103.692 133.948Z" fill="url(#paint4_linear_947_45087)"/>
<path d="M128.951 157.204L149.899 146.83V146.079L110.905 131.619L65.2471 134.908V136.368L128.951 157.204Z" fill="#979797" fill-opacity="0.8"/>
<path d="M65.2432 71.8647L128.932 91.344V155.82L65.2985 135.404L65.2432 71.8647Z" fill="url(#paint5_linear_947_45087)"/>
<path d="M86.2035 78.6349V87.1842L66.8553 97.2113L66.7734 73.3875L86.2035 78.6349Z" fill="url(#paint6_linear_947_45087)"/>
<g opacity="0.235529">
<g filter="url(#filter2_i_947_45087)">
<path d="M65.6924 94.6638C65.6924 94.0687 66.2728 93.6466 66.839 93.83L128.775 113.897C129.136 114.014 129.381 114.351 129.381 114.731V115.412C129.381 116.008 128.801 116.43 128.235 116.246L66.2987 96.1792C65.9372 96.0621 65.6924 95.7254 65.6924 95.3454V94.6638Z" fill="#B1B4B7"/>
</g>
<path d="M66.9741 93.4131C66.1248 93.1379 65.2541 93.7711 65.2541 94.6638V95.3454C65.2541 95.9154 65.6214 96.4204 66.1636 96.5961L128.1 116.663C128.949 116.938 129.82 116.305 129.82 115.412V114.731C129.82 114.161 129.452 113.656 128.91 113.48L66.9741 93.4131Z" stroke="white" stroke-width="0.876486"/>
</g>
<g opacity="0.235529">
<g filter="url(#filter3_i_947_45087)">
<path d="M65.2432 116.049C65.2432 115.455 65.8206 115.033 66.386 115.213L128.322 134.967C128.685 135.083 128.932 135.42 128.932 135.802V136.486C128.932 137.08 128.355 137.501 127.789 137.321L65.8533 117.568C65.4899 117.452 65.2432 117.114 65.2432 116.733V116.049Z" fill="#B1B4B7"/>
</g>
<path d="M66.5191 114.796C65.671 114.525 64.8049 115.158 64.8049 116.049V116.733C64.8049 117.305 65.175 117.812 65.7202 117.985L127.656 137.739C128.504 138.009 129.37 137.376 129.37 136.486V135.802C129.37 135.23 129 134.723 128.455 134.549L66.5191 114.796Z" stroke="white" stroke-width="0.876486"/>
</g>
<path d="M69.0176 91.4204L84.8811 85.1955L129.615 98.7805L114.641 105.854L69.0176 91.4204Z" fill="url(#paint7_linear_947_45087)"/>
<path d="M91.8389 79.7252L128.9 90.9729L128.9 98.9796L91.8389 87.4767L91.8389 79.7252Z" fill="url(#paint8_linear_947_45087)"/>
<path d="M112.747 104.582L148.838 86.4771V98.9042L112.747 117.009V104.582Z" fill="url(#paint9_linear_947_45087)"/>
<g filter="url(#filter4_d_947_45087)">
<path d="M114.151 105.472L148.966 87.9735V102.592L114.151 120.091V105.472Z" fill="url(#paint10_linear_947_45087)"/>
</g>
<path d="M122.666 101.193L148.966 87.9663V102.585L122.666 115.812V101.193Z" fill="url(#paint11_linear_947_45087)"/>
<path d="M128.862 90.8016L149.902 81.2684L149.902 146.326L128.927 156.585L128.862 90.8016Z" fill="url(#paint12_linear_947_45087)"/>
<path d="M66.5658 71.8061L88.2502 63.2442L148.663 81.356L128.938 90.3214L66.5658 71.8061Z" fill="url(#paint13_linear_947_45087)" stroke="url(#paint14_linear_947_45087)" stroke-width="0.876486"/>
<path fill-rule="evenodd" clip-rule="evenodd" d="M129.829 90.0892V156.145L128.93 156.579L103.733 147.821L128.43 155.592V90.7638L66.2957 73.0633V134.81L65.3484 134.48L65.2441 71.8618L66.3909 71.3853L129.829 90.0892Z" fill="white"/>
<path d="M65.2432 73.0298L66.7966 73.4181V135.004L65.2432 134.502V73.0298Z" fill="url(#paint15_linear_947_45087)"/>
<path d="M65.2432 73.0298V71.8647L128.932 90.8533V92.4067L65.2432 73.0298Z" fill="url(#paint16_linear_947_45087)"/>
<path d="M65.2432 135.783V134.502L128.932 155.04V156.593L65.2432 135.783Z" fill="url(#paint17_linear_947_45087)"/>
<path d="M127.379 90.465L128.932 90.8533V156.593L127.379 156.101V90.465Z" fill="url(#paint18_linear_947_45087)"/>
<path d="M54.8506 84.5128L75.8476 76.255L78.9934 77.1929L58.2152 85.4107L54.8506 84.5128Z" fill="url(#paint19_linear_947_45087)"/>
<path d="M54.958 85.9971L77.8396 76.8438L82.1118 78.2728L81.4618 81.6134L54.958 91.1695V85.9971Z" fill="white"/>
<path d="M56.6924 85.7895L78.3865 77.0244L91.8535 81.1239V87.5025L56.6924 100.59V85.7895Z" fill="url(#paint20_linear_947_45087)"/>
<path d="M74.3506 78.7223L78.3865 77.0244L91.8535 81.1239V87.5025L74.3506 94.058V78.7223Z" fill="url(#paint21_linear_947_45087)"/>
<path d="M114.146 121.684L112.364 122.863L48.7207 101.612V83.4385L51.4172 82.8638L114.146 101.612V121.684Z" fill="url(#paint22_linear_947_45087)"/>
<path d="M49.1502 102.459V84.1762L111.911 103.105V122.409L49.1502 102.459Z" fill="url(#paint23_linear_947_45087)" stroke="white" stroke-width="0.876486"/>
<path d="M78.5375 97.5357C77.9649 97.1553 78.3889 96.2684 79.0444 96.4752L86.0698 98.6913C86.1229 98.708 86.1733 98.7321 86.2197 98.7629C86.7923 99.1433 86.3683 100.03 85.7127 99.8234L78.6873 97.6073C78.6343 97.5906 78.5838 97.5665 78.5375 97.5357Z" fill="#D6D6DE"/>
<path d="M93.2463 130.773C92.6737 130.393 93.0978 129.506 93.7534 129.713L100.779 131.929C100.832 131.946 100.882 131.97 100.928 132.001C101.501 132.381 101.077 133.268 100.421 133.061L93.3962 130.845C93.3431 130.828 93.2927 130.804 93.2463 130.773Z" fill="#D6D6DE"/>
<path d="M104.25 86.8749C71.7873 94.6757 73.7614 79.358 79.7505 78.7498C84.7874 78.2384 85.1254 85.8749 79.7504 86.8749C69.1128 88.8539 51.6666 95.5462 46.1708 103.788" stroke="url(#paint24_linear_947_45087)" stroke-width="0.876486"/>
<g filter="url(#filter5_d_947_45087)">
<path d="M44.0594 109.088C44.7836 109.722 44.6001 110.472 44.5641 111.127C41.9298 124.653 31.2008 120.589 27.0723 126.62C24.9389 114.04 36.0611 107.704 44.0594 109.088Z" fill="url(#paint25_linear_947_45087)"/>
<path d="M27.759 123.906C30.3099 120.891 36.8978 113.647 43.6999 109.271C42.1359 109.345 33.4169 114.411 27.759 123.906Z" fill="#FBFCFF"/>
<path d="M30.6609 123.527C31.8587 122.038 31.9221 120.486 30.4842 120.135C30.5476 120.772 31.0826 120.932 30.6609 123.527Z" fill="#FBFCFF"/>
<path d="M35.9704 118.118C37.1683 116.63 37.2316 115.078 35.7938 114.727C35.8571 115.364 36.3922 115.524 35.9704 118.118Z" fill="#FBFCFF"/>
<path d="M39.1609 115.467C40.3587 113.978 40.4221 112.427 38.9842 112.075C39.0476 112.712 39.5826 112.872 39.1609 115.467Z" fill="#FBFCFF"/>
<path d="M27.9046 120.539C29.1329 119.067 30.8449 118.453 31.7618 119.44C31.0264 119.623 30.6527 119.266 27.9046 120.539Z" fill="#FBFCFF"/>
<path d="M31.5296 116.79C32.7579 115.318 34.4699 114.704 35.3868 115.691C34.6514 115.874 34.2777 115.517 31.5296 116.79Z" fill="#FBFCFF"/>
<path d="M37.3539 111.295C38.8485 110.095 40.6481 109.831 41.3521 110.979C40.5951 111.014 40.2991 110.59 37.3539 111.295Z" fill="#FBFCFF"/>
</g>
<g filter="url(#filter6_d_947_45087)">
<path d="M59.6357 161.511C60.2177 161.011 60.7905 161.266 61.3043 161.388C71.7022 165.439 67.2847 173.6 71.5895 177.811C61.4036 177.774 57.6431 167.827 59.6357 161.511Z" fill="url(#paint26_linear_947_45087)"/>
<path d="M69.5202 176.869C67.4233 174.368 62.4353 167.983 59.7389 161.829C59.6221 163.113 62.6488 170.925 69.5202 176.869Z" fill="#FBFCFF"/>
<path d="M69.5463 174.454C68.5038 173.269 67.2842 172.998 66.8449 174.119C67.3556 174.157 67.5421 173.744 69.5463 174.454Z" fill="#FBFCFF"/>
<path d="M65.8666 169.369C64.8242 168.184 63.6045 167.913 63.1652 169.034C63.6759 169.073 63.8624 168.66 65.8666 169.369Z" fill="#FBFCFF"/>
<path d="M64.1293 166.398C63.0869 165.213 61.8672 164.943 61.4279 166.064C61.9386 166.102 62.1251 165.689 64.1293 166.398Z" fill="#FBFCFF"/>
<path d="M66.8748 176.276C65.8494 175.069 65.5558 173.589 66.4391 172.981C66.5012 173.606 66.1773 173.86 66.8748 176.276Z" fill="#FBFCFF"/>
<path d="M64.3182 172.796C63.2928 171.589 62.9992 170.109 63.8825 169.502C63.9446 170.126 63.6206 170.38 64.3182 172.796Z" fill="#FBFCFF"/>
<path d="M61.1102 167.184C60.0848 165.977 59.7912 164.497 60.6745 163.889C60.7366 164.514 60.4126 164.768 61.1102 167.184Z" fill="#FBFCFF"/>
</g>
<g filter="url(#filter7_d_947_45087)">
<path fill-rule="evenodd" clip-rule="evenodd" d="M138.084 34.077C138.084 33.4937 138.643 33.0732 139.204 33.2349L161.992 39.8135C162.367 39.9218 162.626 40.2651 162.626 40.6556V70.3845C162.626 70.9679 162.066 71.3884 161.506 71.2266L138.717 64.6481C138.342 64.5398 138.084 64.1964 138.084 63.806V34.077Z" fill="white"/>
<path d="M138.522 34.077C138.522 33.7854 138.802 33.5751 139.082 33.656L161.871 40.2345C162.058 40.2887 162.187 40.4604 162.187 40.6556V70.3845C162.187 70.6762 161.908 70.8865 161.628 70.8056L138.839 64.227C138.651 64.1729 138.522 64.0012 138.522 63.806V34.077Z" stroke="url(#paint27_linear_947_45087)" stroke-width="0.876486"/>
</g>
<path d="M142.686 41.1145C142.686 40.6713 143.115 40.3551 143.539 40.4868L157.562 44.85C157.837 44.9355 158.024 45.1898 158.024 45.4777V63.1749C158.024 63.6181 157.595 63.9343 157.172 63.8026L143.148 59.4394C142.873 59.3539 142.686 59.0996 142.686 58.8117V41.1145Z" fill="white" stroke="url(#paint28_linear_947_45087)" stroke-width="0.438243"/>
<g filter="url(#filter8_i_947_45087)">
<path fill-rule="evenodd" clip-rule="evenodd" d="M146.85 48.0876C146.85 47.5083 147.402 47.0883 147.96 47.2429L153.219 48.6985C153.599 48.8036 153.862 49.1492 153.862 49.5432V56.7396C153.862 57.3189 153.31 57.7388 152.751 57.5843L147.492 56.1287C147.113 56.0236 146.85 55.678 146.85 55.284V48.0876Z" fill="url(#paint29_linear_947_45087)"/>
</g>
<defs>
<filter id="filter0_f_947_45087" x="148.563" y="80.6144" width="3.56547" height="66.3785" filterUnits="userSpaceOnUse" color-interpolation-filters="sRGB">
<feFlood flood-opacity="0" result="BackgroundImageFix"/>
<feBlend mode="normal" in="SourceGraphic" in2="BackgroundImageFix" result="shape"/>
<feGaussianBlur stdDeviation="0.438243" result="effect1_foregroundBlur_947_45087"/>
</filter>
<filter id="filter1_f_947_45087" x="86.9018" y="61.308" width="64.7383" height="21.9102" filterUnits="userSpaceOnUse" color-interpolation-filters="sRGB">
<feFlood flood-opacity="0" result="BackgroundImageFix"/>
<feBlend mode="normal" in="SourceGraphic" in2="BackgroundImageFix" result="shape"/>
<feGaussianBlur stdDeviation="0.438243" result="effect1_foregroundBlur_947_45087"/>
</filter>
<filter id="filter2_i_947_45087" x="64.8154" y="92.9095" width="65.4424" height="25.1337" filterUnits="userSpaceOnUse" color-interpolation-filters="sRGB">
<feFlood flood-opacity="0" result="BackgroundImageFix"/>
<feBlend mode="normal" in="SourceGraphic" in2="BackgroundImageFix" result="shape"/>
<feColorMatrix in="SourceAlpha" type="matrix" values="0 0 0 0 0 0 0 0 0 0 0 0 0 0 0 0 0 0 127 0" result="hardAlpha"/>
<feOffset dy="0.876486"/>
<feGaussianBlur stdDeviation="1.31473"/>
<feComposite in2="hardAlpha" operator="arithmetic" k2="-1" k3="1"/>
<feColorMatrix type="matrix" values="0 0 0 0 0.210838 0 0 0 0 0.216821 0 0 0 0 0.306564 0 0 0 1 0"/>
<feBlend mode="normal" in2="shape" result="effect1_innerShadow_947_45087"/>
</filter>
<filter id="filter3_i_947_45087" x="64.3662" y="114.294" width="65.4424" height="24.8225" filterUnits="userSpaceOnUse" color-interpolation-filters="sRGB">
<feFlood flood-opacity="0" result="BackgroundImageFix"/>
<feBlend mode="normal" in="SourceGraphic" in2="BackgroundImageFix" result="shape"/>
<feColorMatrix in="SourceAlpha" type="matrix" values="0 0 0 0 0 0 0 0 0 0 0 0 0 0 0 0 0 0 127 0" result="hardAlpha"/>
<feOffset dy="0.876486"/>
<feGaussianBlur stdDeviation="1.31473"/>
<feComposite in2="hardAlpha" operator="arithmetic" k2="-1" k3="1"/>
<feColorMatrix type="matrix" values="0 0 0 0 0.210838 0 0 0 0 0.216821 0 0 0 0 0.306564 0 0 0 1 0"/>
<feBlend mode="normal" in2="shape" result="effect1_innerShadow_947_45087"/>
</filter>
<filter id="filter4_d_947_45087" x="113.45" y="87.9735" width="35.5156" height="32.1171" filterUnits="userSpaceOnUse" color-interpolation-filters="sRGB">
<feFlood flood-opacity="0" result="BackgroundImageFix"/>
<feColorMatrix in="SourceAlpha" type="matrix" values="0 0 0 0 0 0 0 0 0 0 0 0 0 0 0 0 0 0 127 0" result="hardAlpha"/>
<feOffset dx="-0.701189"/>
<feComposite in2="hardAlpha" operator="out"/>
<feColorMatrix type="matrix" values="0 0 0 0 1 0 0 0 0 1 0 0 0 0 1 0 0 0 1 0"/>
<feBlend mode="normal" in2="BackgroundImageFix" result="effect1_dropShadow_947_45087"/>
<feBlend mode="normal" in="SourceGraphic" in2="effect1_dropShadow_947_45087" result="shape"/>
</filter>
<filter id="filter5_d_947_45087" x="26.8057" y="108.901" width="30.4658" height="34.5992" filterUnits="userSpaceOnUse" color-interpolation-filters="sRGB">
<feFlood flood-opacity="0" result="BackgroundImageFix"/>
<feColorMatrix in="SourceAlpha" type="matrix" values="0 0 0 0 0 0 0 0 0 0 0 0 0 0 0 0 0 0 127 0" result="hardAlpha"/>
<feOffset dx="7.3851" dy="11.6052"/>
<feGaussianBlur stdDeviation="2.63753"/>
<feComposite in2="hardAlpha" operator="out"/>
<feColorMatrix type="matrix" values="0 0 0 0 0 0 0 0 0 0 0 0 0 0 0 0 0 0 0.03 0"/>
<feBlend mode="normal" in2="BackgroundImageFix" result="effect1_dropShadow_947_45087"/>
<feBlend mode="normal" in="SourceGraphic" in2="effect1_dropShadow_947_45087" result="shape"/>
</filter>
<filter id="filter6_d_947_45087" x="59.1211" y="161.214" width="27.369" height="28.8681" filterUnits="userSpaceOnUse" color-interpolation-filters="sRGB">
<feFlood flood-opacity="0" result="BackgroundImageFix"/>
<feColorMatrix in="SourceAlpha" type="matrix" values="0 0 0 0 0 0 0 0 0 0 0 0 0 0 0 0 0 0 127 0" result="hardAlpha"/>
<feOffset dx="11.3943" dy="8.76486"/>
<feGaussianBlur stdDeviation="1.75297"/>
<feComposite in2="hardAlpha" operator="out"/>
<feColorMatrix type="matrix" values="0 0 0 0 0 0 0 0 0 0 0 0 0 0 0 0 0 0 0.02 0"/>
<feBlend mode="normal" in2="BackgroundImageFix" result="effect1_dropShadow_947_45087"/>
<feBlend mode="normal" in="SourceGraphic" in2="effect1_dropShadow_947_45087" result="shape"/>
</filter>
<filter id="filter7_d_947_45087" x="137.207" y="32.3235" width="26.295" height="39.8146" filterUnits="userSpaceOnUse" color-interpolation-filters="sRGB">
<feFlood flood-opacity="0" result="BackgroundImageFix"/>
<feColorMatrix in="SourceAlpha" type="matrix" values="0 0 0 0 0 0 0 0 0 0 0 0 0 0 0 0 0 0 127 0" result="hardAlpha"/>
<feOffset/>
<feGaussianBlur stdDeviation="0.438243"/>
<feColorMatrix type="matrix" values="0 0 0 0 0 0 0 0 0 0 0 0 0 0 0 0 0 0 0.0557033 0"/>
<feBlend mode="normal" in2="BackgroundImageFix" result="effect1_dropShadow_947_45087"/>
<feBlend mode="normal" in="SourceGraphic" in2="effect1_dropShadow_947_45087" result="shape"/>
</filter>
<filter id="filter8_i_947_45087" x="146.85" y="47.2106" width="7.01172" height="10.406" filterUnits="userSpaceOnUse" color-interpolation-filters="sRGB">
<feFlood flood-opacity="0" result="BackgroundImageFix"/>
<feBlend mode="normal" in="SourceGraphic" in2="BackgroundImageFix" result="shape"/>
<feColorMatrix in="SourceAlpha" type="matrix" values="0 0 0 0 0 0 0 0 0 0 0 0 0 0 0 0 0 0 127 0" result="hardAlpha"/>
<feOffset dx="0.876486"/>
<feComposite in2="hardAlpha" operator="arithmetic" k2="-1" k3="1"/>
<feColorMatrix type="matrix" values="0 0 0 0 0.886111 0 0 0 0 0.892901 0 0 0 0 0.916667 0 0 0 1 0"/>
<feBlend mode="normal" in2="shape" result="effect1_innerShadow_947_45087"/>
</filter>
<linearGradient id="paint0_linear_947_45087" x1="121.5" y1="65.5" x2="86.4747" y2="97.6682" gradientUnits="userSpaceOnUse">
<stop stop-color="white" stop-opacity="0"/>
<stop offset="1" stop-color="#E0E2E8"/>
</linearGradient>
<linearGradient id="paint1_linear_947_45087" x1="40.5004" y1="57.0001" x2="91.6404" y2="83.2655" gradientUnits="userSpaceOnUse">
<stop stop-color="white" stop-opacity="0"/>
<stop offset="0.822917" stop-color="#EAECF2"/>
</linearGradient>
<linearGradient id="paint2_linear_947_45087" x1="144.534" y1="96.5729" x2="158.72" y2="96.4914" gradientUnits="userSpaceOnUse">
<stop offset="0.0592157" stop-color="#BABBCA" stop-opacity="0.500611"/>
<stop offset="0.804669" stop-color="white" stop-opacity="0.01"/>
</linearGradient>
<linearGradient id="paint3_linear_947_45087" x1="100.278" y1="73.1083" x2="104.251" y2="59.4887" gradientUnits="userSpaceOnUse">
<stop offset="0.0592157" stop-color="#BABBCA" stop-opacity="0.500611"/>
<stop offset="0.804669" stop-color="white" stop-opacity="0.01"/>
</linearGradient>
<linearGradient id="paint4_linear_947_45087" x1="149.445" y1="144.352" x2="152.831" y2="143.8" gradientUnits="userSpaceOnUse">
<stop stop-color="#BABBCA" stop-opacity="0.500611"/>
<stop offset="1" stop-color="white" stop-opacity="0.01"/>
</linearGradient>
<linearGradient id="paint5_linear_947_45087" x1="106.242" y1="101.264" x2="97.0876" y2="144.817" gradientUnits="userSpaceOnUse">
<stop offset="0.229599" stop-color="#FBFBFB"/>
<stop offset="0.510417" stop-color="#F2F4FB"/>
<stop offset="0.729036" stop-color="#FBFBFB"/>
<stop offset="1" stop-color="#F0F1F7"/>
</linearGradient>
<linearGradient id="paint6_linear_947_45087" x1="66.8553" y1="84.2594" x2="77.9195" y2="75.0044" gradientUnits="userSpaceOnUse">
<stop stop-color="#CACCD7"/>
<stop offset="1" stop-color="#DFE3F3"/>
</linearGradient>
<linearGradient id="paint7_linear_947_45087" x1="104.128" y1="89.9722" x2="99.9631" y2="98.1367" gradientUnits="userSpaceOnUse">
<stop stop-color="#C8CBD5"/>
<stop offset="1" stop-color="#E9EBF3"/>
</linearGradient>
<linearGradient id="paint8_linear_947_45087" x1="87.4377" y1="83.4471" x2="129.473" y2="88.7489" gradientUnits="userSpaceOnUse">
<stop stop-color="#E7E9F2"/>
<stop offset="1" stop-color="#CACCD7"/>
</linearGradient>
<linearGradient id="paint9_linear_947_45087" x1="127.893" y1="98.1987" x2="117.682" y2="110.262" gradientUnits="userSpaceOnUse">
<stop stop-color="#E6E6F2"/>
<stop offset="0.802083" stop-color="#FBFBFF"/>
</linearGradient>
<linearGradient id="paint10_linear_947_45087" x1="126.884" y1="111.318" x2="117.329" y2="112.649" gradientUnits="userSpaceOnUse">
<stop stop-color="#E2E4EE"/>
<stop offset="1" stop-color="#F1F1F8"/>
</linearGradient>
<linearGradient id="paint11_linear_947_45087" x1="128.739" y1="109.772" x2="122.794" y2="110.142" gradientUnits="userSpaceOnUse">
<stop stop-color="#ABAEBF"/>
<stop offset="1" stop-color="#F1F1F8" stop-opacity="0"/>
</linearGradient>
<linearGradient id="paint12_linear_947_45087" x1="128.932" y1="156.597" x2="146.022" y2="157.641" gradientUnits="userSpaceOnUse">
<stop stop-color="#F5F6F7"/>
<stop offset="1" stop-color="#E9EAF2"/>
</linearGradient>
<linearGradient id="paint13_linear_947_45087" x1="76.7085" y1="63.5895" x2="138.705" y2="72.7633" gradientUnits="userSpaceOnUse">
<stop stop-color="#EFF1F8"/>
<stop offset="1" stop-color="#FBFBFF"/>
</linearGradient>
<linearGradient id="paint14_linear_947_45087" x1="138.685" y1="79.9254" x2="136.578" y2="76.765" gradientUnits="userSpaceOnUse">
<stop stop-color="white"/>
<stop offset="1" stop-color="white" stop-opacity="0"/>
</linearGradient>
<linearGradient id="paint15_linear_947_45087" x1="65.2432" y1="113" x2="136.947" y2="130.218" gradientUnits="userSpaceOnUse">
<stop stop-color="#E3E5F2"/>
<stop offset="1" stop-color="#D7D9E6"/>
</linearGradient>
<linearGradient id="paint16_linear_947_45087" x1="65.2432" y1="113" x2="136.947" y2="130.218" gradientUnits="userSpaceOnUse">
<stop stop-color="#E3E5F2"/>
<stop offset="1" stop-color="#D7D9E6"/>
</linearGradient>
<linearGradient id="paint17_linear_947_45087" x1="65.2432" y1="113" x2="136.947" y2="130.218" gradientUnits="userSpaceOnUse">
<stop stop-color="#E3E5F2"/>
<stop offset="1" stop-color="#D7D9E6"/>
</linearGradient>
<linearGradient id="paint18_linear_947_45087" x1="65.2432" y1="113" x2="136.947" y2="130.218" gradientUnits="userSpaceOnUse">
<stop stop-color="#E3E5F2"/>
<stop offset="1" stop-color="#D7D9E6"/>
</linearGradient>
<linearGradient id="paint19_linear_947_45087" x1="80.0172" y1="75.3642" x2="62.1981" y2="93.8931" gradientUnits="userSpaceOnUse">
<stop stop-color="#E5E7F4"/>
<stop offset="1" stop-color="#EFEFF5"/>
</linearGradient>
<linearGradient id="paint20_linear_947_45087" x1="83.5109" y1="81.617" x2="72.6844" y2="92.3663" gradientUnits="userSpaceOnUse">
<stop stop-color="#DFDFEC"/>
<stop offset="0.99435" stop-color="#F3F4F9"/>
</linearGradient>
<linearGradient id="paint21_linear_947_45087" x1="90.0235" y1="90.5701" x2="70.8709" y2="92.1168" gradientUnits="userSpaceOnUse">
<stop stop-color="#D6D7DE" stop-opacity="0.36"/>
<stop offset="0.391352" stop-color="#D4D4DB" stop-opacity="0.55"/>
<stop offset="0.99435" stop-color="#F3F4F9" stop-opacity="0"/>
</linearGradient>
<linearGradient id="paint22_linear_947_45087" x1="64.4651" y1="82.3964" x2="58.467" y2="97.5564" gradientUnits="userSpaceOnUse">
<stop stop-color="#EEF0F8"/>
<stop offset="1" stop-color="#C5C8D4"/>
</linearGradient>
<linearGradient id="paint23_linear_947_45087" x1="89.2271" y1="99.1818" x2="87.5291" y2="114.047" gradientUnits="userSpaceOnUse">
<stop stop-color="#FBFBFB"/>
<stop offset="1" stop-color="#F7F8FD"/>
</linearGradient>
<linearGradient id="paint24_linear_947_45087" x1="37.4528" y1="99.7608" x2="105.182" y2="95.3081" gradientUnits="userSpaceOnUse">
<stop stop-color="white" stop-opacity="0"/>
<stop offset="0.36412" stop-color="#C9CBD6"/>
<stop offset="0.632924" stop-color="#C9CBD6"/>
<stop offset="0.891895" stop-color="#C9CBD6"/>
<stop offset="1" stop-color="#C9CBD6" stop-opacity="0"/>
</linearGradient>
<linearGradient id="paint25_linear_947_45087" x1="36.0409" y1="123.689" x2="37.6571" y2="109.165" gradientUnits="userSpaceOnUse">
<stop stop-color="#EFF1F9"/>
<stop offset="1" stop-color="#C6C8D3"/>
</linearGradient>
<linearGradient id="paint26_linear_947_45087" x1="70.2791" y1="170.097" x2="58.8529" y2="167.231" gradientUnits="userSpaceOnUse">
<stop stop-color="#EFF1F9"/>
<stop offset="1" stop-color="#C6C8D3"/>
</linearGradient>
<linearGradient id="paint27_linear_947_45087" x1="137.109" y1="39.6419" x2="154.998" y2="74.8497" gradientUnits="userSpaceOnUse">
<stop stop-color="#F6F7FA"/>
<stop offset="1" stop-color="#E9EBF2"/>
</linearGradient>
<linearGradient id="paint28_linear_947_45087" x1="141.84" y1="44.0901" x2="152.665" y2="66.2155" gradientUnits="userSpaceOnUse">
<stop stop-color="#F6F7FA"/>
<stop offset="1" stop-color="#E9EBF2"/>
</linearGradient>
<linearGradient id="paint29_linear_947_45087" x1="147.994" y1="52.3217" x2="152.475" y2="53.7525" gradientUnits="userSpaceOnUse">
<stop stop-color="#F9F9FB"/>
<stop offset="1" stop-color="#EBEDF4"/>
</linearGradient>
</defs>
</svg>
