<svg width="200" height="200" viewBox="0 0 200 200" fill="none" xmlns="http://www.w3.org/2000/svg">
<rect width="200" height="200" fill="white"/>
<path d="M171.693 135.903H31.7686L11.7686 154.87H191.693L171.693 135.903Z" fill="url(#paint0_linear_504_29557)"/>
<g filter="url(#filter0_d_504_29557)">
<path d="M149.043 143.284L135.602 133.923C144.311 130.797 146.382 129.632 155.898 122.413C159.431 125.926 164.038 129.266 169.531 131.771C161.918 140.347 154.184 142.847 149.043 143.284Z" fill="url(#paint1_linear_504_29557)"/>
</g>
<g filter="url(#filter1_d_504_29557)">
<path d="M46.8604 60.0905C44.4891 60.6485 38.1614 60.9437 32.3447 57.7215C37.701 55.127 44.2973 58.2249 46.8604 60.0905Z" fill="#C4C4C4"/>
<path d="M46.8604 60.0905C44.4891 60.6485 38.1614 60.9437 32.3447 57.7215C37.701 55.127 44.2973 58.2249 46.8604 60.0905Z" fill="url(#paint2_linear_504_29557)"/>
<path d="M57.9616 54.8881C54.9663 53.1541 50.1451 47.7285 48.1089 45.2324C37.1698 51.6641 29.5987 51.1977 24.5771 51.0408C27.2449 54.0224 29.9126 56.3239 32.3711 57.7362C34.4634 58.2384 37.0349 57.7545 38.0591 57.4498C44.5619 63.3615 51.4588 58.6322 57.9616 54.8881Z" fill="url(#paint3_linear_504_29557)"/>
</g>
<path d="M42.3023 145.058L55.135 142.044L64.6919 143.41L48.8513 145.676H41.8984L42.3023 145.058Z" fill="url(#paint4_linear_504_29557)"/>
<path d="M38.9849 145.387H48.7889V145.676H38.9849V145.387Z" fill="#C4C4C4"/>
<path d="M48.7973 145.441H38.9593L37.791 130.226H50.0636L48.7973 145.441Z" fill="#F296A4"/>
<path d="M48.7973 145.441H38.9593L37.791 130.226H50.0636L48.7973 145.441Z" fill="url(#paint5_linear_504_29557)"/>
<ellipse cx="43.9268" cy="131.665" rx="7.5" ry="0.743774" fill="url(#paint6_linear_504_29557)"/>
<path d="M46.0949 129.404H41.3775H36.4268V131.665H51.4268V129.404H46.0949Z" fill="url(#paint7_linear_504_29557)"/>
<path d="M51.3182 129.399C51.3199 129.401 51.3213 129.403 51.3225 129.404C51.3213 129.405 51.3199 129.407 51.3182 129.408C51.3034 129.423 51.276 129.442 51.2308 129.464C51.1408 129.507 51.0019 129.552 50.8145 129.596C50.4414 129.684 49.8973 129.763 49.2202 129.83C47.8672 129.965 45.9956 130.048 43.9268 130.048C41.8579 130.048 39.9864 129.965 38.6333 129.83C37.9562 129.763 37.4121 129.684 37.039 129.596C36.8516 129.552 36.7127 129.507 36.6227 129.464C36.5775 129.442 36.5501 129.423 36.5353 129.408C36.5336 129.407 36.5322 129.405 36.531 129.404C36.5322 129.403 36.5336 129.401 36.5353 129.399C36.5501 129.385 36.5775 129.366 36.6227 129.344C36.7127 129.3 36.8516 129.256 37.039 129.212C37.4121 129.124 37.9562 129.045 38.6333 128.978C39.9864 128.843 41.8579 128.76 43.9268 128.76C45.9956 128.76 47.8672 128.843 49.2202 128.978C49.8973 129.045 50.4414 129.124 50.8145 129.212C51.0019 129.256 51.1408 129.3 51.2308 129.344C51.276 129.366 51.3034 129.385 51.3182 129.399Z" fill="#C4C4C4"/>
<path d="M51.3182 129.399C51.3199 129.401 51.3213 129.403 51.3225 129.404C51.3213 129.405 51.3199 129.407 51.3182 129.408C51.3034 129.423 51.276 129.442 51.2308 129.464C51.1408 129.507 51.0019 129.552 50.8145 129.596C50.4414 129.684 49.8973 129.763 49.2202 129.83C47.8672 129.965 45.9956 130.048 43.9268 130.048C41.8579 130.048 39.9864 129.965 38.6333 129.83C37.9562 129.763 37.4121 129.684 37.039 129.596C36.8516 129.552 36.7127 129.507 36.6227 129.464C36.5775 129.442 36.5501 129.423 36.5353 129.408C36.5336 129.407 36.5322 129.405 36.531 129.404C36.5322 129.403 36.5336 129.401 36.5353 129.399C36.5501 129.385 36.5775 129.366 36.6227 129.344C36.7127 129.3 36.8516 129.256 37.039 129.212C37.4121 129.124 37.9562 129.045 38.6333 128.978C39.9864 128.843 41.8579 128.76 43.9268 128.76C45.9956 128.76 47.8672 128.843 49.2202 128.978C49.8973 129.045 50.4414 129.124 50.8145 129.212C51.0019 129.256 51.1408 129.3 51.2308 129.344C51.276 129.366 51.3034 129.385 51.3182 129.399Z" fill="url(#paint8_linear_504_29557)"/>
<path d="M51.3182 129.399C51.3199 129.401 51.3213 129.403 51.3225 129.404C51.3213 129.405 51.3199 129.407 51.3182 129.408C51.3034 129.423 51.276 129.442 51.2308 129.464C51.1408 129.507 51.0019 129.552 50.8145 129.596C50.4414 129.684 49.8973 129.763 49.2202 129.83C47.8672 129.965 45.9956 130.048 43.9268 130.048C41.8579 130.048 39.9864 129.965 38.6333 129.83C37.9562 129.763 37.4121 129.684 37.039 129.596C36.8516 129.552 36.7127 129.507 36.6227 129.464C36.5775 129.442 36.5501 129.423 36.5353 129.408C36.5336 129.407 36.5322 129.405 36.531 129.404C36.5322 129.403 36.5336 129.401 36.5353 129.399C36.5501 129.385 36.5775 129.366 36.6227 129.344C36.7127 129.3 36.8516 129.256 37.039 129.212C37.4121 129.124 37.9562 129.045 38.6333 128.978C39.9864 128.843 41.8579 128.76 43.9268 128.76C45.9956 128.76 47.8672 128.843 49.2202 128.978C49.8973 129.045 50.4414 129.124 50.8145 129.212C51.0019 129.256 51.1408 129.3 51.2308 129.344C51.276 129.366 51.3034 129.385 51.3182 129.399Z" stroke="white" stroke-width="0.2"/>
<path d="M41.253 114.29L39.9093 112.255C39.7947 112.082 39.9452 111.837 40.1123 111.924L41.6024 112.704L42.0056 111.113C42.065 110.876 42.3356 110.875 42.3978 111.11L42.8259 112.742L44.9539 111.168C45.0686 111.083 45.197 111.248 45.1224 111.385L43.5108 114.373L41.6617 114.511C41.5043 114.523 41.3524 114.44 41.253 114.29Z" fill="#F7F7FB"/>
<path d="M50.7292 115.834C50.1479 115.012 49.0914 115.026 48.6329 115.953C48.3637 116.495 48.4286 117.068 48.423 117.653C48.4148 118.516 48.0226 119.073 47.4232 119.328C47.0366 116.922 45.7385 114.479 43.3397 113.969C40.6648 113.4 40.1635 116.399 40.2988 118.496C40.3527 119.328 40.4425 120.156 40.546 120.982C39.9136 120.778 39.3405 120.439 38.9593 119.838C38.6044 119.279 38.6762 118.503 38.2316 118.002C37.5135 117.191 36.6945 117.932 36.4998 118.78C36.2015 120.08 36.8713 121.443 37.8394 122.227C38.7107 122.933 39.781 123.179 40.8568 123.211C40.9092 123.553 40.9603 123.896 41.0128 124.237C41.2669 125.878 41.5196 127.518 41.7737 129.159C41.7972 129.312 41.8262 129.475 41.9298 129.585C42.0596 129.722 42.264 129.73 42.4476 129.73C43.3052 129.73 44.1614 129.73 45.019 129.73C45.2068 129.73 45.4112 129.725 45.5576 129.604C45.5645 129.599 45.57 129.593 45.5755 129.588C45.6874 129.486 45.7385 129.331 45.7854 129.184C46.625 126.524 47.5489 123.798 47.5489 120.959C47.5489 120.91 47.5461 120.857 47.5461 120.806C48.6495 120.638 49.7667 120.207 50.5442 119.376C51.3893 118.471 51.457 116.866 50.7292 115.834Z" fill="url(#paint9_linear_504_29557)"/>
<path d="M124.815 142.55L137.868 139.484L147.589 140.874L131.477 143.178H124.404L124.815 142.55Z" fill="url(#paint10_linear_504_29557)"/>
<path d="M65.8296 141.102C65.8296 139.897 66.8066 138.92 68.0117 138.92H130.811C132.843 138.92 133.772 141.453 132.222 142.767C131.828 143.101 131.328 143.284 130.811 143.284H68.0117C66.8066 143.284 65.8296 142.307 65.8296 141.102Z" fill="#C4C4C4"/>
<path d="M154.069 95.1099C156.898 86.6213 156.689 81.2607 156.689 81.2607C148.912 81.2607 143.559 81.751 137.578 81.2607C138.064 86.9505 140.375 104.968 140.375 104.968H146.119C149.888 104.968 151.95 101.465 154.069 95.1099Z" fill="url(#paint11_linear_504_29557)" stroke="white" stroke-opacity="0.5"/>
<path d="M117.526 59.5022C117.304 56.599 119.6 54.1211 122.511 54.1211L134.078 54.1211C136.132 54.1211 137.852 55.6772 138.058 57.7212L142.267 99.6134C142.488 101.815 143.713 103.791 145.586 104.968H123.781C122.212 104.968 120.909 103.761 120.789 102.197L117.526 59.5022Z" fill="url(#paint12_linear_504_29557)" stroke="white" stroke-opacity="0.5"/>
<path d="M65.0903 67.0791C65.0903 64.3177 67.3289 62.0791 70.0903 62.0791L129.055 62.0791C131.816 62.0791 134.055 64.3177 134.055 67.0791L134.055 138.916C134.055 141.125 132.264 142.916 130.055 142.916H128.786L68.0903 142.916C66.4335 142.916 65.0903 141.573 65.0903 139.916V67.0791Z" fill="#B6B3B3"/>
<path d="M65.0903 67.0791C65.0903 64.3177 67.3289 62.0791 70.0903 62.0791L129.055 62.0791C131.816 62.0791 134.055 64.3177 134.055 67.0791L134.055 138.916C134.055 141.125 132.264 142.916 130.055 142.916H128.786L68.0903 142.916C66.4335 142.916 65.0903 141.573 65.0903 139.916V67.0791Z" fill="url(#paint13_linear_504_29557)"/>
<g filter="url(#filter2_dd_504_29557)">
<path d="M65.1235 67.5107C65.1235 65.8539 66.4667 64.5107 68.1235 64.5107H130.548C132.205 64.5107 133.548 65.8539 133.548 67.5107V139.851C133.548 141.508 132.205 142.851 130.548 142.851H68.1235C66.4667 142.851 65.1235 141.508 65.1235 139.851V67.5107Z" fill="url(#paint14_linear_504_29557)"/>
<path d="M65.6235 67.5107C65.6235 66.13 66.7428 65.0107 68.1235 65.0107H130.548C131.929 65.0107 133.048 66.13 133.048 67.5107V139.851C133.048 141.232 131.929 142.351 130.548 142.351H68.1235C66.7428 142.351 65.6235 141.232 65.6235 139.851V67.5107Z" stroke="white"/>
</g>
<g filter="url(#filter3_d_504_29557)">
<path d="M71.1893 71.3592C71.2084 71.0429 71.4701 70.8037 71.7869 70.8037H128.971C129.302 70.8037 129.571 71.0625 129.571 71.3939C129.571 74.7656 129.571 91.8646 129.571 103.956C129.571 116.09 129.571 134.352 129.571 137.855C129.571 138.187 129.302 138.448 128.971 138.448H70.5922C70.2608 138.448 69.9922 138.187 69.9922 137.855C69.9922 134.352 69.9922 116.09 69.9922 103.956C69.9922 91.8225 70.9912 74.6466 71.1893 71.3592Z" fill="url(#paint15_linear_504_29557)"/>
</g>
<path d="M69.9556 71.054C69.9556 70.7227 70.2242 70.4639 70.5556 70.4639H128.604C128.936 70.4639 129.204 70.7227 129.204 71.054C129.204 74.4257 129.204 91.5247 129.204 103.617C129.204 115.75 129.204 134.013 129.204 137.516C129.204 137.847 128.936 138.108 128.604 138.108H70.5556C70.2242 138.108 69.9556 137.847 69.9556 137.516C69.9556 134.013 69.9556 115.75 69.9556 103.617C69.9556 91.5247 69.9556 74.4257 69.9556 71.054Z" fill="url(#paint16_linear_504_29557)"/>
<path d="M74.317 76.333H129.204C129.204 95.6881 129.204 117.746 129.204 137.102H67.8296C74.4726 117.876 74.317 96.3593 74.317 76.333Z" fill="url(#paint17_linear_504_29557)"/>
<path d="M70.4556 71.054C70.4556 71.0275 70.4651 71.0076 70.4808 70.9923C70.4971 70.9763 70.5221 70.9639 70.5556 70.9639H128.604C128.638 70.9639 128.663 70.9763 128.679 70.9923C128.695 71.0076 128.704 71.0275 128.704 71.054V71.0739V71.0942V71.1147V71.1356V71.1567V71.1782V71.2V71.2221V71.2445V71.2672V71.2902V71.3135V71.3371V71.361V71.3852V71.4098V71.4346V71.4597V71.4851V71.5109V71.5369V71.5632V71.5898V71.6167V71.6439V71.6714V71.6992V71.7273V71.7557V71.7843V71.8133V71.8425V71.872V71.9018V71.9319V71.9623V71.993V72.0239V72.0552V72.0867V72.1185V72.1506V72.1829V72.2155V72.2484V72.2816V72.3151V72.3488V72.3828V72.4171V72.4517V72.4865V72.5216V72.557V72.5926V72.6285V72.6647V72.7011V72.7378V72.7748V72.812V72.8495V72.8873V72.9253V72.9636V73.0021V73.0409V73.08V73.1193V73.1588V73.1987V73.2387V73.2791V73.3197V73.3605V73.4016V73.4429V73.4845V73.5264V73.5685V73.6108V73.6534V73.6962V73.7393V73.7826V73.8261V73.8699V73.914V73.9583V74.0028V74.0476V74.0926V74.1378V74.1833V74.229V74.2749V74.3211V74.3675V74.4141V74.461V74.5081V74.5554V74.603V74.6508V74.6988V74.7471V74.7955V74.8442V74.8931V74.9423V74.9916V75.0412V75.091V75.141V75.1913V75.2417V75.2924V75.3433V75.3944V75.4457V75.4973V75.549V75.601V75.6532V75.7055V75.7581V75.8109V75.8639V75.9172V75.9706V76.0242V76.078V76.1321V76.1863V76.2407V76.2954V76.3502V76.4053V76.4605V76.5159V76.5716V76.6274V76.6834V76.7397V76.7961V76.8527V76.9095V76.9665V77.0236V77.081V77.1386V77.1963V77.2542V77.3124V77.3707V77.4292V77.4878V77.5467V77.6057V77.6649V77.7243V77.7839V77.8437V77.9036V77.9637V78.024V78.0844V78.1451V78.2059V78.2669V78.328V78.3893V78.4508V78.5125V78.5743V78.6363V78.6985V78.7608V78.8233V78.886V78.9488V79.0118V79.075V79.1383V79.2017V79.2654V79.3292V79.3931V79.4572V79.5215V79.5859V79.6504V79.7152V79.78V79.8451V79.9102V79.9756V80.041V80.1067V80.1724V80.2384V80.3044V80.3706V80.437V80.5035V80.5701V80.6369V80.7038V80.7709V80.8381V80.9054V80.9729V81.0405V81.1083V81.1761V81.2442V81.3123V81.3806V81.449V81.5176V81.5862V81.655V81.724V81.793V81.8622V81.9315V82.001V82.0705V82.1402V82.21V82.28V82.35V82.4202V82.4905V82.5609V82.6314V82.702V82.7728V82.8437V82.9147V82.9858V83.057V83.1283V83.1997V83.2713V83.3429V83.4147V83.4865V83.5585V83.6306V83.7028V83.7751V83.8475V83.92V83.9926V84.0653V84.138V84.2109V84.2839V84.357V84.4302V84.5035V84.5769V84.6503V84.7239V84.7976V84.8713V84.9452V85.0191V85.0931V85.1672V85.2414V85.3157V85.39V85.4645V85.539V85.6136V85.6883V85.7631V85.838V85.9129V85.9879V86.063V86.1382V86.2135V86.2888V86.3642V86.4397V86.5152V86.5908V86.6665V86.7423V86.8181V86.894V86.97V87.046V87.1221V87.1983V87.2745V87.3508V87.4272V87.5036V87.5801V87.6566V87.7332V87.8099V87.8866V87.9634V88.0402V88.1171V88.194V88.271V88.3481V88.4252V88.5023V88.5795V88.6568V88.7341V88.8114V88.8888V88.9663V89.0437V89.1213V89.1988V89.2765V89.3541V89.4318V89.5096V89.5873V89.6652V89.743V89.8209V89.8988V89.9768V90.0548V90.1328V90.2109V90.289V90.3671V90.4453V90.5235V90.6017V90.68V90.7582V90.8365V90.9149V90.9932V91.0716V91.15V91.2284V91.3068V91.3853V91.4638V91.5422V91.6208V91.6993V91.7778V91.8564V91.935V92.0136V92.0922V92.1708V92.2494V92.328V92.4067V92.4853V92.564V92.6427V92.7213V92.8V92.8787V92.9574V93.0361V93.1148V93.1935V93.2722V93.3508V93.4295V93.5082V93.5869V93.6656V93.7443V93.8229V93.9016V93.9803V94.0589V94.1375V94.2162V94.2948V94.3734V94.452V94.5306V94.6091V94.6877V94.7662V94.8447V94.9232V95.0017V95.0802V95.1586V95.2371V95.3155V95.3938V95.4722V95.5505V95.6288V95.7071V95.7854V95.8636V95.9418V96.02V96.0981V96.1762V96.2543V96.3323V96.4103V96.4883V96.5662V96.6442V96.722V96.7999V96.8776V96.9554V97.0331V97.1108V97.1884V97.266V97.3436V97.4211V97.4985V97.5759V97.6533V97.7306V97.8079V97.8851V97.9622V98.0394V98.1164V98.1934V98.2704V98.3473V98.4242V98.5009V98.5777V98.6544V98.731V98.8075V98.884V98.9605V99.0369V99.1132V99.1894V99.2656V99.3417V99.4178V99.4938V99.5697V99.6456V99.7213V99.7971V99.8727V99.9483V100.024V100.099V100.175V100.25V100.325V100.4V100.475V100.55V100.625V100.7V100.775V100.849V100.924V100.998V101.073V101.147V101.221V101.295V101.369V101.443V101.517V101.591V101.665V101.738V101.812V101.885V101.958V102.032V102.105V102.178V102.251V102.324V102.396V102.469V102.541V102.614V102.686V102.758V102.831V102.903V102.974V103.046V103.118V103.189V103.261V103.332V103.404V103.475V103.546V103.617V103.688V103.759V103.831V103.902V103.974V104.046V104.118V104.19V104.262V104.334V104.407V104.48V104.552V104.625V104.698V104.771V104.845V104.918V104.992V105.065V105.139V105.213V105.287V105.361V105.435V105.51V105.584V105.659V105.734V105.808V105.883V105.958V106.034V106.109V106.184V106.26V106.335V106.411V106.487V106.563V106.639V106.715V106.791V106.867V106.944V107.02V107.097V107.174V107.25V107.327V107.404V107.481V107.559V107.636V107.713V107.791V107.868V107.946V108.023V108.101V108.179V108.257V108.335V108.413V108.491V108.57V108.648V108.727V108.805V108.884V108.962V109.041V109.12V109.199V109.278V109.357V109.436V109.515V109.594V109.674V109.753V109.832V109.912V109.991V110.071V110.151V110.23V110.31V110.39V110.47V110.55V110.63V110.71V110.79V110.87V110.951V111.031V111.111V111.192V111.272V111.352V111.433V111.514V111.594V111.675V111.756V111.836V111.917V111.998V112.079V112.16V112.241V112.322V112.403V112.484V112.565V112.646V112.727V112.808V112.889V112.97V113.052V113.133V113.214V113.296V113.377V113.458V113.54V113.621V113.703V113.784V113.865V113.947V114.028V114.11V114.191V114.273V114.355V114.436V114.518V114.599V114.681V114.763V114.844V114.926V115.007V115.089V115.171V115.252V115.334V115.416V115.497V115.579V115.66V115.742V115.824V115.905V115.987V116.068V116.15V116.232V116.313V116.395V116.476V116.558V116.639V116.721V116.802V116.884V116.965V117.047V117.128V117.21V117.291V117.372V117.454V117.535V117.616V117.697V117.779V117.86V117.941V118.022V118.103V118.184V118.266V118.347V118.428V118.508V118.589V118.67V118.751V118.832V118.913V118.993V119.074V119.155V119.235V119.316V119.396V119.477V119.557V119.637V119.718V119.798V119.878V119.958V120.039V120.119V120.199V120.278V120.358V120.438V120.518V120.598V120.677V120.757V120.836V120.916V120.995V121.075V121.154V121.233V121.312V121.391V121.47V121.549V121.628V121.707V121.785V121.864V121.943V122.021V122.099V122.178V122.256V122.334V122.412V122.49V122.568V122.646V122.724V122.801V122.879V122.956V123.034V123.111V123.188V123.265V123.342V123.419V123.496V123.573V123.65V123.726V123.803V123.879V123.955V124.031V124.107V124.183V124.259V124.335V124.411V124.486V124.562V124.637V124.712V124.787V124.862V124.937V125.012V125.087V125.161V125.236V125.31V125.384V125.458V125.532V125.606V125.68V125.753V125.827V125.9V125.973V126.046V126.119V126.192V126.265V126.337V126.41V126.482V126.554V126.626V126.698V126.77V126.842V126.913V126.985V127.056V127.127V127.198V127.269V127.339V127.41V127.48V127.55V127.62V127.69V127.76V127.83V127.899V127.969V128.038V128.107V128.176V128.244V128.313V128.381V128.45V128.518V128.586V128.653V128.721V128.789V128.856V128.923V128.99V129.057V129.123V129.19V129.256V129.322V129.388V129.454V129.52V129.585V129.65V129.715V129.78V129.845V129.909V129.974V130.038V130.102V130.166V130.23V130.293V130.356V130.419V130.482V130.545V130.608V130.67V130.732V130.794V130.856V130.917V130.979V131.04V131.101V131.162V131.222V131.283V131.343V131.403V131.463V131.522V131.582V131.641V131.7V131.759V131.817V131.875V131.934V131.992V132.049V132.107V132.164V132.221V132.278V132.335V132.391V132.447V132.503V132.559V132.615V132.67V132.725V132.78V132.835V132.889V132.943V132.997V133.051V133.105V133.158V133.211V133.264V133.317V133.369V133.421V133.473V133.525V133.576V133.627V133.678V133.729V133.78V133.83V133.88V133.93V133.979V134.028V134.077V134.126V134.175V134.223V134.271V134.319V134.366V134.414V134.461V134.507V134.554V134.6V134.646V134.692V134.737V134.783V134.828V134.872V134.917V134.961V135.005V135.048V135.092V135.135V135.178V135.22V135.263V135.305V135.346V135.388V135.429V135.47V135.511V135.551V135.591V135.631V135.67V135.71V135.749V135.787V135.826V135.864V135.902V135.939V135.976V136.013V136.05V136.086V136.123V136.158V136.194V136.229V136.264V136.299V136.333V136.367V136.401V136.434V136.467V136.5V136.533V136.565V136.597V136.629V136.66V136.691V136.722V136.752V136.782V136.812V136.841V136.87V136.899V136.928V136.956V136.984V137.011V137.039V137.066V137.092V137.119V137.145V137.17V137.196V137.221V137.245V137.27V137.294V137.317V137.341V137.364V137.386V137.409V137.431V137.452V137.474V137.495V137.516C128.704 137.563 128.668 137.608 128.604 137.608H70.5556C70.492 137.608 70.4556 137.563 70.4556 137.516V137.495V137.474V137.452V137.431V137.409V137.386V137.364V137.341V137.317V137.294V137.27V137.245V137.221V137.196V137.17V137.145V137.119V137.092V137.066V137.039V137.011V136.984V136.956V136.928V136.899V136.87V136.841V136.812V136.782V136.752V136.722V136.691V136.66V136.629V136.597V136.565V136.533V136.5V136.467V136.434V136.401V136.367V136.333V136.299V136.264V136.229V136.194V136.158V136.123V136.086V136.05V136.013V135.976V135.939V135.902V135.864V135.826V135.787V135.749V135.71V135.67V135.631V135.591V135.551V135.511V135.47V135.429V135.388V135.346V135.305V135.263V135.22V135.178V135.135V135.092V135.048V135.005V134.961V134.917V134.872V134.828V134.783V134.737V134.692V134.646V134.6V134.554V134.507V134.461V134.414V134.366V134.319V134.271V134.223V134.175V134.126V134.077V134.028V133.979V133.93V133.88V133.83V133.78V133.729V133.678V133.627V133.576V133.525V133.473V133.421V133.369V133.317V133.264V133.211V133.158V133.105V133.051V132.997V132.943V132.889V132.835V132.78V132.725V132.67V132.615V132.559V132.503V132.447V132.391V132.335V132.278V132.221V132.164V132.107V132.049V131.992V131.934V131.875V131.817V131.759V131.7V131.641V131.582V131.522V131.463V131.403V131.343V131.283V131.222V131.162V131.101V131.04V130.979V130.917V130.856V130.794V130.732V130.67V130.608V130.545V130.482V130.419V130.356V130.293V130.23V130.166V130.102V130.038V129.974V129.909V129.845V129.78V129.715V129.65V129.585V129.52V129.454V129.388V129.322V129.256V129.19V129.123V129.057V128.99V128.923V128.856V128.789V128.721V128.653V128.586V128.518V128.45V128.381V128.313V128.244V128.176V128.107V128.038V127.969V127.899V127.83V127.76V127.69V127.62V127.55V127.48V127.41V127.339V127.269V127.198V127.127V127.056V126.985V126.913V126.842V126.77V126.698V126.626V126.554V126.482V126.41V126.337V126.265V126.192V126.119V126.046V125.973V125.9V125.827V125.753V125.68V125.606V125.532V125.458V125.384V125.31V125.236V125.161V125.087V125.012V124.937V124.862V124.787V124.712V124.637V124.562V124.486V124.411V124.335V124.259V124.183V124.107V124.031V123.955V123.879V123.803V123.726V123.65V123.573V123.496V123.419V123.342V123.265V123.188V123.111V123.034V122.956V122.879V122.801V122.724V122.646V122.568V122.49V122.412V122.334V122.256V122.178V122.099V122.021V121.943V121.864V121.785V121.707V121.628V121.549V121.47V121.391V121.312V121.233V121.154V121.075V120.995V120.916V120.836V120.757V120.677V120.598V120.518V120.438V120.358V120.278V120.199V120.119V120.039V119.958V119.878V119.798V119.718V119.637V119.557V119.477V119.396V119.316V119.235V119.155V119.074V118.993V118.913V118.832V118.751V118.67V118.589V118.508V118.427V118.347V118.265V118.184V118.103V118.022V117.941V117.86V117.779V117.697V117.616V117.535V117.454V117.372V117.291V117.21V117.128V117.047V116.965V116.884V116.802V116.721V116.639V116.558V116.476V116.395V116.313V116.232V116.15V116.068V115.987V115.905V115.824V115.742V115.66V115.579V115.497V115.416V115.334V115.252V115.171V115.089V115.007V114.926V114.844V114.763V114.681V114.599V114.518V114.436V114.355V114.273V114.191V114.11V114.028V113.947V113.865V113.784V113.703V113.621V113.54V113.458V113.377V113.296V113.214V113.133V113.052V112.97V112.889V112.808V112.727V112.646V112.565V112.484V112.403V112.322V112.241V112.16V112.079V111.998V111.917V111.836V111.756V111.675V111.594V111.514V111.433V111.352V111.272V111.192V111.111V111.031V110.951V110.87V110.79V110.71V110.63V110.55V110.47V110.39V110.31V110.23V110.151V110.071V109.991V109.912V109.832V109.753V109.674V109.594V109.515V109.436V109.357V109.278V109.199V109.12V109.041V108.962V108.884V108.805V108.727V108.648V108.57V108.491V108.413V108.335V108.257V108.179V108.101V108.023V107.946V107.868V107.791V107.713V107.636V107.559V107.481V107.404V107.327V107.25V107.174V107.097V107.02V106.944V106.867V106.791V106.715V106.639V106.563V106.487V106.411V106.335V106.26V106.184V106.109V106.034V105.958V105.883V105.808V105.734V105.659V105.584V105.51V105.435V105.361V105.287V105.213V105.139V105.065V104.992V104.918V104.845V104.771V104.698V104.625V104.552V104.48V104.407V104.334V104.262V104.19V104.118V104.046V103.974V103.902V103.831V103.759V103.688V103.617V71.054Z" stroke="url(#paint18_linear_504_29557)" stroke-opacity="0.4"/>
<path d="M70.4433 71.2044C70.4433 70.6521 70.891 70.2109 71.4433 70.2109H128.204C128.756 70.2109 129.204 70.6537 129.204 71.206C129.204 75.8258 129.204 95.4227 129.204 106.442C129.204 117.911 117.726 132.234 115.747 134.619C115.561 134.843 115.291 134.962 114.999 134.962H60.0684C60.0684 134.962 70.4433 116.187 70.4433 103.636C70.4433 92.7157 70.4433 75.4955 70.4433 71.2044Z" fill="url(#paint19_linear_504_29557)"/>
<path d="M69.9555 70.6409C69.9555 70.0886 70.4032 69.6475 70.9555 69.6475H127.716C128.269 69.6475 128.716 70.0902 128.716 70.6425C128.716 75.2623 128.716 94.8592 128.716 105.878C128.716 117.347 117.238 131.671 115.259 134.055C115.073 134.279 114.803 134.399 114.512 134.399H59.5806C59.5806 134.399 69.9555 115.623 69.9555 103.072C69.9555 92.1522 69.9555 74.932 69.9555 70.6409Z" fill="url(#paint20_linear_504_29557)"/>
<path d="M70.2555 70.6409C70.2555 70.2569 70.5663 69.9475 70.9555 69.9475H127.716C128.105 69.9475 128.416 70.2579 128.416 70.6425V70.6698V70.6974V70.7253V70.7535V70.7821V70.8111V70.8404V70.87V70.8999V70.9302V70.9608V70.9917V71.023V71.0546V71.0865V71.1188V71.1514V71.1843V71.2175V71.2511V71.2849V71.3191V71.3537V71.3885V71.4236V71.4591V71.4949V71.531V71.5674V71.6041V71.6412V71.6785V71.7162V71.7541V71.7924V71.831V71.8698V71.909V71.9485V71.9883V72.0284V72.0688V72.1095V72.1505V72.1917V72.2333V72.2752V72.3173V72.3598V72.4025V72.4456V72.4889V72.5325V72.5764V72.6206V72.6651V72.7098V72.7549V72.8002V72.8458V72.8917V72.9378V72.9843V73.031V73.078V73.1253V73.1728V73.2206V73.2687V73.317V73.3656V73.4145V73.4637V73.5131V73.5628V73.6127V73.663V73.7134V73.7642V73.8152V73.8664V73.9179V73.9697V74.0217V74.074V74.1265V74.1793V74.2323V74.2856V74.3391V74.3929V74.447V74.5012V74.5557V74.6105V74.6655V74.7208V74.7762V74.832V74.8879V74.9441V75.0006V75.0573V75.1142V75.1713V75.2287V75.2863V75.3441V75.4022V75.4605V75.519V75.5777V75.6367V75.6959V75.7553V75.815V75.8748V75.9349V75.9952V76.0557V76.1164V76.1774V76.2386V76.2999V76.3615V76.4233V76.4853V76.5475V76.61V76.6726V76.7354V76.7985V76.8617V76.9252V76.9888V77.0527V77.1167V77.181V77.2454V77.3101V77.3749V77.4399V77.5052V77.5706V77.6362V77.702V77.768V77.8342V77.9005V77.9671V78.0338V78.1007V78.1678V78.2351V78.3026V78.3702V78.438V78.506V78.5742V78.6426V78.7111V78.7798V78.8487V78.9177V78.9869V79.0563V79.1259V79.1956V79.2655V79.3355V79.4057V79.4761V79.5466V79.6173V79.6882V79.7592V79.8304V79.9017V79.9732V80.0448V80.1166V80.1885V80.2606V80.3329V80.4053V80.4778V80.5505V80.6233V80.6963V80.7694V80.8427V80.9161V80.9897V81.0633V81.1372V81.2111V81.2852V81.3595V81.4338V81.5083V81.583V81.6577V81.7326V81.8077V81.8828V81.9581V82.0335V82.109V82.1847V82.2605V82.3364V82.4124V82.4885V82.5648V82.6412V82.7177V82.7943V82.871V82.9478V83.0248V83.1018V83.179V83.2563V83.3336V83.4111V83.4887V83.5664V83.6442V83.7222V83.8002V83.8783V83.9565V84.0348V84.1132V84.1917V84.2703V84.349V84.4278V84.5067V84.5856V84.6647V84.7438V84.8231V84.9024V84.9818V85.0613V85.1409V85.2205V85.3003V85.3801V85.46V85.54V85.6201V85.7002V85.7804V85.8607V85.941V86.0215V86.102V86.1825V86.2632V86.3439V86.4247V86.5055V86.5864V86.6674V86.7484V86.8295V86.9107V86.9919V87.0731V87.1545V87.2359V87.3173V87.3988V87.4804V87.562V87.6436V87.7253V87.8071V87.8889V87.9707V88.0526V88.1345V88.2165V88.2985V88.3806V88.4627V88.5449V88.627V88.7093V88.7915V88.8738V88.9561V89.0385V89.1209V89.2033V89.2858V89.3682V89.4508V89.5333V89.6159V89.6985V89.7811V89.8637V89.9464V90.029V90.1117V90.1944V90.2772V90.3599V90.4427V90.5255V90.6083V90.6911V90.7739V90.8567V90.9395V91.0224V91.1052V91.1881V91.2709V91.3538V91.4367V91.5195V91.6024V91.6853V91.7681V91.851V91.9339V92.0167V92.0996V92.1824V92.2652V92.3481V92.4309V92.5137V92.5965V92.6793V92.762V92.8448V92.9275V93.0102V93.0929V93.1756V93.2583V93.3409V93.4235V93.5061V93.5887V93.6712V93.7537V93.8362V93.9187V94.0011V94.0835V94.1658V94.2482V94.3305V94.4127V94.495V94.5771V94.6593V94.7414V94.8235V94.9055V94.9875V95.0694V95.1513V95.2332V95.315V95.3967V95.4784V95.5601V95.6417V95.7233V95.8048V95.8862V95.9676V96.0489V96.1302V96.2114V96.2926V96.3737V96.4547V96.5357V96.6166V96.6975V96.7782V96.859V96.9396V97.0202V97.1007V97.1811V97.2615V97.3418V97.422V97.5021V97.5822V97.6622V97.7421V97.8219V97.9017V97.9814V98.0609V98.1405V98.2199V98.2992V98.3784V98.4576V98.5367V98.6157V98.6945V98.7733V98.852V98.9306V99.0092V99.0876V99.1659V99.2441V99.3222V99.4003V99.4782V99.556V99.6337V99.7113V99.7888V99.8662V99.9435V100.021V100.098V100.175V100.252V100.328V100.405V100.481V100.558V100.634V100.71V100.786V100.862V100.938V101.014V101.089V101.165V101.24V101.315V101.39V101.465V101.54V101.614V101.689V101.763V101.838V101.912V101.986V102.059V102.133V102.207V102.28V102.353V102.427V102.5V102.572V102.645V102.718V102.79V102.862V102.934V103.006V103.078V103.15V103.221V103.293V103.364V103.435V103.506V103.577V103.647V103.717V103.788V103.858V103.928V103.997V104.067V104.136V104.206V104.275V104.344V104.412V104.481V104.549V104.617V104.685V104.753V104.821V104.888V104.956V105.023V105.09V105.156V105.223V105.289V105.356V105.422V105.487V105.553V105.618V105.684V105.749V105.814V105.878C128.416 111.529 125.583 117.918 122.471 123.222C119.366 128.515 116.013 132.678 115.028 133.863C114.903 134.015 114.719 134.099 114.512 134.099H60.0839C60.1433 133.988 60.2128 133.857 60.2917 133.707C60.5764 133.167 60.9828 132.383 61.4703 131.402C62.4452 129.442 63.7451 126.696 65.0452 123.557C67.6406 117.29 70.2555 109.411 70.2555 103.072V103.008V102.944V102.88V102.815V102.75V102.686V102.621V102.556V102.491V102.425V102.36V102.294V102.229V102.163V102.097V102.031V101.964V101.898V101.831V101.765V101.698V101.631V101.564V101.497V101.43V101.362V101.295V101.227V101.16V101.092V101.024V100.956V100.887V100.819V100.751V100.682V100.613V100.545V100.476V100.407V100.338V100.268V100.199V100.13V100.06V99.9903V99.9205V99.8507V99.7807V99.7106V99.6405V99.5702V99.4998V99.4294V99.3588V99.2881V99.2174V99.1465V99.0756V99.0045V98.9334V98.8622V98.7908V98.7194V98.6479V98.5763V98.5047V98.4329V98.3611V98.2891V98.2171V98.145V98.0729V98.0006V97.9282V97.8558V97.7833V97.7107V97.6381V97.5654V97.4926V97.4197V97.3467V97.2737V97.2006V97.1274V97.0542V96.9809V96.9075V96.834V96.7605V96.6869V96.6133V96.5396V96.4658V96.392V96.3181V96.2441V96.1701V96.096V96.0219V95.9477V95.8734V95.7991V95.7248V95.6504V95.5759V95.5014V95.4268V95.3522V95.2775V95.2028V95.128V95.0532V94.9784V94.9035V94.8285V94.7535V94.6785V94.6034V94.5283V94.4531V94.3779V94.3027V94.2274V94.1521V94.0767V94.0014V93.9259V93.8505V93.775V93.6995V93.624V93.5484V93.4728V93.3971V93.3215V93.2458V93.1701V93.0944V93.0186V92.9428V92.867V92.7912V92.7153V92.6395V92.5636V92.4877V92.4118V92.3358V92.2599V92.1839V92.1079V92.0319V91.9559V91.8799V91.8039V91.7279V91.6518V91.5758V91.4997V91.4236V91.3476V91.2715V91.1954V91.1194V91.0433V90.9672V90.8911V90.815V90.739V90.6629V90.5868V90.5108V90.4347V90.3586V90.2826V90.2066V90.1305V90.0545V89.9785V89.9025V89.8265V89.7505V89.6746V89.5986V89.5227V89.4468V89.3709V89.295V89.2192V89.1433V89.0675V88.9917V88.916V88.8402V88.7645V88.6888V88.6131V88.5375V88.4619V88.3863V88.3107V88.2352V88.1597V88.0842V88.0088V87.9334V87.858V87.7827V87.7074V87.6321V87.5569V87.4817V87.4066V87.3315V87.2564V87.1814V87.1064V87.0315V86.9566V86.8818V86.807V86.7323V86.6576V86.5829V86.5083V86.4338V86.3593V86.2848V86.2105V86.1361V86.0619V85.9876V85.9135V85.8394V85.7653V85.6913V85.6174V85.5435V85.4697V85.396V85.3223V85.2487V85.1751V85.1017V85.0283V84.9549V84.8816V84.8084V84.7353V84.6622V84.5892V84.5163V84.4435V84.3707V84.298V84.2254V84.1529V84.0804V84.008V83.9357V83.8635V83.7913V83.7193V83.6473V83.5754V83.5036V83.4319V83.3603V83.2887V83.2173V83.1459V83.0747V83.0035V82.9324V82.8614V82.7905V82.7197V82.649V82.5784V82.5078V82.4374V82.3671V82.2969V82.2268V82.1567V82.0868V82.017V81.9473V81.8777V81.8082V81.7388V81.6695V81.6004V81.5313V81.4623V81.3935V81.3248V81.2561V81.1876V81.1192V81.051V80.9828V80.9148V80.8469V80.779V80.7114V80.6438V80.5764V80.509V80.4418V80.3748V80.3078V80.241V80.1743V80.1077V80.0413V79.975V79.9088V79.8427V79.7768V79.711V79.6454V79.5799V79.5145V79.4492V79.3841V79.3192V79.2543V79.1896V79.1251V79.0607V78.9964V78.9323V78.8683V78.8044V78.7407V78.6772V78.6138V78.5505V78.4874V78.4245V78.3617V78.299V78.2365V78.1742V78.112V78.05V77.9881V77.9263V77.8648V77.8034V77.7421V77.681V77.6201V77.5593V77.4987V77.4383V77.378V77.3179V77.258V77.1982V77.1386V77.0791V77.0199V76.9608V76.9018V76.8431V76.7845V76.7261V76.6678V76.6098V76.5519V76.4942V76.4367V76.3793V76.3222V76.2652V76.2084V76.1517V76.0953V76.039V75.983V75.9271V75.8714V75.8159V75.7605V75.7054V75.6505V75.5957V75.5411V75.4868V75.4326V75.3786V75.3248V75.2712V75.2179V75.1647V75.1117V75.0589V75.0063V74.9539V74.9017V74.8497V74.7979V74.7463V74.695V74.6438V74.5928V74.5421V74.4915V74.4412V74.3911V74.3412V74.2915V74.242V74.1927V74.1437V74.0948V74.0462V73.9978V73.9496V73.9017V73.8539V73.8064V73.7591V73.712V73.6652V73.6185V73.5721V73.5259V73.48V73.4343V73.3888V73.3435V73.2985V73.2537V73.2091V73.1647V73.1206V73.0768V73.0331V72.9897V72.9466V72.9037V72.861V72.8185V72.7763V72.7344V72.6927V72.6512V72.61V72.569V72.5282V72.4877V72.4475V72.4075V72.3678V72.3283V72.289V72.25V72.2113V72.1728V72.1346V72.0966V72.0589V72.0214V71.9842V71.9473V71.9106V71.8742V71.838V71.8021V71.7665V71.7311V71.696V71.6612V71.6266V71.5923V71.5582V71.5245V71.491V71.4577V71.4248V71.3921V71.3597V71.3276V71.2957V71.2641V71.2328V71.2018V71.171V71.1406V71.1104V71.0805V71.0508V71.0215V70.9924V70.9637V70.9352V70.907V70.879V70.8514V70.8241V70.797V70.7703V70.7438V70.7176V70.6918V70.6662V70.6409Z" stroke="white" stroke-opacity="0.5" stroke-width="0.6"/>
<g filter="url(#filter4_f_504_29557)">
<path d="M81.9221 95.7507C82.0347 95.5086 82.2394 95.3216 82.4906 95.2313L126.701 79.3376C127.353 79.1033 128.04 79.5825 128.04 80.2749C128.04 83.1561 128.04 90.234 128.04 99.7323C128.04 112.283 123.736 116.832 116.306 122.524C106.335 130.163 93.1915 131.832 92.2808 131.94C92.2447 131.944 92.2125 131.946 92.1761 131.946H66.6582C65.9272 131.946 65.4432 131.187 65.7515 130.524L81.9221 95.7507Z" fill="url(#paint21_linear_504_29557)"/>
</g>
<path d="M92.0739 93.1853C92.1748 92.9683 92.3503 92.7947 92.5683 92.696L127.304 76.9723C127.966 76.6727 128.717 77.1559 128.717 77.8826C128.717 82.1394 128.717 94.0873 128.717 99.9957C128.717 107.261 123.735 114.309 116.305 120.001C106.335 127.64 93.1911 129.309 92.2804 129.416C92.2443 129.421 92.2121 129.422 92.1758 129.422H76.7905C76.0595 129.422 75.5755 128.663 75.8838 128L92.0739 93.1853Z" fill="url(#paint22_linear_504_29557)"/>
<path d="M69.9561 70.1509C69.9561 69.5986 70.4038 69.1514 70.9561 69.1514H127.717C128.269 69.1514 128.717 69.5883 128.717 70.1406C128.717 74.1106 128.717 89.1917 128.717 100.004C128.717 112.556 113.812 114.052 107.754 112.159C104.761 128.473 86.6684 129.408 86.2341 129.428C86.2205 129.429 86.2194 129.428 86.2057 129.428H48.7699C48.7699 129.428 69.9561 119.382 69.9561 86.3955C69.9561 84.5109 69.9561 73.5432 69.9561 70.1509Z" fill="url(#paint23_linear_504_29557)"/>
<g filter="url(#filter5_i_504_29557)">
<circle cx="83.8814" cy="98.5674" r="3.52153" fill="url(#paint24_linear_504_29557)"/>
</g>
<g filter="url(#filter6_i_504_29557)">
<circle cx="96.8213" cy="98.5674" r="3.52153" fill="url(#paint25_linear_504_29557)"/>
</g>
<g filter="url(#filter7_i_504_29557)">
<circle cx="109.761" cy="98.5674" r="3.52153" fill="url(#paint26_linear_504_29557)"/>
</g>
<path d="M76.1919 54.6211H130.608C128.486 56.3281 127.214 58.9236 127.214 61.7071V68.5733H71.6919V59.1211C71.6919 56.6358 73.7066 54.6211 76.1919 54.6211Z" fill="url(#paint27_linear_504_29557)" stroke="url(#paint28_linear_504_29557)"/>
<path d="M70.4329 104.477C70.2236 103.719 69.2621 103.488 68.7314 104.068L64.4543 108.741C63.9302 109.314 64.2299 110.239 64.9901 110.396L70.8943 111.613C71.6264 111.763 72.2591 111.087 72.0601 110.367L70.4329 104.477Z" fill="url(#paint29_linear_504_29557)"/>
<path d="M50.9607 96.6718C50.5881 97.0793 50.6163 97.7118 51.0238 98.0845L62.4542 108.539C62.8617 108.912 63.4943 108.883 63.867 108.476L68.4223 103.496C68.7951 103.088 68.7669 102.455 68.3592 102.083L56.9256 91.6295C56.518 91.2568 55.8854 91.2852 55.5128 91.6928L50.9607 96.6718Z" fill="url(#paint30_linear_504_29557)"/>
<path d="M48.9934 96.3812C49.4004 96.7536 50.0349 96.7287 50.408 96.3223L54.9708 91.3525C55.3441 90.9461 55.315 90.3118 54.9089 89.9381C53.1293 88.305 50.3624 88.4238 48.7283 90.2034C47.0971 91.983 47.2157 94.747 48.9934 96.3812Z" fill="#7E7E7E"/>
<path d="M48.9934 96.3812C49.4004 96.7536 50.0349 96.7287 50.408 96.3223L54.9708 91.3525C55.3441 90.9461 55.315 90.3118 54.9089 89.9381C53.1293 88.305 50.3624 88.4238 48.7283 90.2034C47.0971 91.983 47.2157 94.747 48.9934 96.3812Z" fill="url(#paint31_linear_504_29557)"/>
<g filter="url(#filter8_f_504_29557)">
<ellipse cx="72.7429" cy="112.427" rx="0.831747" ry="0.236692" transform="rotate(37.372 72.7429 112.427)" fill="black" fill-opacity="0.1"/>
</g>
<defs>
<filter id="filter0_d_504_29557" x="135.602" y="122.413" width="44.9287" height="41.8711" filterUnits="userSpaceOnUse" color-interpolation-filters="sRGB">
<feFlood flood-opacity="0" result="BackgroundImageFix"/>
<feColorMatrix in="SourceAlpha" type="matrix" values="0 0 0 0 0 0 0 0 0 0 0 0 0 0 0 0 0 0 127 0" result="hardAlpha"/>
<feOffset dx="9" dy="19"/>
<feGaussianBlur stdDeviation="1"/>
<feComposite in2="hardAlpha" operator="out"/>
<feColorMatrix type="matrix" values="0 0 0 0 0 0 0 0 0 0 0 0 0 0 0 0 0 0 0.01 0"/>
<feBlend mode="normal" in2="BackgroundImageFix" result="effect1_dropShadow_504_29557"/>
<feBlend mode="normal" in="SourceGraphic" in2="effect1_dropShadow_504_29557" result="shape"/>
</filter>
<filter id="filter1_d_504_29557" x="24.5771" y="45.2324" width="53.3843" height="44.208" filterUnits="userSpaceOnUse" color-interpolation-filters="sRGB">
<feFlood flood-opacity="0" result="BackgroundImageFix"/>
<feColorMatrix in="SourceAlpha" type="matrix" values="0 0 0 0 0 0 0 0 0 0 0 0 0 0 0 0 0 0 127 0" result="hardAlpha"/>
<feOffset dx="17" dy="26"/>
<feGaussianBlur stdDeviation="1.5"/>
<feComposite in2="hardAlpha" operator="out"/>
<feColorMatrix type="matrix" values="0 0 0 0 0 0 0 0 0 0 0 0 0 0 0 0 0 0 0.02 0"/>
<feBlend mode="normal" in2="BackgroundImageFix" result="effect1_dropShadow_504_29557"/>
<feBlend mode="normal" in="SourceGraphic" in2="effect1_dropShadow_504_29557" result="shape"/>
</filter>
<filter id="filter2_dd_504_29557" x="65.1235" y="64.2107" width="68.9248" height="78.6408" filterUnits="userSpaceOnUse" color-interpolation-filters="sRGB">
<feFlood flood-opacity="0" result="BackgroundImageFix"/>
<feColorMatrix in="SourceAlpha" type="matrix" values="0 0 0 0 0 0 0 0 0 0 0 0 0 0 0 0 0 0 127 0" result="hardAlpha"/>
<feOffset dx="0.5"/>
<feComposite in2="hardAlpha" operator="out"/>
<feColorMatrix type="matrix" values="0 0 0 0 0.729583 0 0 0 0 0.753724 0 0 0 0 0.858333 0 0 0 0.6 0"/>
<feBlend mode="normal" in2="BackgroundImageFix" result="effect1_dropShadow_504_29557"/>
<feColorMatrix in="SourceAlpha" type="matrix" values="0 0 0 0 0 0 0 0 0 0 0 0 0 0 0 0 0 0 127 0" result="hardAlpha"/>
<feOffset dy="-0.3"/>
<feComposite in2="hardAlpha" operator="out"/>
<feColorMatrix type="matrix" values="0 0 0 0 0.788235 0 0 0 0 0.803922 0 0 0 0 0.882353 0 0 0 1 0"/>
<feBlend mode="normal" in2="effect1_dropShadow_504_29557" result="effect2_dropShadow_504_29557"/>
<feBlend mode="normal" in="SourceGraphic" in2="effect2_dropShadow_504_29557" result="shape"/>
</filter>
<filter id="filter3_d_504_29557" x="69.4922" y="70.3037" width="61.5786" height="69.6445" filterUnits="userSpaceOnUse" color-interpolation-filters="sRGB">
<feFlood flood-opacity="0" result="BackgroundImageFix"/>
<feColorMatrix in="SourceAlpha" type="matrix" values="0 0 0 0 0 0 0 0 0 0 0 0 0 0 0 0 0 0 127 0" result="hardAlpha"/>
<feOffset dx="0.5" dy="0.5"/>
<feGaussianBlur stdDeviation="0.5"/>
<feComposite in2="hardAlpha" operator="out"/>
<feColorMatrix type="matrix" values="0 0 0 0 0.819608 0 0 0 0 0.827451 0 0 0 0 0.866667 0 0 0 1 0"/>
<feBlend mode="normal" in2="BackgroundImageFix" result="effect1_dropShadow_504_29557"/>
<feBlend mode="normal" in="SourceGraphic" in2="effect1_dropShadow_504_29557" result="shape"/>
</filter>
<filter id="filter4_f_504_29557" x="61.6572" y="75.2773" width="70.3823" height="60.668" filterUnits="userSpaceOnUse" color-interpolation-filters="sRGB">
<feFlood flood-opacity="0" result="BackgroundImageFix"/>
<feBlend mode="normal" in="SourceGraphic" in2="BackgroundImageFix" result="shape"/>
<feGaussianBlur stdDeviation="2" result="effect1_foregroundBlur_504_29557"/>
</filter>
<filter id="filter5_i_504_29557" x="80.3599" y="95.0459" width="7.04297" height="7.04297" filterUnits="userSpaceOnUse" color-interpolation-filters="sRGB">
<feFlood flood-opacity="0" result="BackgroundImageFix"/>
<feBlend mode="normal" in="SourceGraphic" in2="BackgroundImageFix" result="shape"/>
<feColorMatrix in="SourceAlpha" type="matrix" values="0 0 0 0 0 0 0 0 0 0 0 0 0 0 0 0 0 0 127 0" result="hardAlpha"/>
<feOffset dx="0.5"/>
<feComposite in2="hardAlpha" operator="arithmetic" k2="-1" k3="1"/>
<feColorMatrix type="matrix" values="0 0 0 0 0.850667 0 0 0 0 0.858 0 0 0 0 0.88 0 0 0 1 0"/>
<feBlend mode="normal" in2="shape" result="effect1_innerShadow_504_29557"/>
</filter>
<filter id="filter6_i_504_29557" x="93.2998" y="95.0459" width="7.04297" height="7.04297" filterUnits="userSpaceOnUse" color-interpolation-filters="sRGB">
<feFlood flood-opacity="0" result="BackgroundImageFix"/>
<feBlend mode="normal" in="SourceGraphic" in2="BackgroundImageFix" result="shape"/>
<feColorMatrix in="SourceAlpha" type="matrix" values="0 0 0 0 0 0 0 0 0 0 0 0 0 0 0 0 0 0 127 0" result="hardAlpha"/>
<feOffset dx="0.5"/>
<feComposite in2="hardAlpha" operator="arithmetic" k2="-1" k3="1"/>
<feColorMatrix type="matrix" values="0 0 0 0 0.850667 0 0 0 0 0.858 0 0 0 0 0.88 0 0 0 1 0"/>
<feBlend mode="normal" in2="shape" result="effect1_innerShadow_504_29557"/>
</filter>
<filter id="filter7_i_504_29557" x="106.239" y="95.0459" width="7.04297" height="7.04297" filterUnits="userSpaceOnUse" color-interpolation-filters="sRGB">
<feFlood flood-opacity="0" result="BackgroundImageFix"/>
<feBlend mode="normal" in="SourceGraphic" in2="BackgroundImageFix" result="shape"/>
<feColorMatrix in="SourceAlpha" type="matrix" values="0 0 0 0 0 0 0 0 0 0 0 0 0 0 0 0 0 0 127 0" result="hardAlpha"/>
<feOffset dx="0.5"/>
<feComposite in2="hardAlpha" operator="arithmetic" k2="-1" k3="1"/>
<feColorMatrix type="matrix" values="0 0 0 0 0.850667 0 0 0 0 0.858 0 0 0 0 0.88 0 0 0 1 0"/>
<feBlend mode="normal" in2="shape" result="effect1_innerShadow_504_29557"/>
</filter>
<filter id="filter8_f_504_29557" x="71.0664" y="110.889" width="3.35303" height="3.07715" filterUnits="userSpaceOnUse" color-interpolation-filters="sRGB">
<feFlood flood-opacity="0" result="BackgroundImageFix"/>
<feBlend mode="normal" in="SourceGraphic" in2="BackgroundImageFix" result="shape"/>
<feGaussianBlur stdDeviation="0.5" result="effect1_foregroundBlur_504_29557"/>
</filter>
<linearGradient id="paint0_linear_504_29557" x1="33.516" y1="111.759" x2="33.516" y2="176.626" gradientUnits="userSpaceOnUse">
<stop stop-color="#DADFEF"/>
<stop offset="0.895093" stop-color="white" stop-opacity="0"/>
</linearGradient>
<linearGradient id="paint1_linear_504_29557" x1="159.511" y1="133.184" x2="157.298" y2="143.155" gradientUnits="userSpaceOnUse">
<stop stop-color="#F9FAFC"/>
<stop offset="1" stop-color="#E8EAF2"/>
</linearGradient>
<linearGradient id="paint2_linear_504_29557" x1="34.8466" y1="57.5033" x2="34.3818" y2="59.5697" gradientUnits="userSpaceOnUse">
<stop offset="0.0352448" stop-color="#FAFBFF"/>
<stop offset="1" stop-color="#B7BBCC"/>
</linearGradient>
<linearGradient id="paint3_linear_504_29557" x1="45.6442" y1="53.7831" x2="44.5928" y2="60.3085" gradientUnits="userSpaceOnUse">
<stop stop-color="#F7F8FA"/>
<stop offset="1" stop-color="#E8EAF2"/>
</linearGradient>
<linearGradient id="paint4_linear_504_29557" x1="48.4166" y1="144.112" x2="52.1324" y2="140.9" gradientUnits="userSpaceOnUse">
<stop stop-color="#BABBCA" stop-opacity="0.500611"/>
<stop offset="1" stop-color="white" stop-opacity="0.01"/>
</linearGradient>
<linearGradient id="paint5_linear_504_29557" x1="39.517" y1="147.571" x2="47.085" y2="146.068" gradientUnits="userSpaceOnUse">
<stop stop-color="#F9F9FB"/>
<stop offset="1" stop-color="#EBEDF4"/>
</linearGradient>
<linearGradient id="paint6_linear_504_29557" x1="36.0435" y1="131.219" x2="51.2886" y2="129.767" gradientUnits="userSpaceOnUse">
<stop stop-color="#D8D9E2"/>
<stop offset="1" stop-color="#EFF1FA"/>
</linearGradient>
<linearGradient id="paint7_linear_504_29557" x1="36.0435" y1="129.857" x2="51.3666" y2="128.897" gradientUnits="userSpaceOnUse">
<stop stop-color="#D8D9E2"/>
<stop offset="1" stop-color="#EFF1FA"/>
</linearGradient>
<linearGradient id="paint8_linear_504_29557" x1="36.0435" y1="128.958" x2="51.2886" y2="127.506" gradientUnits="userSpaceOnUse">
<stop stop-color="#EFF1FA"/>
<stop offset="1" stop-color="#D8D9E2"/>
</linearGradient>
<linearGradient id="paint9_linear_504_29557" x1="33.8353" y1="117.076" x2="36.7388" y2="125.318" gradientUnits="userSpaceOnUse">
<stop stop-color="#F8F9FB"/>
<stop offset="1" stop-color="#E6E8F2"/>
</linearGradient>
<linearGradient id="paint10_linear_504_29557" x1="133.017" y1="140.984" x2="137.366" y2="136.844" gradientUnits="userSpaceOnUse">
<stop stop-color="#BABBCA" stop-opacity="0.500611"/>
<stop offset="1" stop-color="white" stop-opacity="0.01"/>
</linearGradient>
<linearGradient id="paint11_linear_504_29557" x1="156.757" y1="104.968" x2="162.393" y2="92.1446" gradientUnits="userSpaceOnUse">
<stop stop-color="#E7E9F0"/>
<stop offset="1" stop-color="#F9FAFF"/>
</linearGradient>
<linearGradient id="paint12_linear_504_29557" x1="119.25" y1="104.968" x2="100.735" y2="71.4923" gradientUnits="userSpaceOnUse">
<stop stop-color="#E7E9F0"/>
<stop offset="1" stop-color="#F6F7FC"/>
</linearGradient>
<linearGradient id="paint13_linear_504_29557" x1="56.3464" y1="35.2518" x2="48.1721" y2="71.784" gradientUnits="userSpaceOnUse">
<stop stop-color="#C6C8D3"/>
<stop offset="1" stop-color="#EFF1F9"/>
</linearGradient>
<linearGradient id="paint14_linear_504_29557" x1="74.0527" y1="80.1846" x2="97.657" y2="129.779" gradientUnits="userSpaceOnUse">
<stop stop-color="#E2E4EE"/>
<stop offset="1" stop-color="#EFF1FA"/>
</linearGradient>
<linearGradient id="paint15_linear_504_29557" x1="113.36" y1="58.614" x2="105.089" y2="132.68" gradientUnits="userSpaceOnUse">
<stop offset="0.0352448" stop-color="#C4C9DE"/>
<stop offset="1" stop-color="#C9CDE0"/>
</linearGradient>
<linearGradient id="paint16_linear_504_29557" x1="99.5799" y1="78.2051" x2="96.9874" y2="144.979" gradientUnits="userSpaceOnUse">
<stop stop-color="white"/>
<stop offset="1" stop-color="#E3E5F1"/>
</linearGradient>
<linearGradient id="paint17_linear_504_29557" x1="101.264" y1="111.314" x2="93.8048" y2="134.725" gradientUnits="userSpaceOnUse">
<stop stop-color="#CCCFDE"/>
<stop offset="0.372508" stop-color="#CED1E0" stop-opacity="0.63"/>
<stop offset="1" stop-color="#FAFBFF" stop-opacity="0"/>
</linearGradient>
<linearGradient id="paint18_linear_504_29557" x1="99.5798" y1="145.555" x2="99.5799" y2="107.259" gradientUnits="userSpaceOnUse">
<stop stop-color="white"/>
<stop offset="1" stop-color="white" stop-opacity="0"/>
</linearGradient>
<linearGradient id="paint19_linear_504_29557" x1="111.09" y1="58.5425" x2="104.286" y2="129.674" gradientUnits="userSpaceOnUse">
<stop offset="0.0352448" stop-color="#E7EAF4"/>
<stop offset="1" stop-color="#DFE2F0"/>
</linearGradient>
<linearGradient id="paint20_linear_504_29557" x1="103.264" y1="76.3335" x2="97.6274" y2="134.288" gradientUnits="userSpaceOnUse">
<stop stop-color="#F4F6FE"/>
<stop offset="1" stop-color="#F2F4FC"/>
</linearGradient>
<linearGradient id="paint21_linear_504_29557" x1="62.3975" y1="128.143" x2="113.381" y2="133.056" gradientUnits="userSpaceOnUse">
<stop offset="0.0352448" stop-color="#EFF1FA"/>
<stop offset="1" stop-color="#C3C6D4"/>
</linearGradient>
<linearGradient id="paint22_linear_504_29557" x1="107.378" y1="116.014" x2="111.569" y2="123.834" gradientUnits="userSpaceOnUse">
<stop offset="0.0352448" stop-color="#F1F3FC"/>
<stop offset="1" stop-color="#C5C8D6"/>
</linearGradient>
<linearGradient id="paint23_linear_504_29557" x1="97.28" y1="72.2284" x2="81.5119" y2="124.689" gradientUnits="userSpaceOnUse">
<stop stop-color="white"/>
<stop offset="1" stop-color="#FAFBFF"/>
</linearGradient>
<linearGradient id="paint24_linear_504_29557" x1="81.5089" y1="98.6526" x2="85.544" y2="100.585" gradientUnits="userSpaceOnUse">
<stop stop-color="#F9F9FB"/>
<stop offset="1" stop-color="#EBEDF4"/>
</linearGradient>
<linearGradient id="paint25_linear_504_29557" x1="94.4489" y1="98.6526" x2="98.4839" y2="100.585" gradientUnits="userSpaceOnUse">
<stop stop-color="#F9F9FB"/>
<stop offset="1" stop-color="#EBEDF4"/>
</linearGradient>
<linearGradient id="paint26_linear_504_29557" x1="107.388" y1="98.6526" x2="111.423" y2="100.585" gradientUnits="userSpaceOnUse">
<stop stop-color="#F9F9FB"/>
<stop offset="1" stop-color="#EBEDF4"/>
</linearGradient>
<linearGradient id="paint27_linear_504_29557" x1="72.4791" y1="62.2539" x2="72.4777" y2="55.2778" gradientUnits="userSpaceOnUse">
<stop stop-color="#DBDDE6"/>
<stop offset="0.522495" stop-color="white"/>
<stop offset="1" stop-color="#EBEDF5"/>
</linearGradient>
<linearGradient id="paint28_linear_504_29557" x1="87.6032" y1="54.1211" x2="66.8852" y2="54.1211" gradientUnits="userSpaceOnUse">
<stop stop-color="white" stop-opacity="0.5"/>
<stop offset="1" stop-color="white" stop-opacity="0.6"/>
</linearGradient>
<linearGradient id="paint29_linear_504_29557" x1="66.1415" y1="107.099" x2="72.5663" y2="111.698" gradientUnits="userSpaceOnUse">
<stop stop-color="#D8D9E2"/>
<stop offset="1" stop-color="#EFF1FA"/>
</linearGradient>
<linearGradient id="paint30_linear_504_29557" x1="58.1302" y1="90.8097" x2="52.1983" y2="99.068" gradientUnits="userSpaceOnUse">
<stop stop-color="#C6C8D3"/>
<stop offset="1" stop-color="#EFF1F9"/>
</linearGradient>
<linearGradient id="paint31_linear_504_29557" x1="48.5415" y1="90.7735" x2="52.4632" y2="94.0429" gradientUnits="userSpaceOnUse">
<stop stop-color="#D8D9E2"/>
<stop offset="1" stop-color="#EFF1FA"/>
</linearGradient>
</defs>
</svg>
