<svg width="200" height="200" viewBox="0 0 200 200" fill="none" xmlns="http://www.w3.org/2000/svg">
<path d="M64.61 144.507L120.829 162.139L119.379 162.411C118.251 162.623 117.088 162.554 115.994 162.21L61.4424 145.101L64.61 144.507Z" fill="url(#paint0_linear_947_45177)"/>
<path d="M98.6725 124.1L153.672 141.294L150.504 141.888L95.5049 124.694L98.6725 124.1Z" fill="url(#paint1_linear_947_45177)"/>
<path d="M15.4733 128.462L66.0632 145.061L62.8956 145.655L12.3057 129.056L15.4733 128.462Z" fill="url(#paint2_linear_947_45177)"/>
<path d="M49.5368 108.054L100.127 124.654L96.9591 125.248L46.3691 108.648L49.5368 108.054Z" fill="url(#paint3_linear_947_45177)"/>
<path d="M85.4361 65.0271L74.7992 61.0373C72.932 60.3351 71.9824 58.2524 72.6846 56.3852C73.3868 54.5179 75.4695 53.5683 77.3368 54.2706L87.9736 58.2604C89.8409 58.9626 90.7905 61.0453 90.0882 62.9125C89.386 64.7798 87.3033 65.7293 85.4361 65.0271Z" fill="url(#paint4_linear_947_45177)"/>
<path d="M96.6868 83.4202C96.2559 83.4202 95.8649 83.1329 95.7452 82.702C95.5616 82.0477 91.2766 66.6948 90.9813 65.5777C90.8696 65.1787 89.6647 64.1334 88.4518 63.3753C87.989 63.088 87.8533 62.4895 88.1406 62.0267C88.4278 61.5639 89.0343 61.4282 89.4891 61.7155C90.1913 62.1544 92.5134 63.6865 92.8805 65.0829C93.1677 66.1841 97.5965 82.0158 97.6364 82.1754C97.78 82.694 97.4768 83.2366 96.9581 83.3803C96.8623 83.4122 96.7746 83.4202 96.6868 83.4202Z" fill="url(#paint5_linear_947_45177)"/>
<path d="M96.7979 110.621L60.623 125.521L118.416 147.535L153.579 127.344L96.7979 110.621Z" fill="url(#paint6_linear_947_45177)"/>
<path d="M52.8447 94.9992L95.8046 77.1782L96.5148 110.718L60.8862 125.407L52.8447 94.9992Z" fill="url(#paint7_linear_947_45177)"/>
<g filter="url(#filter0_i_947_45177)">
<rect x="106.751" y="93.8053" width="4.39885" height="13.1965" rx="2.19942" fill="#CED0DB" fill-opacity="0.1"/>
<rect x="118.447" y="97.1459" width="4.39885" height="13.1965" rx="2.19942" fill="#CED0DB" fill-opacity="0.1"/>
<rect x="130.144" y="100.591" width="4.39885" height="13.1965" rx="2.19942" fill="#CED0DB" fill-opacity="0.1"/>
</g>
<path fill-rule="evenodd" clip-rule="evenodd" d="M160.203 94.6723L153.436 127.634L96.4905 112.59L95.7803 77.8965L160.203 94.6723ZM108.95 93.8053C107.735 93.8053 106.751 94.79 106.751 96.0047V104.802C106.751 106.017 107.735 107.002 108.95 107.002C110.165 107.002 111.149 106.017 111.149 104.802V96.0047C111.149 94.79 110.165 93.8053 108.95 93.8053ZM118.447 99.3453C118.447 98.1306 119.432 97.1458 120.646 97.1458C121.861 97.1458 122.846 98.1306 122.846 99.3453V108.143C122.846 109.358 121.861 110.342 120.646 110.342C119.432 110.342 118.447 109.358 118.447 108.143V99.3453ZM132.343 100.591C131.128 100.591 130.144 101.575 130.144 102.79V111.588C130.144 112.803 131.128 113.787 132.343 113.787C133.558 113.787 134.542 112.803 134.542 111.588V102.79C134.542 101.575 133.558 100.591 132.343 100.591Z" fill="url(#paint8_linear_947_45177)"/>
<path d="M70.3481 140.616L116.98 155.776L117.66 153.68L68.9238 138.351L68.9798 140.241L70.3481 140.616Z" fill="url(#paint9_linear_947_45177)"/>
<path d="M43.9527 84.9681L33.3158 80.9782C31.4486 80.276 30.499 78.1933 31.2012 76.3261C31.9034 74.4588 33.9861 73.5093 35.8534 74.2115L46.4902 78.2013C48.3575 78.9035 49.3071 80.9862 48.6048 82.8534C47.9026 84.7287 45.8199 85.6703 43.9527 84.9681Z" fill="url(#paint10_linear_947_45177)"/>
<path d="M150.412 129.729L153.344 127.784L156.318 140.159C156.318 140.159 155.386 140.902 154.537 141.329C153.785 141.706 152.49 142.033 152.49 142.033L150.412 129.729Z" fill="url(#paint11_linear_947_45177)"/>
<path d="M154.458 141.089C157.203 140.548 158.849 137.168 158.135 133.537C157.42 129.907 154.616 127.402 151.871 127.943C149.126 128.483 147.48 131.864 148.194 135.494C148.909 139.124 151.713 141.629 154.458 141.089Z" fill="url(#paint12_linear_947_45177)"/>
<path d="M152.177 142.073C154.96 141.781 156.903 138.562 156.517 134.882C156.132 131.202 153.564 128.456 150.781 128.747C147.999 129.039 146.056 132.258 146.441 135.938C146.827 139.617 149.395 142.364 152.177 142.073Z" fill="url(#paint13_linear_947_45177)"/>
<path d="M152.177 142.073C154.96 141.781 156.903 138.562 156.517 134.882C156.132 131.202 153.564 128.456 150.781 128.747C147.999 129.039 146.056 132.258 146.441 135.938C146.827 139.617 149.395 142.364 152.177 142.073Z" fill="url(#paint14_linear_947_45177)"/>
<path d="M151.527 137.468C152.31 137.386 152.864 136.545 152.764 135.591C152.664 134.637 151.948 133.929 151.165 134.011C150.381 134.094 149.827 134.934 149.927 135.888C150.027 136.843 150.743 137.55 151.527 137.468Z" fill="url(#paint15_linear_947_45177)"/>
<path d="M119.666 113.668L120.097 147.2L155.096 126.549L160.393 93.4896L119.666 113.668Z" fill="white"/>
<path d="M120.097 115.096L120.097 149.152L155.096 127.701L160.203 94.6802L120.097 115.096Z" fill="url(#paint16_linear_947_45177)"/>
<path d="M119.292 154.18L150.309 135.036C150.867 134.693 151.609 134.885 151.921 135.467C152.216 136.002 152.032 136.68 151.514 136.999L119.38 156.757C118.821 157.1 116.722 158.289 116.403 157.723L116.148 157.004C115.813 156.414 116.124 155.943 116.738 155.664L119.156 154.259C119.204 154.228 119.252 154.204 119.292 154.18Z" fill="url(#paint17_linear_947_45177)"/>
<path d="M52.2617 93.2483V95.2141L119.658 115.414V113.589L52.2617 93.2483Z" fill="white"/>
<path fill-rule="evenodd" clip-rule="evenodd" d="M52.2627 95.923L52.3948 94.2952L54.4761 95.0096L120.09 115.03V149.213L62.0856 130.239L52.2627 95.923ZM77.1494 112.023C75.9347 112.023 74.95 113.008 74.95 114.223V123.02C74.95 124.235 75.9347 125.22 77.1494 125.22C78.3642 125.22 79.3489 124.235 79.3489 123.02V114.223C79.3489 113.008 78.3642 112.023 77.1494 112.023ZM86.6461 117.563C86.6461 116.349 87.6308 115.364 88.8455 115.364C90.0602 115.364 91.045 116.349 91.045 117.563V126.361C91.045 127.576 90.0602 128.561 88.8455 128.561C87.6308 128.561 86.6461 127.576 86.6461 126.361V117.563ZM100.542 118.809C99.3276 118.809 98.3429 119.794 98.3429 121.008V129.806C98.3429 131.021 99.3276 132.005 100.542 132.005C101.757 132.005 102.742 131.021 102.742 129.806V121.008C102.742 119.794 101.757 118.809 100.542 118.809Z" fill="url(#paint18_linear_947_45177)"/>
<path d="M52.3948 94.2952L52.2627 95.923L62.0856 130.239L120.09 149.353V115.03L54.4761 95.0096L52.3948 94.2952Z" fill="url(#paint19_linear_947_45177)"/>
<path d="M55.3697 93.2896L95.6981 76.8487L157.613 93.7758L119.968 112.715L55.3697 93.2896Z" stroke="url(#paint20_linear_947_45177)" stroke-width="2"/>
<path d="M64.3803 135.383C63.9573 135.383 63.5663 135.111 63.4387 134.688C62.8482 132.725 48.9875 86.6588 48.6923 85.5336C48.5805 85.1346 47.3756 84.0893 46.1627 83.3312C45.6999 83.044 45.5642 82.4375 45.8515 81.9827C46.1388 81.5278 46.7452 81.3842 47.2001 81.6715C47.9023 82.1104 50.2244 83.6425 50.5914 85.0389C50.8228 85.9167 60.3266 117.532 65.3219 134.13C65.4815 134.648 65.1862 135.191 64.6675 135.351C64.5718 135.367 64.476 135.383 64.3803 135.383Z" fill="url(#paint21_linear_947_45177)"/>
<rect x="116.99" y="149.088" width="2.06033" height="13.3942" transform="rotate(-3.7997 116.99 149.088)" fill="url(#paint22_linear_947_45177)"/>
<path d="M119.932 162.316C122.723 162.131 124.787 158.988 124.542 155.296C124.297 151.604 121.835 148.762 119.044 148.947C116.252 149.133 114.188 152.276 114.433 155.967C114.678 159.659 117.14 162.501 119.932 162.316Z" fill="url(#paint23_linear_947_45177)"/>
<path d="M117.852 162.454C120.643 162.269 122.707 159.126 122.462 155.434C122.217 151.742 119.755 148.9 116.964 149.085C114.172 149.271 112.108 152.414 112.353 156.105C112.598 159.797 115.06 162.64 117.852 162.454Z" fill="url(#paint24_linear_947_45177)"/>
<path d="M117.377 157.828C118.163 157.776 118.749 156.957 118.685 156C118.622 155.042 117.933 154.308 117.147 154.36C116.361 154.413 115.775 155.231 115.839 156.189C115.902 157.146 116.591 157.88 117.377 157.828Z" fill="url(#paint25_linear_947_45177)"/>
<rect x="63.3916" y="132.447" width="2.06033" height="13.3942" transform="rotate(-3.7997 63.3916 132.447)" fill="url(#paint26_linear_947_45177)"/>
<path d="M66.333 145.676C69.1245 145.49 71.1887 142.347 70.9436 138.656C70.6984 134.964 68.2366 132.121 65.4451 132.307C62.6536 132.492 60.5894 135.635 60.8346 139.327C61.0797 143.019 63.5415 145.861 66.333 145.676Z" fill="url(#paint27_linear_947_45177)"/>
<path d="M64.2529 145.814C67.0444 145.628 69.1087 142.485 68.8635 138.794C68.6183 135.102 66.1566 132.26 63.365 132.445C60.5735 132.63 58.5093 135.773 58.7545 139.465C58.9997 143.157 61.4614 145.999 64.2529 145.814Z" fill="url(#paint28_linear_947_45177)"/>
<path d="M63.7785 141.187C64.5645 141.135 65.1501 140.317 65.0865 139.359C65.0229 138.402 64.3342 137.668 63.5482 137.72C62.7622 137.772 62.1766 138.591 62.2401 139.548C62.3037 140.506 62.9925 141.24 63.7785 141.187Z" fill="url(#paint29_linear_947_45177)"/>
<g filter="url(#filter1_i_947_45177)">
<rect x="74.9512" y="112.024" width="4.39885" height="13.1965" rx="2.19942" fill="#CED0DB" fill-opacity="0.1"/>
<rect x="86.6475" y="115.364" width="4.39885" height="13.1965" rx="2.19942" fill="#CED0DB" fill-opacity="0.1"/>
<rect x="98.3447" y="118.809" width="4.39885" height="13.1965" rx="2.19942" fill="#CED0DB" fill-opacity="0.1"/>
</g>
<path d="M130.968 76.0739C130.949 76.5571 131.558 76.7833 131.859 76.4047L134.178 73.4843C134.394 73.212 134.274 72.8076 133.943 72.6986L131.769 71.9802C131.453 71.8759 131.125 72.103 131.112 72.4351L130.968 76.0739ZM120.309 65.1537C119.808 65.3721 119.836 66.0916 120.352 66.2706L128.49 69.092C128.682 69.1588 128.896 69.1232 129.056 68.9977L141.557 59.2175L132.159 69.453C131.868 69.77 131.996 70.2813 132.402 70.4246L141.53 73.6463C141.852 73.7601 142.204 73.5818 142.304 73.2545L148.106 54.1097C148.254 53.62 147.761 53.1811 147.292 53.3857L120.309 65.1537Z" fill="url(#paint30_linear_947_45177)"/>
<path d="M131.976 76.2668C128.764 81.531 120.547 90.9733 110.95 90.1482C101.369 89.3245 106.33 78.1442 112.541 81.0234C118.751 83.9026 116.114 98.4386 93.3218 105.981" stroke="url(#paint31_linear_947_45177)" stroke-width="1.2" stroke-linecap="round"/>
<defs>
<filter id="filter0_i_947_45177" x="106.751" y="93.8053" width="27.791" height="19.9821" filterUnits="userSpaceOnUse" color-interpolation-filters="sRGB">
<feFlood flood-opacity="0" result="BackgroundImageFix"/>
<feBlend mode="normal" in="SourceGraphic" in2="BackgroundImageFix" result="shape"/>
<feColorMatrix in="SourceAlpha" type="matrix" values="0 0 0 0 0 0 0 0 0 0 0 0 0 0 0 0 0 0 127 0" result="hardAlpha"/>
<feOffset dx="1" dy="1"/>
<feComposite in2="hardAlpha" operator="arithmetic" k2="-1" k3="1"/>
<feColorMatrix type="matrix" values="0 0 0 0 0.762691 0 0 0 0 0.772381 0 0 0 0 0.820833 0 0 0 1 0"/>
<feBlend mode="normal" in2="shape" result="effect1_innerShadow_947_45177"/>
</filter>
<filter id="filter1_i_947_45177" x="74.9512" y="112.024" width="27.792" height="19.9821" filterUnits="userSpaceOnUse" color-interpolation-filters="sRGB">
<feFlood flood-opacity="0" result="BackgroundImageFix"/>
<feBlend mode="normal" in="SourceGraphic" in2="BackgroundImageFix" result="shape"/>
<feColorMatrix in="SourceAlpha" type="matrix" values="0 0 0 0 0 0 0 0 0 0 0 0 0 0 0 0 0 0 127 0" result="hardAlpha"/>
<feOffset dx="1" dy="1"/>
<feComposite in2="hardAlpha" operator="arithmetic" k2="-1" k3="1"/>
<feColorMatrix type="matrix" values="0 0 0 0 0.762691 0 0 0 0 0.772381 0 0 0 0 0.820833 0 0 0 1 0"/>
<feBlend mode="normal" in2="shape" result="effect1_innerShadow_947_45177"/>
</filter>
<linearGradient id="paint0_linear_947_45177" x1="117.695" y1="162.295" x2="47.2119" y2="162.295" gradientUnits="userSpaceOnUse">
<stop stop-color="#C0C3D2"/>
<stop offset="1" stop-color="#C0C3D2" stop-opacity="0"/>
</linearGradient>
<linearGradient id="paint1_linear_947_45177" x1="151.757" y1="141.888" x2="81.2744" y2="141.888" gradientUnits="userSpaceOnUse">
<stop stop-color="#C0C3D2"/>
<stop offset="1" stop-color="#C0C3D2" stop-opacity="0"/>
</linearGradient>
<linearGradient id="paint2_linear_947_45177" x1="64.1483" y1="145.655" x2="18.0003" y2="145.655" gradientUnits="userSpaceOnUse">
<stop stop-color="#C0C3D2"/>
<stop offset="1" stop-color="#C0C3D2" stop-opacity="0"/>
</linearGradient>
<linearGradient id="paint3_linear_947_45177" x1="98.2118" y1="125.248" x2="52.0637" y2="125.248" gradientUnits="userSpaceOnUse">
<stop stop-color="#C0C3D2"/>
<stop offset="1" stop-color="#C0C3D2" stop-opacity="0"/>
</linearGradient>
<linearGradient id="paint4_linear_947_45177" x1="80.9017" y1="56.3647" x2="79.6709" y2="60.341" gradientUnits="userSpaceOnUse">
<stop stop-color="#FAFBFF"/>
<stop offset="1" stop-color="#DCDEE9"/>
</linearGradient>
<linearGradient id="paint5_linear_947_45177" x1="94.5594" y1="71.9502" x2="92.8312" y2="72.4927" gradientUnits="userSpaceOnUse">
<stop stop-color="#FAFBFF"/>
<stop offset="1" stop-color="#DCDEE9"/>
</linearGradient>
<linearGradient id="paint6_linear_947_45177" x1="101.935" y1="135.907" x2="64.38" y2="135.907" gradientUnits="userSpaceOnUse">
<stop stop-color="#F1F3FA"/>
<stop offset="1" stop-color="#DADCE9"/>
</linearGradient>
<linearGradient id="paint7_linear_947_45177" x1="54.9166" y1="87.2516" x2="89.5313" y2="73.6735" gradientUnits="userSpaceOnUse">
<stop stop-color="#F4F5FA"/>
<stop offset="1" stop-color="#E2E4ED"/>
</linearGradient>
<linearGradient id="paint8_linear_947_45177" x1="90.2925" y1="113.257" x2="145.024" y2="100.071" gradientUnits="userSpaceOnUse">
<stop stop-color="#F7F8FF"/>
<stop offset="1" stop-color="#DDDFE9"/>
</linearGradient>
<linearGradient id="paint9_linear_947_45177" x1="93.4802" y1="146.101" x2="92.8935" y2="147.967" gradientUnits="userSpaceOnUse">
<stop stop-color="#FAFBFF"/>
<stop offset="1" stop-color="#DCDEE9"/>
</linearGradient>
<linearGradient id="paint10_linear_947_45177" x1="39.4183" y1="76.3058" x2="38.1873" y2="80.2824" gradientUnits="userSpaceOnUse">
<stop stop-color="#FAFBFF"/>
<stop offset="1" stop-color="#DCDEE9"/>
</linearGradient>
<linearGradient id="paint11_linear_947_45177" x1="150.808" y1="128.748" x2="151.902" y2="139.184" gradientUnits="userSpaceOnUse">
<stop stop-color="#FAFBFF"/>
<stop offset="1" stop-color="#DCDEE9"/>
</linearGradient>
<linearGradient id="paint12_linear_947_45177" x1="146.9" y1="128.921" x2="148.927" y2="139.22" gradientUnits="userSpaceOnUse">
<stop stop-color="#FAFBFF"/>
<stop offset="1" stop-color="#DCDEE9"/>
</linearGradient>
<linearGradient id="paint13_linear_947_45177" x1="145.743" y1="129.275" x2="146.837" y2="139.714" gradientUnits="userSpaceOnUse">
<stop stop-color="#FAFBFF"/>
<stop offset="1" stop-color="#DCDEE9"/>
</linearGradient>
<linearGradient id="paint14_linear_947_45177" x1="156.73" y1="140.605" x2="155.697" y2="130.746" gradientUnits="userSpaceOnUse">
<stop stop-color="#CACCD7"/>
<stop offset="1" stop-color="#E7E9F2"/>
</linearGradient>
<linearGradient id="paint15_linear_947_45177" x1="152.758" y1="139.926" x2="150.401" y2="134.688" gradientUnits="userSpaceOnUse">
<stop stop-color="#A4A7B7"/>
<stop offset="1" stop-color="#CACCD7"/>
</linearGradient>
<linearGradient id="paint16_linear_947_45177" x1="124.22" y1="135.542" x2="159.525" y2="135.542" gradientUnits="userSpaceOnUse">
<stop stop-color="#FAFBFF"/>
<stop offset="1" stop-color="#DCDEE9"/>
</linearGradient>
<linearGradient id="paint17_linear_947_45177" x1="138.124" y1="142.641" x2="139.274" y2="144.41" gradientUnits="userSpaceOnUse">
<stop stop-color="#FAFBFF"/>
<stop offset="1" stop-color="#DCDEE9"/>
</linearGradient>
<linearGradient id="paint18_linear_947_45177" x1="58.9832" y1="136.148" x2="118.939" y2="136.148" gradientUnits="userSpaceOnUse">
<stop stop-color="#FAFBFF"/>
<stop offset="1" stop-color="#DCDEE9"/>
</linearGradient>
<linearGradient id="paint19_linear_947_45177" x1="63.9635" y1="134.033" x2="71.7865" y2="131.932" gradientUnits="userSpaceOnUse">
<stop stop-color="#DCDEE9" stop-opacity="0.6"/>
<stop offset="1" stop-color="#FAFBFF" stop-opacity="0"/>
</linearGradient>
<linearGradient id="paint20_linear_947_45177" x1="154.37" y1="78.2037" x2="45.5342" y2="78.2037" gradientUnits="userSpaceOnUse">
<stop stop-color="#EBEDF7"/>
<stop offset="1" stop-color="#FAFAFD"/>
</linearGradient>
<linearGradient id="paint21_linear_947_45177" x1="57.4183" y1="107.638" x2="55.4668" y2="108.236" gradientUnits="userSpaceOnUse">
<stop stop-color="#FAFBFF"/>
<stop offset="1" stop-color="#DCDEE9"/>
</linearGradient>
<linearGradient id="paint22_linear_947_45177" x1="118.02" y1="149.088" x2="118.02" y2="162.482" gradientUnits="userSpaceOnUse">
<stop stop-color="#E8E9F3"/>
<stop offset="1" stop-color="#CBCDD8"/>
</linearGradient>
<linearGradient id="paint23_linear_947_45177" x1="124.537" y1="161.023" x2="123.88" y2="151.131" gradientUnits="userSpaceOnUse">
<stop stop-color="#CACCD7"/>
<stop offset="1" stop-color="#E7E9F2"/>
</linearGradient>
<linearGradient id="paint24_linear_947_45177" x1="111.909" y1="149.421" x2="112.605" y2="159.894" gradientUnits="userSpaceOnUse">
<stop stop-color="#FAFBFF"/>
<stop offset="1" stop-color="#DCDEE9"/>
</linearGradient>
<linearGradient id="paint25_linear_947_45177" x1="118.514" y1="160.331" x2="116.358" y2="155.007" gradientUnits="userSpaceOnUse">
<stop stop-color="#E7E9F2"/>
<stop offset="1" stop-color="#CACCD7"/>
</linearGradient>
<linearGradient id="paint26_linear_947_45177" x1="64.4218" y1="132.447" x2="64.4218" y2="145.841" gradientUnits="userSpaceOnUse">
<stop stop-color="#E8E9F3"/>
<stop offset="1" stop-color="#CBCDD8"/>
</linearGradient>
<linearGradient id="paint27_linear_947_45177" x1="70.9386" y1="144.383" x2="70.2816" y2="134.491" gradientUnits="userSpaceOnUse">
<stop stop-color="#CACCD7"/>
<stop offset="1" stop-color="#E7E9F2"/>
</linearGradient>
<linearGradient id="paint28_linear_947_45177" x1="58.3105" y1="132.781" x2="59.0061" y2="143.254" gradientUnits="userSpaceOnUse">
<stop stop-color="#FAFBFF"/>
<stop offset="1" stop-color="#DCDEE9"/>
</linearGradient>
<linearGradient id="paint29_linear_947_45177" x1="64.9153" y1="143.691" x2="62.7592" y2="138.367" gradientUnits="userSpaceOnUse">
<stop stop-color="#E7E9F2"/>
<stop offset="1" stop-color="#CACCD7"/>
</linearGradient>
<linearGradient id="paint30_linear_947_45177" x1="128.553" y1="72.8628" x2="144.135" y2="53.4665" gradientUnits="userSpaceOnUse">
<stop stop-color="#E7E9F1"/>
<stop offset="1" stop-color="#F7F7FC"/>
</linearGradient>
<linearGradient id="paint31_linear_947_45177" x1="134.193" y1="78.3108" x2="104.843" y2="114.275" gradientUnits="userSpaceOnUse">
<stop stop-color="white" stop-opacity="0"/>
<stop offset="0.28967" stop-color="#D1D4E3"/>
<stop offset="0.735115" stop-color="#CACCDB"/>
<stop offset="1" stop-color="white" stop-opacity="0"/>
</linearGradient>
</defs>
</svg>
