<svg width="14" height="10" viewBox="0 0 14 10" fill="none" xmlns="http://www.w3.org/2000/svg">
<path d="M0 4C0 1.79086 1.79086 0 4 0H14V6C14 8.20914 12.2091 10 10 10H0V4Z" fill="#333333"/>
<path fill-rule="evenodd" clip-rule="evenodd" d="M9.83277 3.11716C9.98898 2.96095 10.2422 2.96095 10.3985 3.11716L10.588 3.30674C10.7442 3.46295 10.7443 3.71621 10.588 3.87242L8.53003 5.93051C8.51561 5.94494 8.50087 5.95886 8.48584 5.97229L7.94123 6.51691C7.19923 7.25891 5.99622 7.25891 5.25422 6.51691L4.61389 5.87658C4.60525 5.86794 4.59692 5.8591 4.58891 5.85009L4.11716 5.37833C3.96095 5.22212 3.96095 4.96886 4.11716 4.81265L4.30677 4.62303C4.46298 4.46682 4.71624 4.46682 4.87245 4.62303L4.94061 4.69119L4.94174 4.69006L5.96274 5.71106C6.31421 6.06253 6.88406 6.06253 7.23553 5.71106L9.28266 3.66393C9.283 3.66471 9.28333 3.6655 9.28367 3.66629L9.83277 3.11716Z" fill="white"/>
</svg>
