<svg width="20" height="20" viewBox="0 0 20 20" fill="none" xmlns="http://www.w3.org/2000/svg">
<path fill-rule="evenodd" clip-rule="evenodd" d="M8.43888 4.89451C8.3087 4.76433 8.09765 4.76433 7.96747 4.89451L7.73177 5.13021C7.60159 5.26038 7.60159 5.47144 7.73177 5.60161L8.61543 6.48528C8.61487 6.48545 8.61431 6.48562 8.61375 6.4858L11.465 9.33703C11.8555 9.72756 11.8555 10.3607 11.465 10.7512L8.61375 13.6025C8.61437 13.6027 8.615 13.6029 8.61563 13.6031L7.77645 14.4422C7.64627 14.5724 7.64627 14.7835 7.77644 14.9136L8.01215 15.1493C8.14232 15.2795 8.35337 15.2795 8.48355 15.1493L10.4447 13.1882C10.4624 13.1718 10.4799 13.155 10.4972 13.1377L12.4122 11.2227C13.0631 10.5718 13.0631 9.5165 12.4122 8.86563L10.4972 6.95055C10.4787 6.93213 10.46 6.91418 10.4411 6.89669L8.43888 4.89451Z" fill="#666666"/>
</svg>
