<svg width="17" height="16" viewBox="0 0 17 16" fill="none" xmlns="http://www.w3.org/2000/svg">
<mask id="path-1-inside-1_317_7604" fill="white">
<path fill-rule="evenodd" clip-rule="evenodd" d="M13.3274 3.73837C12.0651 2.47609 10.0186 2.47609 8.7563 3.73837L7.99995 4.49472L7.24369 3.73846C5.9814 2.47617 3.93484 2.47617 2.67255 3.73846C1.41026 5.00074 1.41026 7.04731 2.67255 8.3096L3.42881 9.06586L3.4233 9.07137L7.00071 12.6488C7.54953 13.1976 8.43934 13.1976 8.98816 12.6488L10.8612 10.7758C10.9265 10.7179 10.9904 10.6577 11.053 10.5952L12.5767 9.07145L12.5711 9.06586L13.3274 8.30951C14.5897 7.04723 14.5897 5.00066 13.3274 3.73837Z"/>
</mask>
<path fill-rule="evenodd" clip-rule="evenodd" d="M13.3274 3.73837C12.0651 2.47609 10.0186 2.47609 8.7563 3.73837L7.99995 4.49472L7.24369 3.73846C5.9814 2.47617 3.93484 2.47617 2.67255 3.73846C1.41026 5.00074 1.41026 7.04731 2.67255 8.3096L3.42881 9.06586L3.4233 9.07137L7.00071 12.6488C7.54953 13.1976 8.43934 13.1976 8.98816 12.6488L10.8612 10.7758C10.9265 10.7179 10.9904 10.6577 11.053 10.5952L12.5767 9.07145L12.5711 9.06586L13.3274 8.30951C14.5897 7.04723 14.5897 5.00066 13.3274 3.73837Z" fill="url(#paint0_linear_317_7604)"/>
<path d="M8.7563 3.73837L8.97032 3.9524L8.97032 3.9524L8.7563 3.73837ZM13.3274 3.73837L13.1134 3.9524L13.1134 3.9524L13.3274 3.73837ZM7.99995 4.49472L7.78593 4.70874L7.99995 4.92277L8.21398 4.70874L7.99995 4.49472ZM7.24369 3.73846L7.45772 3.52443L7.45772 3.52443L7.24369 3.73846ZM2.67255 3.73846L2.88658 3.95248L2.88658 3.95248L2.67255 3.73846ZM2.67255 8.3096L2.45852 8.52362L2.67255 8.3096ZM3.42881 9.06586L3.64283 9.27989L3.85687 9.06586L3.64284 8.85183L3.42881 9.06586ZM3.4233 9.07137L3.20927 8.85734L2.99524 9.07137L3.20927 9.2854L3.4233 9.07137ZM7.00071 12.6488L6.78669 12.8628L6.78669 12.8628L7.00071 12.6488ZM8.98816 12.6488L8.77414 12.4348L8.77414 12.4348L8.98816 12.6488ZM10.8612 10.7758L10.6604 10.5493L10.6536 10.5553L10.6472 10.5617L10.8612 10.7758ZM11.053 10.5952L10.8389 10.3811L10.8389 10.3811L11.053 10.5952ZM12.5767 9.07145L12.7907 9.28548L13.0047 9.07146L12.7907 8.85744L12.5767 9.07145ZM12.5711 9.06586L12.3571 8.85183L12.143 9.06585L12.3571 9.27987L12.5711 9.06586ZM8.97032 3.9524C10.1144 2.80832 11.9693 2.80832 13.1134 3.9524L13.5415 3.52435C12.161 2.14386 9.92276 2.14386 8.54227 3.52435L8.97032 3.9524ZM8.21398 4.70874L8.97032 3.9524L8.54227 3.52435L7.78593 4.28069L8.21398 4.70874ZM7.02966 3.95248L7.78593 4.70874L8.21398 4.28069L7.45772 3.52443L7.02966 3.95248ZM2.88658 3.95248C4.03066 2.8084 5.88558 2.8084 7.02966 3.95248L7.45772 3.52443C6.07723 2.14394 3.83901 2.14394 2.45852 3.52443L2.88658 3.95248ZM2.88657 8.09557C1.74249 6.95149 1.74249 5.09657 2.88658 3.95248L2.45852 3.52443C1.07804 4.90492 1.07803 7.14313 2.45852 8.52362L2.88657 8.09557ZM3.64284 8.85183L2.88657 8.09557L2.45852 8.52362L3.21478 9.27988L3.64284 8.85183ZM3.63732 9.2854L3.64283 9.27989L3.21479 8.85183L3.20927 8.85734L3.63732 9.2854ZM7.21474 12.4348L3.63732 8.85735L3.20927 9.2854L6.78669 12.8628L7.21474 12.4348ZM8.77414 12.4348C8.34352 12.8654 7.64535 12.8654 7.21474 12.4348L6.78669 12.8628C7.45371 13.5298 8.53517 13.5298 9.20219 12.8628L8.77414 12.4348ZM10.6472 10.5617L8.77414 12.4348L9.20219 12.8628L11.0752 10.9898L10.6472 10.5617ZM10.8389 10.3811C10.7807 10.4394 10.7212 10.4954 10.6604 10.5493L11.0619 11.0023C11.1318 10.9404 11.2002 10.876 11.267 10.8092L10.8389 10.3811ZM12.3627 8.85743L10.8389 10.3811L11.267 10.8092L12.7907 9.28548L12.3627 8.85743ZM12.3571 9.27987L12.3627 9.28547L12.7907 8.85744L12.7851 8.85184L12.3571 9.27987ZM13.1134 8.09549L12.3571 8.85183L12.7851 9.27988L13.5415 8.52354L13.1134 8.09549ZM13.1134 3.9524C14.2575 5.09648 14.2575 6.95141 13.1134 8.09549L13.5415 8.52354C14.922 7.14305 14.922 4.90484 13.5415 3.52435L13.1134 3.9524Z" fill="url(#paint1_linear_317_7604)" mask="url(#path-1-inside-1_317_7604)"/>
<path d="M10.4285 6.92999C10.6488 6.70964 11.0061 6.70964 11.2264 6.92999C11.4468 7.15034 11.4468 7.5076 11.2264 7.72795L10.0323 8.92204C9.81199 9.14239 9.45473 9.14239 9.23438 8.92204C9.01403 8.70169 9.01403 8.34443 9.23438 8.12408L10.4285 6.92999Z" fill="white"/>
<defs>
<linearGradient id="paint0_linear_317_7604" x1="8.52283" y1="8.78173" x2="3.28274" y2="0.900707" gradientUnits="userSpaceOnUse">
<stop stop-color="#666666"/>
<stop offset="1" stop-color="#A3A3A3"/>
</linearGradient>
<linearGradient id="paint1_linear_317_7604" x1="4.13092" y1="3.21949" x2="7.87833" y2="13.2731" gradientUnits="userSpaceOnUse">
<stop stop-color="white"/>
<stop offset="1" stop-color="white" stop-opacity="0"/>
</linearGradient>
</defs>
</svg>
