<svg width="13" height="14" viewBox="0 0 13 14" fill="none" xmlns="http://www.w3.org/2000/svg">
<mask id="path-1-inside-1_106_6400" fill="white">
<path fill-rule="evenodd" clip-rule="evenodd" d="M9.39411 9.87934C7.5196 11.7539 4.4804 11.7539 2.60589 9.87934C0.731371 8.00483 0.731371 4.96563 2.60589 3.09112C4.4804 1.2166 7.5196 1.2166 9.39411 3.09112C11.2686 4.96563 11.2686 8.00483 9.39411 9.87934ZM9.51509 11.3489C7.16938 13.0485 3.87104 12.8415 1.75736 10.7279C-0.585787 8.38472 -0.585786 4.58573 1.75736 2.24259C4.10051 -0.100557 7.89949 -0.100557 10.2426 2.24259C12.5274 4.52736 12.5843 8.19635 10.4134 10.5501L12.3331 12.4698C12.4503 12.587 12.4503 12.7769 12.3331 12.8941L11.9088 13.3183C11.7917 13.4355 11.6017 13.4355 11.4846 13.3183L9.51509 11.3489Z"/>
</mask>
<path d="M2.60589 9.87934L1.75736 10.7279L2.60589 9.87934ZM9.39411 9.87934L10.2426 10.7279L9.39411 9.87934ZM2.60589 3.09112L3.45442 3.93965L2.60589 3.09112ZM9.39411 3.09112L10.2426 2.24259L9.39411 3.09112ZM1.75736 10.7279L0.908831 11.5764L0.908831 11.5764L1.75736 10.7279ZM9.51509 11.3489L10.3636 10.5003L9.63984 9.77655L8.81099 10.3771L9.51509 11.3489ZM1.75736 2.24259L0.908831 1.39406L0.908831 1.39406L1.75736 2.24259ZM10.2426 2.24259L9.39411 3.09112L10.2426 2.24259ZM10.4134 10.5501L9.5313 9.73651L8.74992 10.5837L9.56486 11.3986L10.4134 10.5501ZM12.3331 12.4698L11.4846 13.3183L11.4846 13.3183L12.3331 12.4698ZM12.3331 12.8941L11.4846 12.0455L11.4846 12.0455L12.3331 12.8941ZM11.9088 13.3183L11.0603 12.4698L11.0603 12.4698L11.9088 13.3183ZM1.75736 10.7279C4.1005 13.071 7.8995 13.071 10.2426 10.7279L8.54558 9.03081C7.1397 10.4367 4.8603 10.4367 3.45442 9.03081L1.75736 10.7279ZM1.75736 2.24259C-0.585786 4.58573 -0.585787 8.38472 1.75736 10.7279L3.45442 9.03081C2.04853 7.62493 2.04853 5.34553 3.45442 3.93965L1.75736 2.24259ZM10.2426 2.24259C7.89949 -0.100557 4.10051 -0.100557 1.75736 2.24259L3.45442 3.93965C4.8603 2.53376 7.1397 2.53376 8.54558 3.93965L10.2426 2.24259ZM10.2426 10.7279C12.5858 8.38472 12.5858 4.58573 10.2426 2.24259L8.54558 3.93965C9.95147 5.34553 9.95147 7.62493 8.54558 9.03081L10.2426 10.7279ZM0.908831 11.5764C3.44605 14.1136 7.40354 14.3608 10.2192 12.3206L8.81099 10.3771C6.93523 11.7363 4.29602 11.5695 2.60589 9.87934L0.908831 11.5764ZM0.908831 1.39406C-1.90294 4.20584 -1.90294 8.76462 0.908831 11.5764L2.60589 9.87934C0.731371 8.00483 0.731371 4.96563 2.60589 3.09112L0.908831 1.39406ZM11.0912 1.39406C8.27939 -1.41771 3.72061 -1.41771 0.908831 1.39406L2.60589 3.09112C4.4804 1.2166 7.5196 1.2166 9.39411 3.09112L11.0912 1.39406ZM11.2955 11.3637C13.9012 8.53855 13.8331 4.13599 11.0912 1.39406L9.39411 3.09112C11.2217 4.91873 11.2675 7.85415 9.5313 9.73651L11.2955 11.3637ZM9.56486 11.3986L11.4846 13.3183L13.1816 11.6213L11.2619 9.70156L9.56486 11.3986ZM11.4846 13.3183C11.1331 12.9669 11.1331 12.397 11.4846 12.0455L13.1816 13.7426C13.7674 13.1568 13.7674 12.2071 13.1816 11.6213L11.4846 13.3183ZM11.4846 12.0455L11.0603 12.4698L12.7574 14.1669L13.1816 13.7426L11.4846 12.0455ZM11.0603 12.4698C11.4118 12.1183 11.9816 12.1183 12.3331 12.4698L10.636 14.1669C11.2218 14.7526 12.1716 14.7526 12.7574 14.1668L11.0603 12.4698ZM12.3331 12.4698L10.3636 10.5003L8.66656 12.1974L10.636 14.1669L12.3331 12.4698Z" fill="#CCCCCC" mask="url(#path-1-inside-1_106_6400)"/>
</svg>
