<svg width="375" height="220" viewBox="0 0 375 220" fill="none" xmlns="http://www.w3.org/2000/svg">
<path d="M0 0H375V220H0V0Z" fill="url(#paint0_linear_128_4295)"/>
<mask id="mask0_128_4295" style="mask-type:alpha" maskUnits="userSpaceOnUse" x="0" y="0" width="375" height="220">
<path d="M0 0H375V220H0V0Z" fill="url(#paint1_linear_128_4295)"/>
</mask>
<g mask="url(#mask0_128_4295)">
<rect x="67" y="-1" width="67" height="121" fill="url(#paint2_linear_128_4295)"/>
<g opacity="0.9" filter="url(#filter0_d_128_4295)">
<rect x="257.607" y="177.222" width="30" height="156" transform="rotate(-37.066 257.607 177.222)" fill="#F2F2F2"/>
<mask id="mask1_128_4295" style="mask-type:alpha" maskUnits="userSpaceOnUse" x="257" y="159" width="119" height="143">
<rect x="257.607" y="177.222" width="30" height="156" transform="rotate(-37.066 257.607 177.222)" fill="white"/>
</mask>
<g mask="url(#mask1_128_4295)">
<rect x="264.788" y="171.798" width="13" height="156" transform="rotate(-37.066 264.788 171.798)" fill="url(#paint3_linear_128_4295)"/>
<g opacity="0.841595" filter="url(#filter1_f_128_4295)">
<ellipse rx="57" ry="0.25" transform="matrix(0.602735 0.797942 0.797942 -0.602735 292.178 222.759)" fill="white"/>
<ellipse rx="57" ry="0.25" transform="matrix(0.602735 0.797942 0.797942 -0.602735 292.178 222.759)" stroke="white"/>
</g>
</g>
<path fill-rule="evenodd" clip-rule="evenodd" d="M252.749 148.852C252.475 147.253 254.12 146.01 255.584 146.711L281.545 159.14L257.607 177.222L252.749 148.852Z" fill="#D8D8D8"/>
<mask id="mask2_128_4295" style="mask-type:alpha" maskUnits="userSpaceOnUse" x="252" y="146" width="30" height="32">
<path fill-rule="evenodd" clip-rule="evenodd" d="M252.749 148.852C252.475 147.253 254.12 146.01 255.584 146.711L281.545 159.14L257.607 177.222L252.749 148.852Z" fill="white"/>
</mask>
<g mask="url(#mask2_128_4295)">
<rect x="247.309" y="148.657" width="12" height="11" transform="rotate(-37.066 247.309 148.657)" fill="url(#paint4_linear_128_4295)"/>
<path fill-rule="evenodd" clip-rule="evenodd" d="M264.788 171.798L257.657 154.627L261.317 151.861L275.161 163.962L264.788 171.798Z" fill="url(#paint5_linear_128_4295)"/>
<path fill-rule="evenodd" clip-rule="evenodd" d="M257.657 154.627L264.788 171.798L257.607 177.222L253.644 157.451L257.657 154.627Z" fill="#F1F1F1"/>
<path fill-rule="evenodd" clip-rule="evenodd" d="M263.514 150.202L261.317 151.861L275.161 163.962L281.545 159.14L263.514 150.202Z" fill="#F1F1F1"/>
</g>
<g filter="url(#filter2_f_128_4295)">
<ellipse rx="57" ry="0.25" transform="matrix(0.602735 0.797942 0.797942 -0.602735 299.952 218.336)" fill="white"/>
</g>
</g>
<g opacity="0.95" clip-path="url(#clip0_128_4295)" filter="url(#filter3_d_128_4295)">
<rect x="314.692" y="171.105" width="38" height="125" rx="5" transform="rotate(-37.6936 314.692 171.105)" fill="#F7F7F7"/>
<mask id="mask3_128_4295" style="mask-type:alpha" maskUnits="userSpaceOnUse" x="316" y="149" width="104" height="120">
<rect x="314.692" y="171.105" width="38" height="125" rx="5" transform="rotate(-37.6936 314.692 171.105)" fill="white"/>
</mask>
<g mask="url(#mask3_128_4295)">
<path fill-rule="evenodd" clip-rule="evenodd" d="M339.761 203.548L318.65 174.238C318.65 174.238 316.46 171.741 319.197 168.626L343.81 149.641L342.928 148.5L313.18 171.487L339.761 203.548Z" fill="white"/>
</g>
<path d="M342.963 161.898C342.625 161.461 342.706 160.833 343.143 160.495L350.264 154.993L351.487 156.575L344.366 162.078C343.929 162.416 343.301 162.335 342.963 161.898Z" fill="#E7E7E7"/>
<path d="M348.574 162.617C348.236 162.18 348.317 161.552 348.754 161.215L352.71 158.158L353.933 159.74L349.977 162.797C349.54 163.135 348.912 163.054 348.574 162.617Z" fill="#E7E7E7"/>
<path d="M355.911 172.113C355.573 171.676 355.654 171.048 356.091 170.71L360.047 167.653L361.27 169.236L357.314 172.293C356.877 172.631 356.249 172.55 355.911 172.113Z" fill="#E7E7E7"/>
<path d="M365.694 184.774C365.356 184.337 365.437 183.709 365.874 183.371L369.83 180.314L371.053 181.896L367.097 184.954C366.66 185.291 366.032 185.211 365.694 184.774Z" fill="#E7E7E7"/>
<path d="M372.42 193.478C372.082 193.041 372.163 192.413 372.6 192.075L376.556 189.018L377.779 190.601L373.823 193.658C373.386 193.996 372.758 193.915 372.42 193.478Z" fill="#E7E7E7"/>
<path d="M351.02 165.783C350.682 165.346 350.762 164.718 351.199 164.38L355.156 161.323L356.379 162.905L352.422 165.963C351.985 166.3 351.357 166.22 351.02 165.783Z" fill="#E7E7E7"/>
<path d="M358.357 175.278C358.019 174.841 358.1 174.213 358.537 173.875L362.493 170.818L363.716 172.401L359.76 175.458C359.323 175.796 358.695 175.715 358.357 175.278Z" fill="#E7E7E7"/>
<path d="M368.14 187.939C367.802 187.502 367.883 186.874 368.32 186.536L372.276 183.479L373.499 185.062L369.543 188.119C369.106 188.457 368.478 188.376 368.14 187.939Z" fill="#E7E7E7"/>
<path d="M374.866 196.643C374.528 196.206 374.609 195.578 375.046 195.24L379.002 192.183L380.225 193.766L376.268 196.823C375.831 197.161 375.203 197.08 374.866 196.643Z" fill="#E7E7E7"/>
<path d="M351.953 185.111C351.677 185.081 351.385 185.004 351.069 184.884C350.766 184.754 350.512 184.607 350.304 184.443L349.57 185.011C350.013 185.336 350.461 185.536 350.918 185.617L347.291 188.42L347.863 189.161L352.383 185.668L351.953 185.111Z" fill="#E7E7E7"/>
<path d="M368.936 206.907C368.56 206.42 368.092 206.155 367.533 206.111C366.998 206.06 366.48 206.227 365.969 206.612L366.541 207.353C366.905 207.092 367.236 206.957 367.521 206.96C367.818 206.952 368.075 207.088 368.29 207.366C368.491 207.626 368.585 207.866 368.568 208.092C368.545 208.312 368.416 208.523 368.169 208.714C367.915 208.909 367.597 208.994 367.223 208.969C366.993 208.945 366.665 208.875 366.238 208.74C365.471 208.493 364.923 208.36 364.606 208.343C364.03 208.303 363.518 208.465 363.056 208.823L365.492 211.975L366.144 211.471L364.422 209.243C364.728 209.168 365.21 209.241 365.87 209.469C366.51 209.682 366.996 209.812 367.322 209.843C367.87 209.885 368.342 209.763 368.735 209.459C369.14 209.146 369.355 208.758 369.393 208.283C369.426 207.803 369.274 207.344 368.936 206.907Z" fill="#E7E7E7"/>
<path d="M360.083 184.054C359.746 183.617 359.826 182.989 360.263 182.652L367.385 177.149L368.608 178.731L361.486 184.234C361.049 184.572 360.421 184.491 360.083 184.054Z" fill="#E7E7E7"/>
<path d="M350.3 171.394C349.963 170.957 350.043 170.329 350.48 169.991L357.602 164.488L358.825 166.07L351.703 171.573C351.266 171.911 350.638 171.831 350.3 171.394Z" fill="#E7E7E7"/>
<path d="M367.42 193.55C367.083 193.113 367.163 192.485 367.6 192.147L374.722 186.644L375.945 188.227L368.823 193.73C368.386 194.067 367.758 193.987 367.42 193.55Z" fill="#E7E7E7"/>
<path d="M354.472 183.335C354.135 182.898 354.215 182.27 354.652 181.932L364.939 173.984L366.162 175.566L355.875 183.515C355.438 183.853 354.81 183.772 354.472 183.335Z" fill="#E7E7E7"/>
<path d="M370.981 204.7C370.643 204.263 370.724 203.635 371.161 203.297L381.448 195.348L382.671 196.931L372.384 204.88C371.947 205.217 371.319 205.137 370.981 204.7Z" fill="#E7E7E7"/>
</g>
</g>
<defs>
<filter id="filter0_d_128_4295" x="246.719" y="144.511" width="134.853" height="167.191" filterUnits="userSpaceOnUse" color-interpolation-filters="sRGB">
<feFlood flood-opacity="0" result="BackgroundImageFix"/>
<feColorMatrix in="SourceAlpha" type="matrix" values="0 0 0 0 0 0 0 0 0 0 0 0 0 0 0 0 0 0 127 0" result="hardAlpha"/>
<feOffset dy="4"/>
<feGaussianBlur stdDeviation="3"/>
<feComposite in2="hardAlpha" operator="out"/>
<feColorMatrix type="matrix" values="0 0 0 0 0 0 0 0 0 0 0 0 0 0 0 0 0 0 0.04 0"/>
<feBlend mode="normal" in2="BackgroundImageFix" result="effect1_dropShadow_128_4295"/>
<feBlend mode="normal" in="SourceGraphic" in2="effect1_dropShadow_128_4295" result="shape"/>
</filter>
<filter id="filter1_f_128_4295" x="256.462" y="175.916" width="71.4312" height="93.6841" filterUnits="userSpaceOnUse" color-interpolation-filters="sRGB">
<feFlood flood-opacity="0" result="BackgroundImageFix"/>
<feBlend mode="normal" in="SourceGraphic" in2="BackgroundImageFix" result="shape"/>
<feGaussianBlur stdDeviation="0.67957" result="effect1_foregroundBlur_128_4295"/>
</filter>
<filter id="filter2_f_128_4295" x="264.237" y="171.494" width="71.4312" height="93.6841" filterUnits="userSpaceOnUse" color-interpolation-filters="sRGB">
<feFlood flood-opacity="0" result="BackgroundImageFix"/>
<feBlend mode="normal" in="SourceGraphic" in2="BackgroundImageFix" result="shape"/>
<feGaussianBlur stdDeviation="0.67957" result="effect1_foregroundBlur_128_4295"/>
</filter>
<filter id="filter3_d_128_4295" x="307.971" y="145.029" width="119.902" height="135.549" filterUnits="userSpaceOnUse" color-interpolation-filters="sRGB">
<feFlood flood-opacity="0" result="BackgroundImageFix"/>
<feColorMatrix in="SourceAlpha" type="matrix" values="0 0 0 0 0 0 0 0 0 0 0 0 0 0 0 0 0 0 127 0" result="hardAlpha"/>
<feOffset dy="4"/>
<feGaussianBlur stdDeviation="3"/>
<feComposite in2="hardAlpha" operator="out"/>
<feColorMatrix type="matrix" values="0 0 0 0 0 0 0 0 0 0 0 0 0 0 0 0 0 0 0.04 0"/>
<feBlend mode="normal" in2="BackgroundImageFix" result="effect1_dropShadow_128_4295"/>
<feBlend mode="normal" in="SourceGraphic" in2="effect1_dropShadow_128_4295" result="shape"/>
</filter>
<linearGradient id="paint0_linear_128_4295" x1="187.5" y1="0" x2="187.5" y2="220" gradientUnits="userSpaceOnUse">
<stop stop-color="white"/>
<stop offset="1" stop-color="#F9F9FA"/>
</linearGradient>
<linearGradient id="paint1_linear_128_4295" x1="187.5" y1="0" x2="187.5" y2="220" gradientUnits="userSpaceOnUse">
<stop stop-color="white"/>
<stop offset="1" stop-color="#F9F9FA"/>
</linearGradient>
<linearGradient id="paint2_linear_128_4295" x1="134" y1="19.57" x2="80.4384" y2="88.902" gradientUnits="userSpaceOnUse">
<stop stop-color="#F7F7F7"/>
<stop offset="1" stop-color="white" stop-opacity="0"/>
</linearGradient>
<linearGradient id="paint3_linear_128_4295" x1="265.731" y1="171.798" x2="265.731" y2="305.18" gradientUnits="userSpaceOnUse">
<stop stop-color="#FBFBFB"/>
<stop offset="1" stop-color="#DCDCDC"/>
</linearGradient>
<linearGradient id="paint4_linear_128_4295" x1="249.21" y1="148.657" x2="249.21" y2="156.172" gradientUnits="userSpaceOnUse">
<stop stop-color="white"/>
<stop offset="1" stop-color="#E4E4E4"/>
</linearGradient>
<linearGradient id="paint5_linear_128_4295" x1="254.479" y1="154.415" x2="256.329" y2="171.144" gradientUnits="userSpaceOnUse">
<stop stop-color="white"/>
<stop offset="1" stop-color="#E6E6E6"/>
</linearGradient>
<clipPath id="clip0_128_4295">
<rect width="39" height="126" fill="white" transform="translate(313.971 170.875) rotate(-37.6936)"/>
</clipPath>
</defs>
</svg>
