<svg width="16" height="16" viewBox="0 0 16 16" fill="none" xmlns="http://www.w3.org/2000/svg">
<path fill-rule="evenodd" clip-rule="evenodd" d="M6.78385 3.94815C6.66174 3.82604 6.46375 3.82604 6.34164 3.94815L6.2799 4.00989C6.12369 4.1661 6.12369 4.41937 6.2799 4.57558L6.89268 5.18835C6.8922 5.1885 6.89171 5.18865 6.89123 5.1888L8.88935 7.18691C9.35798 7.65554 9.35798 8.41534 8.88935 8.88397L6.89117 10.8821C6.89168 10.8823 6.8922 10.8825 6.89271 10.8826L6.31556 11.4598C6.15935 11.616 6.15935 11.8692 6.31556 12.0254L6.33058 12.0405C6.47849 12.1884 6.71831 12.1884 6.86622 12.0405L8.35596 10.5508C8.37015 10.5376 8.38414 10.5241 8.39793 10.5104L9.45859 9.4497C10.2396 8.66865 10.2396 7.40232 9.45859 6.62127L8.39793 5.56061C8.38389 5.54657 8.36963 5.53286 8.35518 5.51949L6.78385 3.94815Z" fill="#FA4D32"/>
</svg>
