<svg width="17" height="16" viewBox="0 0 17 16" fill="none" xmlns="http://www.w3.org/2000/svg">
<path fill-rule="evenodd" clip-rule="evenodd" d="M13.3274 3.73834C12.0651 2.47606 10.0186 2.47605 8.75629 3.73834L7.99995 4.49468L7.24369 3.73842C5.9814 2.47614 3.93483 2.47614 2.67255 3.73842C1.41026 5.00071 1.41026 7.04728 2.67254 8.30956L3.42881 9.06582L3.42329 9.07134L6.58022 12.2283C7.36127 13.0093 8.6276 13.0093 9.40865 12.2283L10.8612 10.7757C10.9265 10.7179 10.9904 10.6577 11.053 10.5951L12.5767 9.07142L12.5711 9.06582L13.3274 8.30948C14.5897 7.0472 14.5897 5.00063 13.3274 3.73834Z" fill="url(#paint0_linear_868_3343)"/>
<path d="M10.4285 6.92999C10.6488 6.70964 11.0061 6.70964 11.2264 6.92999C11.4468 7.15034 11.4468 7.5076 11.2264 7.72795L10.0323 8.92204C9.81199 9.14239 9.45473 9.14239 9.23438 8.92204C9.01403 8.70169 9.01403 8.34443 9.23438 8.12408L10.4285 6.92999Z" fill="white"/>
<defs>
<linearGradient id="paint0_linear_868_3343" x1="8.52283" y1="8.63804" x2="3.45751" y2="0.832647" gradientUnits="userSpaceOnUse">
<stop stop-color="#666666"/>
<stop offset="1" stop-color="#A3A3A3"/>
</linearGradient>
</defs>
</svg>
