<svg width="12" height="12" viewBox="0 0 12 12" fill="none" xmlns="http://www.w3.org/2000/svg">
<path d="M0.15 2.57143C0.15 1.92923 0.405114 1.31333 0.85922 0.85922C1.31333 0.405114 1.92923 0.15 2.57143 0.15H9.42857C10.0708 0.15 10.6867 0.405114 11.1408 0.85922C11.5949 1.31333 11.85 1.92923 11.85 2.57143V9.42857C11.85 10.0708 11.5949 10.6867 11.1408 11.1408C10.6867 11.5949 10.0708 11.85 9.42857 11.85H2.57143C1.92923 11.85 1.31333 11.5949 0.85922 11.1408C0.405114 10.6867 0.15 10.0708 0.15 9.42857V2.57143Z" fill="url(#paint0_linear_151_2232)" stroke="url(#paint1_linear_151_2232)" stroke-width="0.3"/>
<path d="M5.46805 9.85711C5.61505 9.85711 5.73376 9.73625 5.73376 9.58625V6.60897C5.7341 6.57373 5.7275 6.53878 5.71433 6.5061C5.70116 6.47342 5.68168 6.44365 5.657 6.4185C5.63233 6.39335 5.60294 6.3733 5.57052 6.35951C5.5381 6.34572 5.50328 6.33844 5.46805 6.33811H5.2019C5.16331 6.33831 5.12525 6.34709 5.09048 6.36382C5.05172 6.35935 5.01247 6.36489 4.97646 6.37989C4.94045 6.39489 4.90888 6.41887 4.88476 6.44954L3.97019 7.62382L3.01019 6.42854C2.98357 6.39525 2.94875 6.36946 2.90916 6.35368C2.86956 6.33791 2.82655 6.33269 2.78433 6.33854H2.54176C2.50653 6.33887 2.47171 6.34615 2.43929 6.35994C2.40687 6.37373 2.37748 6.39378 2.3528 6.41893C2.32813 6.44408 2.30865 6.47385 2.29548 6.50653C2.28231 6.53921 2.27571 6.57416 2.27605 6.60939V9.58668C2.27605 9.73668 2.39476 9.85754 2.54176 9.85754H2.80748C2.9549 9.85754 3.07362 9.73668 3.07362 9.58668V7.37954L3.69419 8.15139C3.70748 8.20711 3.73276 8.26111 3.77819 8.30139C3.8339 8.35154 3.90162 8.37254 3.96676 8.36739C4.0024 8.37008 4.0382 8.36558 4.07207 8.35417C4.10593 8.34276 4.13716 8.32467 4.1639 8.30097C4.21924 8.2528 4.25418 8.18538 4.26162 8.11239L4.93619 7.24582V9.58625C4.93619 9.73625 5.05533 9.85711 5.2019 9.85711H5.46848H5.46805ZM5.73376 5.12011V3.63168H4.13776C4.10226 3.63202 4.06834 3.64642 4.04344 3.67172C4.01853 3.69703 4.00468 3.73118 4.0049 3.76668V4.03754C4.00485 4.0732 4.01868 4.10748 4.04348 4.13311C4.05578 4.14566 4.07044 4.15564 4.08663 4.16248C4.10281 4.16932 4.12019 4.17289 4.13776 4.17297H4.93576V4.84968C4.93576 4.99925 4.81705 5.12011 4.67005 5.12011H3.87162C3.35733 5.12011 2.94076 4.69582 2.94076 4.17297V3.63168C2.94076 3.10839 3.35776 2.68454 3.87162 2.68454H5.4659C5.46248 2.67939 5.45862 2.67468 5.45433 2.66997C5.45126 2.66645 5.44826 2.66288 5.44533 2.65925C5.49199 2.63742 5.53142 2.6027 5.55899 2.55919C5.58655 2.51568 5.6011 2.46519 5.6009 2.41368C5.60124 2.37845 5.59464 2.34349 5.58147 2.31081C5.5683 2.27813 5.54882 2.24837 5.52415 2.22322C5.49947 2.19806 5.47009 2.17802 5.43766 2.16423C5.40524 2.15043 5.37042 2.14316 5.33519 2.14282H3.47219C2.73848 2.14282 2.14276 2.74882 2.14276 3.49625V4.30839C2.14276 5.05582 2.73848 5.66139 3.47262 5.66139H5.2019C5.49548 5.66139 5.73376 5.41925 5.73376 5.12011ZM9.5909 6.87982C9.63805 6.87982 9.68433 6.88411 9.72976 6.89011C9.72462 6.88282 9.71905 6.87639 9.71348 6.86954C9.7092 6.8648 9.70505 6.85994 9.70105 6.85497C9.74778 6.83308 9.7873 6.7983 9.81493 6.75472C9.84257 6.71114 9.85718 6.66057 9.85705 6.60897C9.85762 6.53788 9.82996 6.46948 9.78014 6.41878C9.73032 6.36808 9.66241 6.33922 9.59133 6.33854H7.72919C6.99419 6.33854 6.3989 6.94411 6.3989 7.69154V8.50368C6.3989 9.25111 6.99462 9.85711 7.72919 9.85711H9.5909C9.7379 9.85711 9.85705 9.73625 9.85705 9.58625C9.8571 9.53472 9.84245 9.48424 9.81482 9.44074C9.78718 9.39724 9.74772 9.36253 9.70105 9.34068L9.7139 9.32568C9.71949 9.31921 9.72478 9.31249 9.72976 9.30554C9.68376 9.31205 9.63737 9.31549 9.5909 9.31582H8.26105C7.71848 9.31582 7.2719 8.90225 7.2059 8.36868H9.45805C9.60505 8.36868 9.72376 8.24739 9.72376 8.09782C9.7241 8.06259 9.7175 8.02764 9.70433 7.99496C9.69116 7.96228 9.67168 7.93251 9.647 7.90736C9.62233 7.88221 9.59294 7.86216 9.56052 7.84837C9.5281 7.83457 9.49328 7.8273 9.45805 7.82696H7.2059C7.2719 7.29296 7.71848 6.87982 8.26105 6.87982H9.5909ZM8.52676 5.66139C9.26176 5.66139 9.85705 5.05582 9.85705 4.30839V3.49625C9.85705 2.74882 9.26133 2.14282 8.52676 2.14282H7.72919C6.99419 2.14282 6.39848 2.74882 6.39848 3.49625V4.30839C6.39848 5.05582 6.99419 5.66139 7.72876 5.66139H8.52633H8.52676ZM7.1969 3.63168C7.1969 3.10839 7.6139 2.68454 8.12776 2.68454C8.64205 2.68454 9.05905 3.10839 9.05905 3.63168V4.17297C9.05905 4.69582 8.64205 5.12011 8.12776 5.12011C7.61348 5.12011 7.1969 4.69582 7.1969 4.17297V3.63168Z" fill="white"/>
<defs>
<linearGradient id="paint0_linear_151_2232" x1="6.5" y1="7" x2="-4.96705e-08" y2="-1" gradientUnits="userSpaceOnUse">
<stop stop-color="#666666"/>
<stop offset="1" stop-color="#A3A3A3"/>
</linearGradient>
<linearGradient id="paint1_linear_151_2232" x1="2.3" y1="0.5" x2="7.34762" y2="11.5818" gradientUnits="userSpaceOnUse">
<stop stop-color="white"/>
<stop offset="1" stop-color="white" stop-opacity="0"/>
</linearGradient>
</defs>
</svg>
