<svg width="12" height="12" viewBox="0 0 12 12" fill="none" xmlns="http://www.w3.org/2000/svg">
<path d="M10.8838 1.07857L10.8838 1.07862L10.8879 1.0801C11.1143 1.16244 11.2848 1.39217 11.2848 1.66957V6.57391C11.2848 7.79678 10.4161 8.94536 9.35629 9.87874C8.30304 10.8064 7.09588 11.4908 6.49059 11.787L6.48944 11.7876C6.40827 11.8282 6.30123 11.85 6.21739 11.85C6.13355 11.85 6.02651 11.8282 5.94534 11.7876L5.94419 11.787C5.33891 11.4908 4.13174 10.8064 3.07849 9.87874C2.01871 8.94536 1.15 7.79678 1.15 6.57391V1.66957C1.15 1.39217 1.32049 1.16244 1.54691 1.0801L1.54693 1.08016L1.55095 1.07857C3.04954 0.484299 4.46552 0.15 6.21739 0.15C7.96926 0.15 9.38525 0.484299 10.8838 1.07857Z" fill="url(#paint0_linear_151_2253)" stroke="url(#paint1_linear_151_2253)" stroke-width="0.3"/>
<path d="M9.03675 3.08906C8.97505 3.01821 8.86699 3.01239 8.79805 3.07622L5.80561 5.84657C5.73108 5.91556 5.61764 5.9207 5.53718 5.85872L4.2739 4.88561C4.18491 4.81706 4.05496 4.85449 4.01607 4.95987L3.81573 5.50266C3.79175 5.56763 3.80309 5.64038 3.84571 5.69497L5.06761 7.26032C5.38559 7.66768 5.99399 7.68998 6.34094 7.307L9.46901 3.8541C9.53704 3.77901 9.53816 3.66491 9.47162 3.58849L9.03675 3.08906Z" fill="white"/>
<defs>
<linearGradient id="paint0_linear_151_2253" x1="6.65217" y1="7" x2="0.026817" y2="-0.0906824" gradientUnits="userSpaceOnUse">
<stop stop-color="#666666"/>
<stop offset="1" stop-color="#A3A3A3"/>
</linearGradient>
<linearGradient id="paint1_linear_151_2253" x1="3" y1="0.5" x2="8.5" y2="11" gradientUnits="userSpaceOnUse">
<stop stop-color="white"/>
<stop offset="1" stop-color="white" stop-opacity="0"/>
</linearGradient>
</defs>
</svg>
