<svg width="17" height="16" viewBox="0 0 17 16" fill="none" xmlns="http://www.w3.org/2000/svg">
<path d="M12.9941 2.93913C11.481 2.33913 10.0463 2 8.27235 2C6.49844 2 5.06366 2.33913 3.55061 2.93913C3.26366 3.04348 3.05496 3.33043 3.05496 3.66957V8C3.05496 10.5826 6.70714 12.7478 7.93322 13.3478C8.03757 13.4 8.168 13.4261 8.27235 13.4261C8.3767 13.4261 8.50714 13.4 8.61148 13.3478C9.83757 12.7478 13.4897 10.5826 13.4897 8V3.66957C13.4897 3.33043 13.281 3.04348 12.9941 2.93913Z" fill="url(#paint0_linear_868_3339)"/>
<path d="M11.0917 5.08906C11.03 5.01821 10.922 5.01239 10.853 5.07622L7.86057 7.84657C7.78604 7.91556 7.6726 7.9207 7.59215 7.85872L6.32886 6.88561C6.23987 6.81706 6.10992 6.85449 6.07103 6.95987L5.87069 7.50266C5.84671 7.56763 5.85805 7.64038 5.90067 7.69497L7.12257 9.26032C7.44055 9.66768 8.04895 9.68998 8.39591 9.307L11.524 5.8541C11.592 5.77901 11.5931 5.66491 11.5266 5.58849L11.0917 5.08906Z" fill="white"/>
<defs>
<linearGradient id="paint0_linear_868_3339" x1="8.70714" y1="9" x2="2.08178" y2="1.90932" gradientUnits="userSpaceOnUse">
<stop stop-color="#666666"/>
<stop offset="1" stop-color="#A3A3A3"/>
</linearGradient>
</defs>
</svg>
