<svg width="18" height="10" viewBox="0 0 18 10" fill="none" xmlns="http://www.w3.org/2000/svg">
<path d="M5.15078 3.96908C5.18465 3.90132 5.25391 3.85852 5.32966 3.85852H16.2061L15.2061 5.85852H4.52966C4.38098 5.85852 4.28429 5.70206 4.35078 5.56908L5.15078 3.96908Z" fill="white"/>
<path d="M1.23818 3.96908C1.27206 3.90132 1.34131 3.85852 1.41706 3.85852H3.21995C3.36862 3.85852 3.46532 4.01498 3.39883 4.14796L2.59883 5.74796C2.56495 5.81572 2.4957 5.85852 2.41995 5.85852H0.617064C0.468387 5.85852 0.371688 5.70206 0.438178 5.56908L1.23818 3.96908Z" fill="white"/>
<path d="M12.8121 7.66926C12.6863 7.47031 12.7163 7.21052 12.8841 7.04546L16.5463 3.4443L17.6069 4.50496C17.8022 4.70022 17.8022 5.0168 17.6069 5.21207L14.1598 8.65918C13.9333 8.88576 13.555 8.84372 13.3837 8.57291L12.8121 7.66926Z" fill="white"/>
<path d="M13.3831 1.14132C13.5549 0.871604 13.9322 0.830268 14.1583 1.05639L17.6069 4.50493C17.8021 4.70019 17.8021 5.01678 17.6069 5.21204L16.5462 6.2727L12.912 2.60587C12.7476 2.43995 12.72 2.18229 12.8455 1.98527L13.3831 1.14132Z" fill="white"/>
</svg>
