<svg width="17" height="16" viewBox="0 0 17 16" fill="none" xmlns="http://www.w3.org/2000/svg">
<circle cx="8.00604" cy="7.92603" r="6" fill="url(#paint0_linear_868_3349)"/>
<path d="M10.6657 5.79759H5.5652V6.48135H6.23664L5.75616 6.88175C5.91632 7.04191 6.2736 7.49159 6.46456 7.78111H5.85472V8.76671C5.85472 9.73999 5.6884 10.1589 5.14632 10.818L5.84856 11.1506C6.40912 10.3745 6.5816 9.89399 6.5816 8.95151V8.45255H10.6349V7.78111H9.82792C10.062 7.52855 10.3454 7.11583 10.5117 6.83863L10.0066 6.48135H10.6657V5.79759ZM7.15448 6.48135V7.78111H6.68016L7.11752 7.38687C6.93888 7.12815 6.60008 6.69079 6.40296 6.48135H7.15448ZM8.36184 6.48135V7.78111H7.91216V6.48135H8.36184ZM9.59384 7.78111H9.138V6.48135H9.88336C9.70472 6.77703 9.39056 7.17743 9.16264 7.42383L9.59384 7.78111Z" fill="white"/>
<defs>
<linearGradient id="paint0_linear_868_3349" x1="8.50604" y1="8.92603" x2="2.00604" y2="0.926025" gradientUnits="userSpaceOnUse">
<stop stop-color="#666666"/>
<stop offset="1" stop-color="#A3A3A3"/>
</linearGradient>
</defs>
</svg>
