<svg width="12" height="12" viewBox="0 0 12 12" fill="none" xmlns="http://www.w3.org/2000/svg">
<circle cx="6" cy="6" r="5.85" fill="url(#paint0_linear_151_2238)" stroke="url(#paint1_linear_151_2238)" stroke-width="0.3"/>
<path d="M8.61063 3.87157H3.51015V4.55533H4.18159L3.70111 4.95573C3.86127 5.11589 4.21855 5.56557 4.40951 5.85509H3.79967V6.84069C3.79967 7.81397 3.63335 8.23285 3.09127 8.89197L3.79351 9.22461C4.35407 8.44845 4.52655 7.96797 4.52655 7.02549V6.52653H8.57983V5.85509H7.77287C8.00695 5.60253 8.29031 5.18981 8.45663 4.91261L7.95151 4.55533H8.61063V3.87157ZM5.09943 4.55533V5.85509H4.62511L5.06247 5.46085C4.88383 5.20213 4.54503 4.76477 4.34791 4.55533H5.09943ZM6.30679 4.55533V5.85509H5.85711V4.55533H6.30679ZM7.53879 5.85509H7.08295V4.55533H7.82831C7.64967 4.85101 7.33551 5.25141 7.10759 5.49781L7.53879 5.85509Z" fill="white"/>
<defs>
<linearGradient id="paint0_linear_151_2238" x1="6.5" y1="7" x2="-4.96705e-08" y2="-1" gradientUnits="userSpaceOnUse">
<stop stop-color="#666666"/>
<stop offset="1" stop-color="#A3A3A3"/>
</linearGradient>
<linearGradient id="paint1_linear_151_2238" x1="2.3" y1="0.5" x2="7.34762" y2="11.5818" gradientUnits="userSpaceOnUse">
<stop stop-color="white"/>
<stop offset="1" stop-color="white" stop-opacity="0"/>
</linearGradient>
</defs>
</svg>
