<svg width="32" height="32" viewBox="0 0 32 32" fill="none" xmlns="http://www.w3.org/2000/svg">
<rect opacity="0.01" width="32" height="32" fill="white"/>
<path fill-rule="evenodd" clip-rule="evenodd" d="M7.75793 7.81739C8.2099 7.32813 8.63833 7 9.24922 7H20.5476C21.1585 7 21.5323 7.31921 22.0389 7.81739L23.5478 9.56921C24.0794 10.1863 24.3717 10.9737 24.3717 11.7881V22.0269C24.3717 23.6833 23.0293 25.0262 21.3729 25.0269L8.43676 25.0321C6.77943 25.0328 5.43555 23.6894 5.43555 22.0321V11.7839C5.43555 10.972 5.72605 10.1869 6.25453 9.57063L7.75793 7.81739Z" fill="url(#paint0_linear_719_73083)"/>
<path fill-rule="evenodd" clip-rule="evenodd" d="M19.3908 14.8535C19.1956 14.6583 18.8792 14.6582 18.6839 14.8532L14.4513 19.079L12.3384 16.9607C12.1432 16.765 11.8263 16.7648 11.6309 16.9603L11.2773 17.3138C11.0822 17.5089 11.082 17.8251 11.2769 18.0205L13.3898 20.1388L13.3891 20.1395L13.9453 20.6958L14.0992 20.8501C14.2944 21.0458 14.6113 21.046 14.8068 20.8505L15.5134 20.1439L15.5106 20.141L19.744 15.9144C19.9396 15.7192 19.9397 15.4024 19.7443 15.207L19.3908 14.8535Z" fill="white"/>
<rect x="5" y="10.5254" width="20" height="1.09433" fill="white"/>
<defs>
<linearGradient id="paint0_linear_719_73083" x1="11.3243" y1="29.5417" x2="20.2368" y2="17.9002" gradientUnits="userSpaceOnUse">
<stop stop-color="#FA3B34"/>
<stop offset="1" stop-color="#FF6A33"/>
<stop offset="1" stop-color="#FF6A33"/>
</linearGradient>
</defs>
</svg>
