<svg width="32" height="32" viewBox="0 0 32 32" fill="none" xmlns="http://www.w3.org/2000/svg">
<rect opacity="0.01" width="32" height="32" fill="white"/>
<ellipse cx="14.187" cy="16.3368" rx="9.18705" ry="9.33684" fill="url(#paint0_linear_719_73185)"/>
<path d="M11 15.0615C11 14.7854 11.2239 14.5615 11.5 14.5615H17.5C17.7761 14.5615 18 14.7854 18 15.0615V15.5615C18 15.8377 17.7761 16.0615 17.5 16.0615H11.5C11.2239 16.0615 11 15.8377 11 15.5615V15.0615Z" fill="white"/>
<rect x="11" y="17.2256" width="7" height="1.5" rx="0.5" fill="white"/>
<path fill-rule="evenodd" clip-rule="evenodd" d="M15.3047 14.8086L15.3047 21.3086C15.3047 21.5847 15.0808 21.8086 14.8047 21.8086H14.3047C14.0285 21.8086 13.8047 21.5847 13.8047 21.3086L13.8047 14.8086H15.3047Z" fill="white"/>
<path fill-rule="evenodd" clip-rule="evenodd" d="M12.0781 11.3549C12.2947 11.1629 12.6286 11.1944 12.8055 11.4235L15.2294 14.5637C15.3901 14.7719 15.362 15.069 15.1652 15.2434L14.9438 15.4396C14.7272 15.6315 14.3933 15.6 14.2164 15.3709L11.7925 12.2307C11.6318 12.0225 11.6599 11.7254 11.8567 11.551L12.0781 11.3549Z" fill="white"/>
<path fill-rule="evenodd" clip-rule="evenodd" d="M16.8301 11.3549C16.6135 11.1629 16.2796 11.1944 16.1027 11.4235L13.3933 14.9335L14.3648 15.7944L17.1157 12.2307C17.2764 12.0225 17.2483 11.7254 17.0515 11.551L16.8301 11.3549Z" fill="white"/>
<path fill-rule="evenodd" clip-rule="evenodd" d="M24.7153 21.5125C23.1671 24.7592 20.2077 27.1815 16.6471 27.9564C16.5839 27.9833 16.5147 27.9984 16.4421 27.999L16.4374 27.9999V27.999C16.1376 27.999 15.8945 27.752 15.8945 27.4473C15.8945 27.1426 16.1376 26.8956 16.4374 26.8956V26.8878C20.1471 26.0739 23.0879 23.2899 24.2511 19.7318H24.2629C24.2694 19.5732 24.3773 19.4303 24.5384 19.3865L24.8985 19.2884C25.0807 19.2388 25.2684 19.3472 25.3166 19.5298L25.3698 19.7318H25.3955C25.3911 19.7471 25.3865 19.7625 25.382 19.7778L25.9864 22.0702C26.0459 22.2959 25.9123 22.5273 25.6871 22.5886L25.4585 22.6509C25.2307 22.7129 24.9961 22.5774 24.9359 22.3492L24.7153 21.5125Z" fill="#FA4D32"/>
<defs>
<linearGradient id="paint0_linear_719_73185" x1="13.3424" y1="27.861" x2="21.3612" y2="18.1789" gradientUnits="userSpaceOnUse">
<stop stop-color="#FA3B34"/>
<stop offset="1" stop-color="#FF6A33"/>
<stop offset="1" stop-color="#FF6A33"/>
</linearGradient>
</defs>
</svg>
