<?xml version="1.0" encoding="UTF-8"?>
<svg width="12px" height="12px" viewBox="0 0 12 12" version="1.1" xmlns="http://www.w3.org/2000/svg" xmlns:xlink="http://www.w3.org/1999/xlink">
    <title>疑问</title>
    <g id="疑问" stroke="none" stroke-width="1" fill="none" fill-rule="evenodd">
        <circle id="椭圆形" stroke="#999999" stroke-width="0.7" cx="6" cy="6" r="5.65"></circle>
        <path d="M6.24319565,7.601 L6.24319565,7.394 C6.24319565,7.151 6.29719565,6.935 6.41419565,6.737 C6.50419565,6.575 6.63919565,6.413 6.83719565,6.242 C7.23319565,5.891 7.47619565,5.657 7.56619565,5.549 C7.79119565,5.252 7.90819565,4.901 7.90819565,4.496 C7.90819565,3.956 7.73719565,3.533 7.40419565,3.227 C7.05319565,2.903 6.59419565,2.75 6.01819565,2.75 C5.37019565,2.75 4.86619565,2.948 4.50619565,3.344 C4.14619565,3.722 3.97519565,4.226 3.97519565,4.856 L4.68619565,4.856 C4.68619565,4.415 4.78519565,4.073 4.98319565,3.821 C5.19919565,3.524 5.53219565,3.38 5.98219565,3.38 C6.36019565,3.38 6.65719565,3.479 6.86419565,3.695 C7.06219565,3.893 7.17019565,4.172 7.17019565,4.532 C7.17019565,4.784 7.08019565,5.018 6.90019565,5.243 C6.84619565,5.315 6.73819565,5.423 6.59419565,5.567 C6.10819565,5.999 5.81119565,6.341 5.68519565,6.611 C5.57719565,6.836 5.52319565,7.097 5.52319565,7.394 L5.52319565,7.601 L6.24319565,7.601 Z M5.88319565,9.302 C6.03619565,9.302 6.16219565,9.248 6.27019565,9.149 C6.37819565,9.05 6.43219565,8.924 6.43219565,8.762 C6.43219565,8.609 6.37819565,8.483 6.27919565,8.384 C6.17119565,8.276 6.03619565,8.231 5.88319565,8.231 C5.73019565,8.231 5.60419565,8.276 5.49619565,8.384 C5.38819565,8.483 5.34319565,8.609 5.34319565,8.762 C5.34319565,8.915 5.38819565,9.041 5.49619565,9.149 C5.60419565,9.248 5.73019565,9.302 5.88319565,9.302 Z" id="？" fill="#999999" fill-rule="nonzero"></path>
    </g>
</svg>